<svg width="1145" height="890" viewBox="0 0 1145 890" fill="none" xmlns="http://www.w3.org/2000/svg">
<path d="M302.84 24.0562C302.84 24.0562 368.325 54.1362 369.405 54.5562C368.525 55.4262 370.225 55.0062 369.405 54.5562C400.555 71.3261 430.355 91.6113 457.805 114.041C457.989 114.193 458.203 114.304 458.433 114.369C458.663 114.433 458.903 114.449 459.14 114.416C471.74 112.646 484.305 110.796 496.835 108.866C506.9 107.321 517.46 106.631 527.78 105.491C556.4 103.071 585.025 103.071 613.655 105.491C633.885 107.621 654.015 110.491 674.045 114.101C674.498 114.182 674.964 114.166 675.411 114.055C675.858 113.944 676.276 113.74 676.64 113.456C699.875 95.3063 724.61 77.6662 750.5 63.2062C799.97 35.5763 851.84 11.4862 908.525 2.18625C965.435 -7.15873 1010.73 19.1213 1033.28 71.6212C1039.93 88.8012 1044.16 105.396 1048.25 118.376C1048.25 118.376 1051.65 134.296 1051.83 135.836C1054.92 162.006 1056.68 188.256 1057.1 214.586C1057.29 227.426 1056.21 241.721 1055.84 255.341C1055.16 278.816 1054.17 298.631 1053.53 320.291C1053.59 329.111 1053.07 338.031 1051.98 347.051C1059.3 384.231 1065.41 421.601 1070.3 459.161C1070.35 459.541 1070.82 464.546 1071.71 474.176C1072.17 479.176 1072.95 484.141 1074.06 489.071C1075.28 503.221 1075.58 517.456 1074.96 531.776C1074.96 531.875 1074.98 531.973 1075.01 532.066C1075.04 532.158 1075.09 532.243 1075.16 532.316C1075.22 532.388 1075.3 532.447 1075.39 532.488C1075.48 532.529 1075.57 532.553 1075.67 532.556C1088.15 533.066 1099.8 533.816 1113.05 533.921C1128.32 534.041 1149.71 534.206 1143.57 557.321C1138.33 566.461 1131.07 571.446 1121.79 572.276C1113.73 573.006 1103.36 572.351 1090.67 570.311C1089.08 570.051 1087.57 570.446 1086.15 571.496C1083.57 571.376 1072.64 569.171 1072.59 571.181C1072.39 571.161 1072.19 571.201 1071.98 571.301C1071.84 571.37 1071.71 571.492 1071.62 571.656C1071.52 571.82 1071.47 572.019 1071.45 572.231C1070.51 589.711 1067.57 606.861 1062.63 623.681C1062.11 626.371 1061.11 628.911 1059.62 631.301C1059.52 631.457 1059.46 631.633 1059.44 631.815C1059.43 631.997 1059.45 632.18 1059.51 632.35C1059.58 632.519 1059.68 632.67 1059.81 632.79C1059.95 632.91 1060.11 632.996 1060.28 633.041L1105.53 644.951C1108.51 646.891 1111.74 648.081 1115.21 648.521C1120.22 649.151 1122.96 649.551 1123.43 649.721C1129.42 651.951 1131.34 656.616 1129.19 663.716C1123.98 680.876 1109.91 684.821 1093.94 681.386C1079.77 678.356 1065.72 674.786 1051.8 670.676L1045.05 669.761C1040.45 681.541 1036.38 690.666 1032.83 697.136C1009.14 740.296 976.93 775.201 936.2 801.851C909.5 819.326 880.175 835.046 850.7 844.901C819.575 855.311 797.015 860.771 769.79 868.001C763.745 869.606 733.205 874.841 726.905 876.056L632.555 886.227L588.89 889.346C531.74 890.126 474.12 886.581 416.03 878.711C386.705 874.751 359.78 868.301 331.865 861.596C316.52 857.906 301.895 852.446 287.045 847.166C201.785 816.836 129.695 757.661 97.4746 670.286C97.4067 670.105 97.271 669.954 97.0906 669.858C96.9102 669.762 96.6961 669.728 96.4846 669.761L86.6446 671.351C77.6746 673.201 68.8496 675.586 60.1696 678.506C48.2896 682.481 37.2346 685.481 25.6546 678.506C19.8846 672.006 17.1146 664.356 17.3446 655.556C18.0646 651.536 20.3196 648.681 24.1096 646.991C44.1096 643.591 63.7746 638.626 83.1046 632.096C83.2042 632.065 83.2963 632.015 83.375 631.947C83.4538 631.879 83.5172 631.797 83.5612 631.705C83.6052 631.612 83.6287 631.513 83.6301 631.412C83.6316 631.312 83.611 631.212 83.5696 631.121C75.0496 612.451 70.4996 592.851 69.9196 572.321C69.9185 572.226 69.8959 572.132 69.8533 572.045C69.8107 571.958 69.749 571.88 69.6719 571.815C69.5948 571.751 69.5038 571.701 69.4046 571.67C69.3054 571.638 69.2 571.625 69.0947 571.631C53.4846 572.451 41.2196 573.381 32.2996 574.421C12.2196 576.741 1.46963 568.166 0.0496271 548.696C-0.880373 535.886 11.4346 534.821 22.3696 534.281C36.3996 533.611 50.4246 532.871 64.4446 532.061C64.6491 532.054 64.8432 531.969 64.9879 531.825C65.1326 531.68 65.2172 531.486 65.2246 531.281C65.4146 525.521 65.6096 515.201 65.8096 500.321C66.2296 468.206 69.4397 432.731 75.4697 399.056C78.4697 380.516 82.4396 362.146 87.3796 343.946C83.6746 289.886 78.8297 219.371 83.7197 159.056C86.9997 133.006 93.0046 107.621 101.735 82.9013C104.145 77.4913 106.57 72.0962 109.01 66.7162C130.67 18.9263 171.305 -6.75377 224.81 1.54122C252.46 5.84121 278.47 13.3463 302.84 24.0562ZM131.78 275.006C133.29 280.076 133.515 285.196 132.455 290.366C132.335 290.906 132.49 291.096 132.92 290.936C133.37 290.771 138.125 280.766 138.845 279.431C151.295 259.341 165.085 240.216 180.215 222.056C189.165 212.026 198.16 202.046 207.2 192.116C217.88 180.371 231.785 171.311 248.285 176.876C258.965 180.476 259.595 192.581 254.09 201.056C251.58 202.506 249.46 204.466 247.73 206.936C247.447 207.336 247.055 207.64 246.605 207.806C223.445 216.566 206.285 237.881 190.895 257.681C150.32 309.866 123.53 375.536 114.29 440.891C110.09 470.666 106.355 501.206 107.81 531.266C107.9 533.226 108.925 534.251 110.885 534.341C122.275 534.861 133.405 535.396 144.275 535.946C151.265 536.291 157.475 537.836 158.66 545.201C160.13 554.411 153.2 566.636 143.78 568.256C136.33 569.526 128.82 570.351 121.25 570.731C118.12 571.361 114.63 571.381 110.78 570.791C111.6 585.961 115.105 600.496 121.295 614.396L124.055 621.911C124.135 622.132 124.267 622.322 124.426 622.448C124.585 622.574 124.761 622.628 124.925 622.601L126.905 622.286C135.825 621.606 144.395 619.526 152.615 616.046C158.245 613.306 163.585 613.366 168.635 616.226C171.265 619.556 172.865 622.791 173.435 625.931C176.99 645.596 155.495 649.151 142.16 653.081C141.931 653.151 141.728 653.249 141.566 653.366C141.405 653.484 141.289 653.617 141.23 653.756C141.08 654.086 141.18 654.331 141.53 654.491L138.845 655.556C137.985 655.186 136.915 655.486 135.635 656.456C137.815 666.186 142.52 676.151 149.75 686.351C164.91 707.721 175.665 722.336 182.015 730.196C182.755 731.116 183.76 731.091 185.03 730.121C193.33 738.811 203.86 748.051 216.62 757.841C250.84 784.071 287.935 802.831 327.905 814.121C363.645 825.031 398.395 832.806 432.155 837.446C515.21 848.861 602.225 850.166 686.51 839.801C706.04 837.386 726.665 832.751 746.165 829.241C803.345 818.921 863.495 800.456 910.37 768.146C923.45 759.126 937.115 747.471 951.365 733.181C973.655 710.816 991.295 685.541 1003.65 656.141C1003.69 656.059 1003.7 655.969 1003.7 655.88C1003.69 655.791 1003.67 655.705 1003.62 655.628C1003.58 655.552 1003.52 655.486 1003.45 655.437C1003.37 655.388 1003.29 655.357 1003.2 655.346C993.135 653.896 986.195 652.181 982.385 650.201C971.39 644.516 964.385 633.986 969.005 621.686C975.185 605.231 1004.73 618.146 1016.12 621.431C1016.26 621.471 1016.4 621.483 1016.54 621.466C1016.68 621.449 1016.82 621.404 1016.94 621.333C1017.06 621.261 1017.17 621.166 1017.26 621.052C1017.35 620.937 1017.42 620.806 1017.45 620.666C1022.05 604.686 1025.37 588.446 1027.4 571.946C1027.41 571.837 1027.4 571.726 1027.37 571.621C1027.34 571.516 1027.29 571.419 1027.22 571.335C1027.15 571.252 1027.06 571.185 1026.96 571.138C1026.86 571.09 1026.76 571.064 1026.65 571.061C1006.82 570.341 983.66 576.716 982.265 548.786C981.77 538.781 987.155 534.716 996.89 534.071C1007.6 533.351 1018.34 532.716 1029.11 532.166C1029.31 532.155 1029.5 532.068 1029.64 531.924C1029.78 531.779 1029.86 531.587 1029.86 531.386C1030.34 459.341 1015.31 385.001 980.3 322.286C958.23 282.746 929.895 246.961 895.295 214.931C891.705 211.611 887.5 209.046 882.68 207.236C878.16 201.276 875.635 195.226 875.105 189.086C876.385 183.506 879.38 179.496 884.09 177.056C893.72 173.696 902.325 175.341 909.905 181.991C909.275 182.451 908.995 183.041 909.065 183.761C909.079 183.965 909.151 184.178 909.275 184.387C909.399 184.597 913.693 188.377 913.905 188.556C917.265 191.476 916.31 191.001 919.28 194.291C923.165 198.581 928.355 200.636 932.18 204.851C938.33 211.601 945.44 220.181 953.51 230.591C956.54 234.491 961.46 239.366 965.33 244.661C969.815 250.796 975.47 256.856 979.64 262.271C981.77 265.046 989.51 276.686 992.78 276.371L1007.25 295.076C1007.56 295.466 1007.76 295.416 1007.84 294.926C1008.2 292.706 1007.72 289.976 1007.88 288.026C1011.45 244.796 1009.08 208.391 1003.64 163.931C1002.63 155.711 1000.4 144.836 996.965 131.306C992.015 105.401 983.84 74.3812 962.42 55.5562C961.04 54.3462 956.725 52.3512 949.475 49.5713C944.465 46.7013 938.775 45.6863 932.405 46.5263C873.365 54.2962 818.255 73.8263 766.43 102.776C740.76 117.116 719.12 129.911 701.51 141.161C692.615 146.846 685.88 150.041 675.125 148.706C662.295 147.126 649.52 145.131 636.8 142.721C635.375 142.451 633.875 143.051 632.66 142.511C630.14 141.401 628.325 141.086 625.655 142.121L585.53 138.491L556.43 138.101L530.39 139.391C521.9 139.491 513.485 140.261 505.145 141.701C491.225 144.111 484.205 145.321 484.085 145.331C472.955 146.861 456.425 151.106 444.32 147.461C442.56 146.931 440.73 146.676 438.83 146.696C434.15 143.966 422.02 136.491 402.44 124.271C380.79 110.761 354.1 96.5112 322.37 81.5212C309.45 73.9913 295.665 68.6262 281.015 65.4262L253.64 57.2812C241.37 52.8812 228.81 49.7162 215.96 47.7863C197.555 45.0263 175.385 47.8613 165.035 65.5762C154.385 83.8312 148.55 101.696 142.85 123.656C136.175 149.291 131.3 176.366 131.12 202.931C131.07 210.381 130.58 227.226 129.65 253.466C129.39 260.756 130.1 267.936 131.78 275.006Z" fill="#67C6B5"/>
<path d="M243.285 59.5063L270.66 67.6513L303.735 81.0313C302.735 84.8813 300.635 87.9663 297.435 90.2863C297.036 90.5778 296.746 90.978 296.61 91.4263C295.02 96.3913 293.805 102.946 289.83 106.606C283.46 112.456 278.44 119.511 274.77 127.771C256.56 115.081 229.23 97.6513 206.4 98.6863C178.005 99.9763 155.565 114.841 135.855 134.191C135.467 134.579 135.027 134.823 134.61 134.881L131.55 135.286C137.505 111.961 144.48 84.6613 157.875 65.3563C174.33 41.6713 218.025 53.2963 243.285 59.5063Z" fill="#F3F0D8"/>
<path d="M939.12 51.7963C946.37 54.5763 950.685 56.5713 952.065 57.7813C973.485 76.6063 981.66 107.626 986.61 133.531C987.29 135.771 987.05 136.856 985.89 136.786C985.689 136.772 985.484 136.689 985.294 136.545C985.105 136.4 984.938 136.199 984.81 135.961C983.97 134.411 982.99 133.171 981.87 132.241C964.2 117.496 938.49 100.531 914.865 98.1463C893.79 96.0013 870.255 106.426 853.125 118.276C856.725 112.876 856.29 108.151 851.82 104.101C851.03 103.391 850.655 101.976 850.695 99.8563C850.679 99.8301 850.589 99.7596 850.44 99.6576C850.291 99.5557 850.094 99.4292 849.885 99.3013L844.545 96.0163C844.254 95.8381 843.97 95.6687 843.743 95.5374C843.516 95.406 843.359 95.3208 843.3 95.2963C842.7 95.3963 842.445 95.1413 842.535 94.5313C842.57 94.2946 842.537 94.0527 842.438 93.8346C842.34 93.6165 842.18 93.4313 841.98 93.3013C839.31 91.6213 834.45 89.7013 835.215 85.8463C835.845 82.7263 835.35 80.5963 833.835 78.0013C833.545 77.5092 833.432 76.9842 833.52 76.5313C833.93 74.3113 833.095 73.3513 831.015 73.6513C830.987 73.6567 830.959 73.6505 830.936 73.6333C830.912 73.6161 830.893 73.5884 830.88 73.5527C830.866 73.5171 830.859 73.4745 830.859 73.4289C830.859 73.3833 830.866 73.336 830.88 73.2913C830.94 73.1013 830.955 72.9113 830.925 72.7213C851.135 64.8913 874.135 58.6613 899.925 54.0313C914.355 51.4413 927.42 50.6963 939.12 51.7963Z" fill="#F3F0D8"/>
<path d="M830.925 72.7213C830.955 72.9113 830.94 73.1013 830.88 73.2913C830.866 73.336 830.859 73.3833 830.859 73.4289C830.859 73.4745 830.866 73.5171 830.88 73.5527C830.893 73.5884 830.912 73.6161 830.936 73.6333C830.959 73.6505 830.987 73.6567 831.015 73.6513C833.095 73.3513 833.93 74.3113 833.52 76.5313C833.432 76.9842 833.545 77.5092 833.835 78.0013C835.35 80.5963 835.845 82.7263 835.215 85.8463C834.45 89.7013 839.31 91.6213 841.98 93.3013C842.18 93.4313 842.34 93.6165 842.438 93.8346C842.537 94.0527 842.57 94.2946 842.535 94.5313C842.445 95.1413 842.7 95.3963 843.3 95.2963C843.359 95.3208 843.516 95.406 843.743 95.5374C843.97 95.6687 844.254 95.8381 844.545 96.0163L849.885 99.3013C850.094 99.4292 850.291 99.5557 850.44 99.6576C850.589 99.7596 850.679 99.8301 850.695 99.8563C850.655 101.976 851.03 103.391 851.82 104.101C856.29 108.151 856.725 112.876 853.125 118.276C836.885 128.686 821.435 140.226 806.775 152.896C803.185 155.996 800.245 159.271 797.955 162.721C797.685 163.135 797.553 163.625 797.58 164.118C797.607 164.612 797.791 165.084 798.105 165.466C802.585 170.956 807.505 175.966 812.865 180.496C830.215 195.146 850.035 204.801 872.325 209.461C877.145 211.271 881.35 213.836 884.94 217.156C919.54 249.186 947.875 284.971 969.945 324.511C1004.95 387.226 1019.98 461.566 1019.5 533.611C1019.5 533.812 1019.42 534.004 1019.28 534.149C1019.14 534.293 1018.95 534.38 1018.75 534.391C1007.98 534.941 997.245 535.576 986.535 536.296C976.8 536.941 971.415 541.006 971.91 551.011C973.305 578.941 996.465 572.566 1016.29 573.286C1016.4 573.289 1016.51 573.316 1016.61 573.363C1016.7 573.41 1016.79 573.477 1016.86 573.56C1016.93 573.644 1016.98 573.741 1017.02 573.846C1017.05 573.951 1017.06 574.062 1017.04 574.171C1015.01 590.671 1011.7 606.911 1007.1 622.891C1007.06 623.031 1006.99 623.162 1006.91 623.276C1006.82 623.391 1006.71 623.486 1006.58 623.558C1006.46 623.629 1006.32 623.674 1006.18 623.691C1006.04 623.708 1005.9 623.696 1005.76 623.656C994.38 620.371 964.83 607.456 958.65 623.911C954.03 636.211 961.035 646.741 972.03 652.426C975.84 654.406 982.78 656.121 992.85 657.571C992.936 657.582 993.018 657.613 993.091 657.662C993.163 657.711 993.223 657.777 993.267 657.853C993.31 657.93 993.336 658.016 993.341 658.105C993.347 658.194 993.333 658.283 993.3 658.366C980.94 687.766 963.3 713.041 941.01 735.406C926.76 749.696 913.095 761.351 900.015 770.371C853.14 802.681 792.99 821.146 735.81 831.466C716.31 834.976 695.685 839.611 676.155 842.026C591.87 852.391 504.855 851.086 421.8 839.671C388.04 835.031 353.29 827.256 317.55 816.346C317.6 815.926 317.74 815.526 317.97 815.146C318.077 814.966 318.249 814.83 318.458 814.759C318.668 814.689 318.903 814.688 319.125 814.756C351.045 824.461 383.58 831.121 416.4 836.941C431.1 839.536 446.97 840.676 462.315 842.506C471.78 843.631 482.955 843.511 490.89 844.486C501.15 845.746 511.32 845.281 521.535 846.331C524.175 846.601 526.695 846.756 529.095 846.796C568.755 847.476 594.27 847.421 605.64 846.631C634.12 844.661 659.495 842.366 681.765 839.746C690.99 838.666 701.34 835.876 710.205 834.451C752.195 827.711 791.185 818.066 827.175 805.516C888.675 784.081 940.935 741.931 976.275 688.126C981.39 680.326 984.765 671.311 989.145 662.716C992.445 656.236 987.855 659.476 986.625 661.126C975.705 675.826 968.93 684.706 966.3 687.766C952.875 703.381 934.62 719.701 916.755 732.301C862.155 770.821 800.745 793.426 736.425 805.876C683.745 816.056 630.61 822.011 577.02 823.741C567.08 824.061 557.085 824.116 547.035 823.906C467.235 822.286 387.09 812.506 310.8 788.281C247.8 768.271 187.575 735.946 146.235 683.656C140.765 676.646 135.715 668.801 131.085 660.121C130.735 659.481 130.14 659.181 129.3 659.221L128.49 657.781L131.175 656.716C146.565 653.611 170.955 648.061 164.655 626.176C163.635 622.666 161.51 620.091 158.28 618.451C153.23 615.591 147.89 615.531 142.26 618.271C133.39 619.331 124.82 621.411 116.55 624.511L114.57 624.826C114.406 624.853 114.23 624.799 114.071 624.673C113.912 624.547 113.78 624.357 113.7 624.136L110.94 616.621L100.425 573.016C104.275 573.606 107.765 573.586 110.895 572.956C117.555 574.176 124.2 574.211 130.83 573.061C139.53 571.561 145.4 566.681 148.44 558.421C153.12 545.761 146.865 537.271 134.34 536.686C122.83 536.156 111.38 535.591 99.9896 534.991C99.7097 534.976 99.4464 534.854 99.2538 534.65C99.0613 534.446 98.9542 534.177 98.9546 533.896C98.8346 497.956 101.73 465.706 108.165 427.516C110.235 415.201 114.03 402.931 117.345 390.706C133.305 331.876 162.57 280.036 204.255 234.736C214.325 223.786 225.64 215.761 238.2 210.661C239.895 210.586 241.26 211.096 242.985 210.406C266.46 201.166 287.775 186.421 308.115 169.111C310.365 167.201 311.82 165.371 312.48 163.621C313.47 160.961 312.935 158.656 310.875 156.706C299.555 145.966 287.52 136.321 274.77 127.771C278.44 119.511 283.46 112.456 289.83 106.606C293.805 102.946 295.02 96.3913 296.61 91.4263C296.746 90.978 297.036 90.5778 297.435 90.2863C300.635 87.9663 302.735 84.8813 303.735 81.0313L312.015 83.7463C343.745 98.7363 370.435 112.986 392.085 126.496C411.665 138.716 423.795 146.191 428.475 148.921C434.315 152.171 441.495 153.321 450.015 152.371C461.905 151.051 473.75 149.416 485.55 147.466C489.6 164.146 494.38 180.616 499.89 196.876C503.055 206.236 507.45 215.686 516.585 219.736C528.195 224.896 539.31 219.646 542.265 206.836C543.635 200.886 544.665 193.486 545.355 184.636C546.595 168.496 546.835 153.726 546.075 140.326L575.175 140.716C573.545 155.836 573.29 173.566 574.41 193.906C575.025 205.021 577.965 218.401 590.415 221.086C603.18 223.846 613.455 215.911 618.3 204.406C625.5 187.316 630.875 168.586 634.425 148.216C648.3 150.511 668.655 156.451 681.555 150.661C689.61 147.046 700.365 139.576 705.855 136.246C746.415 111.631 786.015 88.7863 830.925 72.7213ZM216.855 507.436C215.225 506.496 215.005 504.926 216.195 502.726C216.465 502.226 216.33 502.076 215.79 502.276C205.98 505.981 199.395 515.461 196.995 525.016C193.2 540.061 214.5 556.861 228.735 555.256C230.655 555.036 232.53 555.246 234.36 555.886C201.84 574.531 211.545 640.366 255.615 633.121C264.275 632.691 271.525 629.411 277.365 623.281C286.215 612.766 288.57 595.726 286.215 582.931C282.525 562.981 270.59 552.536 250.41 551.596C248.45 549.286 248.49 546.816 250.53 544.186C250.73 543.926 250.82 543.916 250.8 544.156L250.785 544.531C250.725 545.351 250.895 545.431 251.295 544.771C252.645 542.511 252.89 540.176 252.03 537.766C251.99 537.657 251.971 537.541 251.972 537.426C251.974 537.31 251.998 537.198 252.041 537.095C252.084 536.992 252.146 536.9 252.224 536.824C252.302 536.749 252.394 536.692 252.495 536.656C252.795 536.546 253.105 536.526 253.425 536.596C260.025 537.676 266.645 538.581 273.285 539.311C318.765 544.336 356.745 527.506 384.21 491.641C392.085 481.381 396.915 475.786 396.6 464.416C395.83 457.866 391.96 453.816 384.99 452.266C374.355 449.896 371.415 455.236 364.995 463.771C358.98 471.781 352.875 480.991 345.69 486.961C323.325 505.516 288.84 509.506 261.57 503.941C250.29 501.646 223.365 492.616 216.855 507.436ZM771.72 526.516C777.07 529.926 783.585 532.651 791.265 534.691C814.935 540.961 838.26 542.241 861.24 538.531C861.81 540.231 861.65 541.896 860.76 543.526C860.661 543.718 860.624 543.935 860.657 544.143C860.689 544.352 860.789 544.541 860.94 544.681C862.89 546.471 864.025 548.626 864.345 551.146C855.575 552.156 848.535 555.571 843.225 561.391C829.92 575.971 829.305 610.561 842.745 625.216C854.49 638.026 877.11 635.791 888.87 625.051C901.59 613.426 903.615 591.091 899.955 575.296C898.175 567.616 893.645 561.196 886.365 556.036C900.165 556.646 910.625 551.616 917.745 540.946C920.955 536.116 921.465 530.596 920.535 525.076C918.895 515.246 913.8 508.016 905.25 503.386C900.67 500.256 895.675 498.711 890.265 498.751C885.21 498.796 877.815 499.756 871.815 501.076C846.78 506.521 822.285 509.071 796.59 501.376C776.805 495.451 762.405 478.201 749.79 462.106C746.5 457.906 743.7 455.276 741.39 454.216C733.2 450.466 722.595 456.541 721.41 465.541C719.64 479.086 741.825 502.231 749.79 510.526C756.23 517.246 763.54 522.576 771.72 526.516ZM474.24 637.531C478.69 643.861 484.97 647.996 493.08 649.936C518.18 655.936 540.25 650.736 559.29 634.336C560.13 633.606 560.695 632.671 560.985 631.531C561.135 631.381 561.295 631.281 561.465 631.231C561.582 631.205 561.722 631.228 561.868 631.297C562.014 631.366 562.16 631.478 562.29 631.621C567.29 637.221 573.215 641.316 580.065 643.906C598.485 652.956 617.62 654.796 637.47 649.426C650.91 645.781 671.37 629.161 659.355 613.876C650.715 607.336 628.665 618.211 617.325 617.176C606.225 616.156 592.035 611.011 586.575 600.361C581.385 590.236 586.44 574.831 584.475 563.971C581.235 546.211 552.63 545.641 548.835 563.341C548.665 564.121 548.49 568.806 548.31 577.396C548.04 591.016 547.065 601.216 535.92 608.401C527.025 614.116 514.38 617.221 503.205 615.841C496.485 615.016 476.175 607.846 470.88 618.316C467.835 624.316 470.325 632.566 474.24 637.531Z" fill="#FEFEE6"/>
<path d="M986.61 133.531C990.05 147.061 992.275 157.936 993.285 166.156C998.73 210.616 1001.1 247.021 997.53 290.251C997.365 292.201 997.844 294.931 997.484 297.151C997.404 297.641 997.21 297.691 996.9 297.301L982.425 278.596C971.945 264.536 957.975 246.651 940.515 224.941C927.865 209.201 914.21 195.626 899.55 184.216C891.97 177.566 883.364 175.921 873.734 179.281C873.934 178.911 873.95 178.566 873.78 178.246C873.687 178.078 873.513 177.96 873.294 177.916C873.074 177.871 872.825 177.903 872.595 178.006C866.805 180.506 864.19 184.941 864.75 191.311C865.28 197.451 867.805 203.501 872.325 209.461C850.035 204.801 830.215 195.146 812.865 180.496C807.505 175.966 802.585 170.956 798.105 165.466C797.791 165.084 797.607 164.612 797.58 164.118C797.553 163.625 797.685 163.135 797.955 162.721C800.245 159.271 803.185 155.996 806.775 152.896C821.435 140.226 836.885 128.686 853.125 118.276C870.255 106.426 893.79 96.0013 914.865 98.1463C938.49 100.531 964.2 117.496 981.87 132.241C982.99 133.171 983.97 134.411 984.81 135.961C984.938 136.199 985.105 136.4 985.294 136.545C985.484 136.689 985.689 136.772 985.89 136.786C987.05 136.856 987.29 135.771 986.61 133.531Z" fill="#FCC3B6"/>
<path d="M274.77 127.771C287.52 136.321 299.555 145.966 310.875 156.706C312.935 158.656 313.47 160.961 312.48 163.621C311.82 165.371 310.365 167.201 308.115 169.111C287.775 186.421 266.46 201.166 242.985 210.406C241.26 211.096 239.895 210.586 238.2 210.661L243.735 203.281C249.24 194.806 248.61 182.701 237.93 179.101C221.43 173.536 207.525 182.596 196.845 194.341C187.805 204.271 178.81 214.251 169.86 224.281C169.08 223.561 168.33 223.726 167.655 224.521C151.835 243.401 138.445 261.841 127.485 279.841C126.915 280.791 127.25 281.396 128.49 281.656C127.77 282.991 123.015 292.996 122.565 293.161C122.135 293.321 121.98 293.131 122.1 292.591C123.16 287.421 122.935 282.301 121.425 277.231C121.675 271.921 121.675 266.681 121.425 261.511C119.345 218.971 122.72 176.896 131.55 135.286L134.61 134.881C135.027 134.823 135.467 134.579 135.855 134.191C155.565 114.841 178.005 99.9763 206.4 98.6863C229.23 97.6513 256.56 115.081 274.77 127.771Z" fill="#FCC3B6"/>
<path d="M545.075 135.281C545.835 148.681 545.595 163.451 544.355 179.591C543.665 188.441 542.635 195.841 541.265 201.791C538.31 214.601 527.195 219.851 515.585 214.691C506.45 210.641 502.055 201.191 498.89 191.831C493.38 175.571 488.6 159.101 484.55 142.421C495.92 139.981 507.415 138.031 519.035 136.571L545.075 135.281Z" fill="#67C6B5"/>
<path d="M575.999 135.281L616.124 138.911L635.249 142.781C631.699 163.151 626.324 181.881 619.124 198.971C614.279 210.476 604.004 218.411 591.239 215.651C578.789 212.966 575.849 199.586 575.234 188.471C574.114 168.131 574.369 150.401 575.999 135.281Z" fill="#67C6B5"/>
<path d="M396.6 464.416C394.79 471.546 392.215 477.531 388.875 482.371C383.55 490.096 375.27 500.791 368.025 507.571C342.48 531.526 310.47 540.736 275.55 537.841C258.59 536.441 241.955 533.346 225.645 528.556C219.115 523.006 216.185 515.966 216.855 507.436C223.365 492.616 250.29 501.646 261.57 503.941C288.84 509.506 323.325 505.516 345.69 486.961C352.875 480.991 358.98 471.781 364.995 463.771C371.415 455.236 374.355 449.896 384.99 452.266C391.96 453.816 395.83 457.866 396.6 464.416Z" fill="#67C6B5"/>
<path d="M905.25 503.386L905.129 510.691C901.169 526.096 891.885 530.851 876.345 533.986C863.325 536.626 851.34 537.511 838.05 538.281C831.75 538.656 823.395 538.186 816.21 537.526C801.54 536.186 789.54 534.281 774.55 528.281C753.55 517.781 747.55 510.751 736.55 498.751C736.55 498.751 719.64 479.086 721.41 465.541C722.595 456.541 733.2 450.466 741.39 454.216C743.7 455.276 746.5 457.906 749.79 462.106C762.405 478.201 776.805 495.451 796.59 501.376C822.285 509.071 846.78 506.521 871.815 501.076C877.815 499.756 885.21 498.796 890.265 498.751C895.675 498.711 900.67 500.256 905.25 503.386Z" fill="#67C6B5"/>
<path d="M216.855 507.436C216.185 515.966 219.115 523.006 225.645 528.556C234.045 534.166 244.005 534.916 253.425 536.596C253.105 536.526 252.795 536.546 252.495 536.656C252.394 536.692 252.302 536.749 252.224 536.824C252.146 536.9 252.084 536.992 252.041 537.095C251.998 537.198 251.974 537.31 251.972 537.426C251.971 537.541 251.99 537.657 252.03 537.766C252.89 540.176 252.645 542.511 251.295 544.771C250.895 545.431 250.725 545.351 250.785 544.531L250.8 544.156C250.82 543.916 250.73 543.926 250.53 544.186C248.49 546.816 248.45 549.286 250.41 551.596L234.36 555.886C232.53 555.246 230.655 555.036 228.735 555.256C214.5 556.861 193.2 540.061 196.995 525.016C199.395 515.461 205.98 505.981 215.79 502.276C216.33 502.076 216.465 502.226 216.195 502.726C215.005 504.926 215.225 506.496 216.855 507.436Z" fill="#E8D9C2"/>
<path d="M886.365 556.036C879.575 552.806 872.235 551.176 864.345 551.146C864.025 548.626 862.89 546.471 860.94 544.681C860.789 544.541 860.689 544.352 860.657 544.143C860.624 543.935 860.661 543.718 860.76 543.526C861.65 541.896 861.81 540.231 861.24 538.531C880.35 534.811 902.114 534.706 905.129 510.691L905.25 503.386C913.8 508.016 918.895 515.246 920.535 525.076C921.465 530.596 920.955 536.116 917.745 540.946C910.625 551.616 900.165 556.646 886.365 556.036Z" fill="#E6DEC7"/>
<path d="M659.355 613.876C660.895 617.946 661.455 621.581 661.035 624.781C659.55 636.211 650.175 643.426 639.705 646.621C619.915 652.661 600.035 651.756 580.065 643.906C573.215 641.316 567.29 637.221 562.29 631.621C562.16 631.478 562.014 631.366 561.868 631.297C561.722 631.228 561.582 631.205 561.465 631.231C561.295 631.281 561.135 631.381 560.985 631.531C560.875 631.311 560.685 631.171 560.415 631.111C560.249 631.074 560.06 631.103 559.868 631.193C559.677 631.283 559.492 631.432 559.335 631.621C544.935 648.586 517.785 652.516 496.425 648.796C488.875 647.476 482.895 644.566 478.485 640.066C477.195 638.761 477.015 635.476 474.24 637.531C470.325 632.566 467.835 624.316 470.88 618.316C476.175 607.846 496.485 615.016 503.205 615.841C514.38 617.221 527.025 614.116 535.92 608.401C547.065 601.216 548.04 591.016 548.31 577.396C548.49 568.806 548.665 564.121 548.835 563.341C552.63 545.641 581.235 546.211 584.475 563.971C586.44 574.831 581.385 590.236 586.575 600.361C592.035 611.011 606.225 616.156 617.325 617.176C628.665 618.211 650.715 607.336 659.355 613.876Z" fill="#67C6B5"/>
<path d="M864.345 551.146C872.235 551.176 879.575 552.806 886.365 556.036C893.645 561.196 898.175 567.616 899.955 575.296C903.615 591.091 901.59 613.426 888.87 625.051C877.11 635.791 854.49 638.026 842.745 625.216C829.305 610.561 829.92 575.971 843.225 561.391C848.535 555.571 855.575 552.156 864.345 551.146Z" fill="#F19BBF"/>
<path d="M250.41 551.596C270.59 552.536 282.525 562.981 286.215 582.931C288.57 595.726 286.215 612.766 277.365 623.281C270.815 628.051 263.565 631.331 255.615 633.121C211.545 640.366 201.84 574.531 234.36 555.886L250.41 551.596Z" fill="#F19BBF"/>
<path d="M128.49 657.781L129.3 659.221C132.95 668.431 138.055 676.731 144.615 684.121C145.35 684.946 146.175 685.006 146.235 683.656C187.575 735.946 247.8 768.271 310.8 788.281C387.09 812.506 467.235 822.286 547.035 823.906C557.085 824.116 567.08 824.061 577.02 823.741C630.61 822.011 683.745 816.056 736.425 805.876C800.745 793.426 862.155 770.821 916.755 732.301C934.62 719.701 952.875 703.381 966.3 687.766C968.93 684.706 975.705 675.826 986.625 661.126C987.855 659.476 992.445 656.236 989.145 662.716C984.765 671.311 981.39 680.326 976.275 688.126C940.935 741.931 888.675 784.081 827.175 805.516C791.185 818.066 752.195 827.711 710.205 834.451C701.34 835.876 690.99 838.666 681.765 839.746C659.495 842.366 634.12 844.661 605.64 846.631C594.27 847.421 568.755 847.476 529.095 846.796C526.695 846.756 524.175 846.601 521.535 846.331C511.32 845.281 501.15 845.746 490.89 844.486C482.955 843.511 471.78 843.631 462.315 842.506C446.97 840.676 431.1 839.536 416.4 836.941C383.58 831.121 351.045 824.461 319.125 814.756C318.903 814.688 318.668 814.689 318.458 814.759C318.249 814.83 318.077 814.966 317.97 815.146C317.74 815.526 317.6 815.926 317.55 816.346C277.58 805.056 240.485 786.296 206.265 760.066C193.505 750.276 182.975 741.036 174.675 732.346C154.275 709.291 137.865 686.341 125.28 658.681C126.56 657.711 127.63 657.411 128.49 657.781Z" fill="#C9C0B1"/>
</svg>
