<svg width="1145" height="890" viewBox="0 0 1145 890" fill="none" xmlns="http://www.w3.org/2000/svg">
<path d="M302.84 24.0562C302.84 24.0562 368.325 54.1362 369.405 54.5562C368.525 55.4262 370.225 55.0062 369.405 54.5562C400.555 71.3261 430.355 91.6113 457.805 114.041C457.989 114.193 458.203 114.304 458.433 114.369C458.663 114.433 458.903 114.449 459.14 114.416C471.74 112.646 484.305 110.796 496.835 108.866C506.9 107.321 517.46 106.631 527.78 105.491C556.4 103.071 585.025 103.071 613.655 105.491C633.885 107.621 654.015 110.491 674.045 114.101C674.498 114.182 674.964 114.166 675.411 114.055C675.858 113.944 676.276 113.74 676.64 113.456C699.875 95.3063 724.61 77.6662 750.5 63.2062C799.97 35.5763 851.84 11.4862 908.525 2.18625C965.435 -7.15873 1010.73 19.1213 1033.28 71.6212C1039.93 88.8012 1044.16 105.396 1048.25 118.376C1048.25 118.376 1051.65 134.296 1051.83 135.836C1054.92 162.006 1056.68 188.256 1057.1 214.586C1057.29 227.426 1056.21 241.721 1055.84 255.341C1055.16 278.816 1054.17 298.631 1053.53 320.291C1053.59 329.111 1053.07 338.031 1051.98 347.051C1059.3 384.231 1065.41 421.601 1070.3 459.161C1070.35 459.541 1070.82 464.546 1071.71 474.176C1072.17 479.176 1072.95 484.141 1074.06 489.071C1075.28 503.221 1075.58 517.456 1074.96 531.776C1074.96 531.875 1074.98 531.973 1075.01 532.066C1075.04 532.158 1075.09 532.243 1075.16 532.316C1075.22 532.388 1075.3 532.447 1075.39 532.488C1075.48 532.529 1075.57 532.553 1075.67 532.556C1088.15 533.066 1099.8 533.816 1113.05 533.921C1128.32 534.041 1149.71 534.206 1143.57 557.321C1138.33 566.461 1131.07 571.446 1121.79 572.276C1113.73 573.006 1103.36 572.351 1090.67 570.311C1089.08 570.051 1087.57 570.446 1086.15 571.496C1083.57 571.376 1072.64 569.171 1072.59 571.181C1072.39 571.161 1072.19 571.201 1071.98 571.301C1071.84 571.37 1071.71 571.492 1071.62 571.656C1071.52 571.82 1071.47 572.019 1071.45 572.231C1070.51 589.711 1067.57 606.861 1062.63 623.681C1062.11 626.371 1061.11 628.911 1059.62 631.301C1059.52 631.457 1059.46 631.633 1059.44 631.815C1059.43 631.997 1059.45 632.18 1059.51 632.35C1059.58 632.519 1059.68 632.67 1059.81 632.79C1059.95 632.91 1060.11 632.996 1060.28 633.041L1105.53 644.951C1108.51 646.891 1111.74 648.081 1115.21 648.521C1120.22 649.151 1122.96 649.551 1123.43 649.721C1129.42 651.951 1131.34 656.616 1129.19 663.716C1123.98 680.876 1109.91 684.821 1093.94 681.386C1079.77 678.356 1065.72 674.786 1051.8 670.676L1045.05 669.761C1040.45 681.541 1036.38 690.666 1032.83 697.136C1009.14 740.296 976.93 775.201 936.2 801.851C909.5 819.326 880.175 835.046 850.7 844.901C819.575 855.311 797.015 860.771 769.79 868.001C763.745 869.606 733.205 874.841 726.905 876.056L632.555 886.227L588.89 889.346C531.74 890.126 474.12 886.581 416.03 878.711C386.705 874.751 359.78 868.301 331.865 861.596C316.52 857.906 301.895 852.446 287.045 847.166C201.785 816.836 129.695 757.661 97.4746 670.286C97.4067 670.105 97.271 669.954 97.0906 669.858C96.9102 669.762 96.6961 669.728 96.4846 669.761L86.6446 671.351C77.6746 673.201 68.8496 675.586 60.1696 678.506C48.2896 682.481 37.2346 685.481 25.6546 678.506C19.8846 672.006 17.1146 664.356 17.3446 655.556C18.0646 651.536 20.3196 648.681 24.1096 646.991C44.1096 643.591 63.7746 638.626 83.1046 632.096C83.2042 632.065 83.2963 632.015 83.375 631.947C83.4538 631.879 83.5172 631.797 83.5612 631.705C83.6052 631.612 83.6287 631.513 83.6301 631.412C83.6316 631.312 83.611 631.212 83.5696 631.121C75.0496 612.451 70.4996 592.851 69.9196 572.321C69.9185 572.226 69.8959 572.132 69.8533 572.045C69.8107 571.958 69.749 571.88 69.6719 571.815C69.5948 571.751 69.5038 571.701 69.4046 571.67C69.3054 571.638 69.2 571.625 69.0947 571.631C53.4846 572.451 41.2196 573.381 32.2996 574.421C12.2196 576.741 1.46963 568.166 0.0496271 548.696C-0.880373 535.886 11.4346 534.821 22.3696 534.281C36.3996 533.611 50.4246 532.871 64.4446 532.061C64.6491 532.054 64.8432 531.969 64.9879 531.825C65.1326 531.68 65.2172 531.486 65.2246 531.281C65.4146 525.521 65.6096 515.201 65.8096 500.321C66.2296 468.206 69.4397 432.731 75.4697 399.056C78.4697 380.516 82.4396 362.146 87.3796 343.946C83.6746 289.886 78.8297 219.371 83.7197 159.056C86.9997 133.006 93.0046 107.621 101.735 82.9013C104.145 77.4913 106.57 72.0962 109.01 66.7162C130.67 18.9263 171.305 -6.75377 224.81 1.54122C252.46 5.84121 278.47 13.3463 302.84 24.0562ZM131.78 275.006C133.29 280.076 133.515 285.196 132.455 290.366C132.335 290.906 132.49 291.096 132.92 290.936C133.37 290.771 138.125 280.766 138.845 279.431C151.295 259.341 165.085 240.216 180.215 222.056C189.165 212.026 198.16 202.046 207.2 192.116C217.88 180.371 231.785 171.311 248.285 176.876C258.965 180.476 259.595 192.581 254.09 201.056C251.58 202.506 249.46 204.466 247.73 206.936C247.447 207.336 247.055 207.64 246.605 207.806C223.445 216.566 206.285 237.881 190.895 257.681C150.32 309.866 123.53 375.536 114.29 440.891C110.09 470.666 106.355 501.206 107.81 531.266C107.9 533.226 108.925 534.251 110.885 534.341C122.275 534.861 133.405 535.396 144.275 535.946C151.265 536.291 157.475 537.836 158.66 545.201C160.13 554.411 153.2 566.636 143.78 568.256C136.33 569.526 128.82 570.351 121.25 570.731C118.12 571.361 114.63 571.381 110.78 570.791C111.6 585.961 115.105 600.496 121.295 614.396L124.055 621.911C124.135 622.132 124.267 622.322 124.426 622.448C124.585 622.574 124.761 622.628 124.925 622.601L126.905 622.286C135.825 621.606 144.395 619.526 152.615 616.046C158.245 613.306 163.585 613.366 168.635 616.226C171.265 619.556 172.865 622.791 173.435 625.931C176.99 645.596 155.495 649.151 142.16 653.081C141.931 653.151 141.728 653.249 141.566 653.366C141.405 653.484 141.289 653.617 141.23 653.756C141.08 654.086 141.18 654.331 141.53 654.491L138.845 655.556C137.985 655.186 136.915 655.486 135.635 656.456C137.815 666.186 142.52 676.151 149.75 686.351C164.91 707.721 175.665 722.336 182.015 730.196C182.755 731.116 183.76 731.091 185.03 730.121C193.33 738.811 203.86 748.051 216.62 757.841C250.84 784.071 287.935 802.831 327.905 814.121C363.645 825.031 398.395 832.806 432.155 837.446C515.21 848.861 602.225 850.166 686.51 839.801C706.04 837.386 726.665 832.751 746.165 829.241C803.345 818.921 863.495 800.456 910.37 768.146C923.45 759.126 937.115 747.471 951.365 733.181C973.655 710.816 991.295 685.541 1003.65 656.141C1003.69 656.059 1003.7 655.969 1003.7 655.88C1003.69 655.791 1003.67 655.705 1003.62 655.628C1003.58 655.552 1003.52 655.486 1003.45 655.437C1003.37 655.388 1003.29 655.357 1003.2 655.346C993.135 653.896 986.195 652.181 982.385 650.201C971.39 644.516 964.385 633.986 969.005 621.686C975.185 605.231 1004.73 618.146 1016.12 621.431C1016.26 621.471 1016.4 621.483 1016.54 621.466C1016.68 621.449 1016.82 621.404 1016.94 621.333C1017.06 621.261 1017.17 621.166 1017.26 621.052C1017.35 620.937 1017.42 620.806 1017.45 620.666C1022.05 604.686 1025.37 588.446 1027.4 571.946C1027.41 571.837 1027.4 571.726 1027.37 571.621C1027.34 571.516 1027.29 571.419 1027.22 571.335C1027.15 571.252 1027.06 571.185 1026.96 571.138C1026.86 571.09 1026.76 571.064 1026.65 571.061C1006.82 570.341 983.66 576.716 982.265 548.786C981.77 538.781 987.155 534.716 996.89 534.071C1007.6 533.351 1018.34 532.716 1029.11 532.166C1029.31 532.155 1029.5 532.068 1029.64 531.924C1029.78 531.779 1029.86 531.587 1029.86 531.386C1030.34 459.341 1015.31 385.001 980.3 322.286C958.23 282.746 929.895 246.961 895.295 214.931C891.705 211.611 887.5 209.046 882.68 207.236C878.16 201.276 875.635 195.226 875.105 189.086C876.385 183.506 879.38 179.496 884.09 177.056C893.72 173.696 902.325 175.341 909.905 181.991C909.275 182.451 908.995 183.041 909.065 183.761C909.079 183.965 909.151 184.178 909.275 184.387C909.399 184.597 913.693 188.377 913.905 188.556C917.265 191.476 916.31 191.001 919.28 194.291C923.165 198.581 928.355 200.636 932.18 204.851C938.33 211.601 945.44 220.181 953.51 230.591C956.54 234.491 961.46 239.366 965.33 244.661C969.815 250.796 975.47 256.856 979.64 262.271C981.77 265.046 989.51 276.686 992.78 276.371L1007.25 295.076C1007.56 295.466 1007.76 295.416 1007.84 294.926C1008.2 292.706 1007.72 289.976 1007.88 288.026C1011.45 244.796 1009.08 208.391 1003.64 163.931C1002.63 155.711 1000.4 144.836 996.965 131.306C992.015 105.401 983.84 74.3812 962.42 55.5562C961.04 54.3462 956.725 52.3512 949.475 49.5713C944.465 46.7013 938.775 45.6863 932.405 46.5263C873.365 54.2962 818.255 73.8263 766.43 102.776C740.76 117.116 719.12 129.911 701.51 141.161C692.615 146.846 685.88 150.041 675.125 148.706C662.295 147.126 649.52 145.131 636.8 142.721C635.375 142.451 633.875 143.051 632.66 142.511C630.14 141.401 628.325 141.086 625.655 142.121L585.53 138.491L556.43 138.101L530.39 139.391C521.9 139.491 513.485 140.261 505.145 141.701C491.225 144.111 484.205 145.321 484.085 145.331C472.955 146.861 456.425 151.106 444.32 147.461C442.56 146.931 440.73 146.676 438.83 146.696C434.15 143.966 422.02 136.491 402.44 124.271C380.79 110.761 354.1 96.5112 322.37 81.5212C309.45 73.9913 295.665 68.6262 281.015 65.4262L253.64 57.2812C241.37 52.8812 228.81 49.7162 215.96 47.7863C197.555 45.0263 175.385 47.8613 165.035 65.5762C154.385 83.8312 148.55 101.696 142.85 123.656C136.175 149.291 131.3 176.366 131.12 202.931C131.07 210.381 130.58 227.226 129.65 253.466C129.39 260.756 130.1 267.936 131.78 275.006Z" fill="#CE87CB"/>
<path d="M545.075 135.281C545.835 148.681 545.595 163.451 544.355 179.591C543.665 188.441 542.635 195.841 541.265 201.791C538.31 214.601 527.195 219.851 515.585 214.691C506.45 210.641 502.055 201.191 498.89 191.831C493.38 175.571 488.6 159.101 484.55 142.421C495.92 139.981 507.415 138.031 519.035 136.571L545.075 135.281Z" fill="#CE87CB"/>
<path d="M575.999 135.281L616.124 138.911L635.249 142.781C631.699 163.151 626.324 181.881 619.124 198.971C614.279 210.476 604.004 218.411 591.239 215.651C578.789 212.966 575.849 199.586 575.234 188.471C574.114 168.131 574.369 150.401 575.999 135.281Z" fill="#CE87CB"/>
<path d="M396.6 464.416C394.79 471.546 392.215 477.531 388.875 482.371C383.55 490.096 375.27 500.791 368.025 507.571C342.48 531.526 310.47 540.736 275.55 537.841C258.59 536.441 241.955 533.346 225.645 528.556C219.115 523.006 216.185 515.966 216.855 507.436C223.365 492.616 250.29 501.646 261.57 503.941C288.84 509.506 323.325 505.516 345.69 486.961C352.875 480.991 358.98 471.781 364.995 463.771C371.415 455.236 374.355 449.896 384.99 452.266C391.96 453.816 395.83 457.866 396.6 464.416Z" fill="#CE87CB"/>
<path d="M905.249 503.386L905.129 510.691C901.169 526.096 891.885 530.851 876.345 533.986C863.325 536.626 851.34 537.511 838.05 538.281C831.75 538.656 823.395 538.186 816.21 537.526C801.54 536.186 789.54 534.281 774.55 528.281C753.55 517.781 747.55 510.751 736.55 498.751C736.55 498.751 719.639 479.086 721.409 465.541C722.594 456.541 733.2 450.466 741.39 454.216C743.7 455.276 746.499 457.906 749.789 462.106C762.404 478.201 776.804 495.451 796.589 501.376C822.284 509.071 846.78 506.521 871.815 501.076C877.815 499.756 885.209 498.796 890.264 498.751C895.674 498.711 900.669 500.256 905.249 503.386Z" fill="#CE87CB"/>
<path d="M659.355 613.876C660.895 617.946 661.455 621.581 661.035 624.781C659.55 636.211 650.175 643.426 639.705 646.621C619.915 652.661 600.035 651.756 580.065 643.906C573.215 641.316 567.29 637.221 562.29 631.621C562.16 631.478 562.014 631.366 561.868 631.297C561.722 631.228 561.582 631.205 561.465 631.231C561.295 631.281 561.135 631.381 560.985 631.531C560.875 631.311 560.685 631.171 560.415 631.111C560.249 631.074 560.06 631.103 559.868 631.193C559.677 631.283 559.492 631.432 559.335 631.621C544.935 648.586 517.785 652.516 496.425 648.796C488.875 647.476 482.895 644.566 478.485 640.066C477.195 638.761 477.015 635.476 474.24 637.531C470.325 632.566 467.835 624.316 470.88 618.316C476.175 607.846 496.485 615.016 503.205 615.841C514.38 617.221 527.025 614.116 535.92 608.401C547.065 601.216 548.04 591.016 548.31 577.396C548.49 568.806 548.665 564.121 548.835 563.341C552.63 545.641 581.235 546.211 584.475 563.971C586.44 574.831 581.385 590.236 586.575 600.361C592.035 611.011 606.225 616.156 617.325 617.176C628.665 618.211 650.715 607.336 659.355 613.876Z" fill="#CE87CB"/>
<path d="M864.345 551.146C872.235 551.176 879.575 552.806 886.365 556.036C893.645 561.196 898.175 567.616 899.955 575.296C903.615 591.091 901.59 613.426 888.87 625.051C877.11 635.791 854.49 638.026 842.745 625.216C829.305 610.561 829.92 575.971 843.225 561.391C848.535 555.571 855.575 552.156 864.345 551.146Z" fill="#CE87CB"/>
<path d="M250.41 551.596C270.59 552.536 282.525 562.981 286.215 582.931C288.57 595.726 286.215 612.766 277.365 623.281C270.815 628.051 263.565 631.331 255.615 633.121C211.545 640.366 201.84 574.531 234.36 555.886L250.41 551.596Z" fill="#CE87CB"/>
</svg>
