<svg width="255" height="231" viewBox="0 0 255 231" fill="none" xmlns="http://www.w3.org/2000/svg">
<path d="M235.888 76.1832C235.243 77.221 234.911 78.4215 234.891 79.7848C234.888 79.8996 234.852 80.0108 234.785 80.1036C234.498 80.506 234.45 80.9232 234.64 81.355C236.116 84.683 237.491 88.0574 238.764 91.4781C238.79 91.5511 238.839 91.6139 238.903 91.6579C239.276 91.9224 239.473 91.91 239.496 91.6206C243.026 100.15 244.573 107.36 246.347 115.638C246.352 115.665 246.364 115.691 246.381 115.713C246.398 115.735 246.419 115.753 246.444 115.766C246.469 115.779 246.497 115.787 246.525 115.788C246.553 115.789 246.581 115.784 246.608 115.774C256.283 111.687 258.172 126.439 247.622 126.962C247.479 126.969 247.411 127.043 247.418 127.186L247.53 129.858C247.533 129.913 247.555 129.965 247.592 130.005C247.63 130.044 247.68 130.069 247.734 130.075C248.385 130.145 249.052 130.165 249.734 130.136C256.904 129.827 256.28 137.821 250.708 139.459C249.552 139.348 248.416 139.453 247.299 139.774C247.23 139.794 247.169 139.836 247.124 139.893C247.08 139.951 247.056 140.021 247.055 140.093C246.903 156.806 240.91 174.003 230.991 187.26C215.248 208.303 191.597 220.709 166.555 227.105C159.992 228.78 153.323 229.672 146.55 229.78C144.993 229.808 143.406 229.641 141.914 229.723C137.387 229.976 132.858 230.061 128.324 229.977C128.031 229.97 127.746 230.105 127.47 230.381C123.57 230.498 119.716 230.442 115.909 230.211C111.837 229.784 107.777 229.496 103.73 229.346C103.486 229.336 103.259 229.479 103.296 229.743C83.6436 227.813 64.4588 220.271 48.0345 209.473C37.8559 202.783 29.2069 194.392 22.0873 184.299C13.0698 171.524 8.28118 156.171 7.68092 140.683C7.67187 140.473 7.56335 140.359 7.35535 140.341C4.40488 140.067 2.35538 138.76 1.20685 136.42C-0.885609 132.154 3.18061 129.675 6.94161 130.007C7.06143 130.018 7.12701 129.963 7.13831 129.841L7.39605 127.006C7.3985 126.976 7.39445 126.945 7.38416 126.916C7.37388 126.888 7.35759 126.862 7.3364 126.84C7.31521 126.818 7.2896 126.801 7.26128 126.79C7.23297 126.779 7.2026 126.774 7.17222 126.775C4.75984 126.929 2.83696 126.036 1.40355 124.096C-0.69908 121.254 -0.777081 115.838 3.52314 114.838C5.09333 114.471 7.01622 114.943 8.53554 115.557C8.56969 115.57 8.60646 115.576 8.64317 115.574C8.67988 115.572 8.7156 115.561 8.74776 115.543C8.77991 115.525 8.80769 115.501 8.82905 115.471C8.85042 115.441 8.86484 115.406 8.87128 115.37C10.9536 103.53 14.6965 92.2446 20.1 81.5144C20.1463 81.4219 20.1606 81.3169 20.1407 81.2159C16.9935 64.5102 16.9969 47.2551 21.6261 30.8376C21.9155 30.4125 22.0173 30.0395 21.9313 29.7184C23.6304 24.2957 25.906 18.2489 28.4563 13.5214C31.1795 8.48185 35.4289 3.88997 40.7024 1.4889C47.1154 -1.43104 53.871 0.274803 59.9652 3.74414C68.9387 8.84698 77.2554 14.8576 84.9153 21.7759C84.9552 21.8128 85.0032 21.8399 85.0556 21.8552C85.1079 21.8705 85.1632 21.8735 85.2172 21.8641C85.441 21.8234 85.6987 21.7522 85.9904 21.6504C94.9503 18.5541 104.826 15.3832 114.668 14.203C134.154 11.8698 152.464 15.3086 170.543 22.4203C170.652 22.4632 170.751 22.4485 170.842 22.3762C177.584 16.9975 184.531 11.9195 191.685 7.14227C195.49 4.59877 199.282 2.37744 203.639 1.11247C218.941 -3.33697 227.674 12.0292 231.886 23.6411C236.461 36.2637 238.828 49.9037 237.624 63.2283C237.224 67.6551 236.645 71.9734 235.888 76.1832ZM17.1665 115.004C16.3481 121.016 15.784 127.269 15.4742 133.765C15.4539 134.188 15.4629 134.566 15.5013 134.901C15.5127 135.014 15.5624 135.107 15.6506 135.179L20.897 139.432L21.0535 139.554L21.7046 140.062C21.7046 140.062 22.4095 140.801 22.4338 140.83C23.207 141.744 22.6194 141.034 23.4032 142.002C24.138 142.71 24.4522 143.712 24.346 145.007L24.2481 145.451C24.2415 145.419 24.1463 145.788 24.1463 145.788C24.1463 145.788 24.1027 146.313 24.0785 146.336C24.0544 146.359 24.0818 146.303 24.0785 146.336C23.7733 149.887 19.8491 149.986 16.5425 149.341C16.4681 149.326 16.3913 149.329 16.3183 149.35C16.2452 149.371 16.178 149.408 16.1219 149.459C16.0658 149.511 16.0225 149.575 15.9954 149.646C15.9684 149.718 15.9583 149.794 15.966 149.87C16.2893 153.006 17.0354 156.037 18.2042 158.962C18.2239 159.012 18.2612 159.053 18.3092 159.077C18.3572 159.102 18.4127 159.108 18.4654 159.095C18.5468 159.072 18.6248 159.018 18.6994 158.932C24.3731 177.235 36.7074 192.839 52.5823 202.975C58.2142 206.57 64.66 209.97 71.9197 213.176C86.1973 219.335 101.127 222.472 116.709 222.587C128.563 222.676 137.414 222.67 143.263 222.57C152.533 222.414 161.869 220.939 171.272 218.145C179.73 215.632 187.188 213.044 194.439 208.344C204.297 203.684 211.575 197.658 219.206 189.546C223.456 185.024 227.129 180.078 230.224 174.708C230.495 174.528 230.606 174.301 230.556 174.03C230.755 173.696 230.943 173.356 231.119 173.013C234.68 166.036 237.125 158.595 238.455 150.691C238.466 150.627 238.462 150.562 238.446 150.499C238.429 150.437 238.399 150.379 238.358 150.329C238.317 150.279 238.265 150.239 238.207 150.21C238.149 150.182 238.085 150.167 238.021 150.165C234.582 150.079 232.249 148.456 231.021 145.295C229.492 141.358 236.942 136.922 239.737 135.216C239.841 135.153 239.887 135.06 239.876 134.938L238.801 123.52C238.914 122.771 238.836 121.973 238.567 121.125L237.794 115.299C235.752 103.798 231.928 92.9093 226.321 82.6335C225.124 80.4427 224.408 78.8386 225.134 76.6444C225.529 75.4529 226.364 74.9487 227.636 75.1319C227.754 75.1477 227.823 75.0968 227.843 74.9793C229.302 66.6162 230.153 57.4494 229.207 48.988C227.995 38.1448 225.085 27.86 220.477 18.1336C218.504 13.9657 214.675 9.07873 210.076 8.44794C206.413 7.94602 202.218 9.991 199.051 11.8698C192.047 16.0299 185.49 20.8275 179.381 26.2627C179.363 26.2784 179.349 26.2989 179.342 26.322C179.334 26.3451 179.333 26.3699 179.339 26.3937C179.345 26.4175 179.358 26.4394 179.375 26.4569C179.393 26.4745 179.415 26.487 179.439 26.4933C182.661 27.2733 183.363 32.1229 180.504 33.7067C178.584 34.7681 173.843 32.6587 171.493 31.6854C165.965 29.3974 160.335 27.3897 154.604 25.6624C130.068 18.2659 103.988 21.7284 81.1102 32.7605C79.9527 33.3189 78.8731 33.6637 77.8715 33.7948C73.0185 34.4358 72.4148 27.7379 77.0271 26.4288C77.2916 26.3542 77.3244 26.2231 77.1254 26.0354C70.5779 19.8564 63.4764 14.6496 55.821 10.4149C52.8547 8.77351 49.495 8.08168 45.7419 8.33942C42.0149 8.59716 38.0741 13.2874 36.4734 16.3158C31.9324 24.8959 28.6462 34.3612 27.249 44.0197C25.7703 54.2446 26.4113 64.8459 27.5745 75.081C27.5881 75.2031 27.6571 75.2596 27.7814 75.2506C29.2397 75.1375 30.1192 75.7977 30.4199 77.2311C30.6799 78.4769 30.672 79.3722 30.3961 79.9171C28.2731 84.1427 25.7195 88.6667 24.0102 92.6142C20.9038 99.7767 18.8147 107.39 17.1665 115.004Z" fill="#552106"/>
<path d="M237.794 115.299C235.752 114.936 233.426 114.773 231.642 114.451C210.507 110.649 192.333 97.1552 180.436 79.3507C178.337 76.2035 175.976 71.7507 173.538 69.2242C170.054 65.6113 165.693 63.9325 160.454 64.188C158.758 64.2717 157.397 64.6153 156.371 65.219C151.718 67.9592 152.305 74.006 149.88 77.9976C146.329 83.8476 139.763 87.6256 133.327 89.3755C131.102 89.9814 128.869 90.2482 126.629 90.1758C117.659 89.8842 106.901 84.8481 104.076 75.532C103.534 73.7459 102.993 71.9553 102.455 70.1602C100.261 62.8552 91.386 62.9909 85.9022 65.9515C84.098 66.9248 82.2124 68.7256 81.117 70.367C78.3949 74.4434 76.5161 77.1701 75.4806 78.547C64.2451 93.4655 47.5563 107.774 29.2159 113.088C28.1171 113.407 26.0575 113.83 23.0369 114.36C21.2056 114.678 19.1301 114.729 17.1665 115.004C18.8147 107.39 20.9038 99.7767 24.0102 92.6142C25.7195 88.6667 28.2731 84.1427 30.3961 79.9171C30.672 79.3722 30.6799 78.4769 30.4199 77.2311C30.1192 75.7977 29.2397 75.1375 27.7814 75.2506C27.6571 75.2596 27.5881 75.2031 27.5745 75.081C26.4113 64.8459 25.7703 54.2446 27.249 44.0197C28.6462 34.3612 31.9324 24.8959 36.4734 16.3158C38.0741 13.2874 42.0149 8.59716 45.7419 8.33942C49.495 8.08168 52.8547 8.77351 55.821 10.4149C63.4764 14.6496 70.5779 19.8564 77.1254 26.0354C77.3244 26.2231 77.2916 26.3542 77.0271 26.4288C72.4148 27.7379 73.0185 34.4358 77.8715 33.7948C78.8731 33.6637 79.9527 33.3189 81.1102 32.7605C103.988 21.7284 130.068 18.2659 154.604 25.6624C160.335 27.3897 165.965 29.3974 171.493 31.6854C173.843 32.6587 178.584 34.7681 180.504 33.7067C183.363 32.1229 182.661 27.2733 179.439 26.4933C179.415 26.487 179.393 26.4745 179.375 26.4569C179.358 26.4394 179.345 26.4175 179.339 26.3937C179.333 26.3699 179.334 26.3451 179.342 26.322C179.349 26.2989 179.363 26.2784 179.381 26.2627C185.49 20.8275 192.047 16.0299 199.051 11.8698C202.218 9.991 206.413 7.94602 210.076 8.44794C214.675 9.07873 218.504 13.9657 220.477 18.1336C225.085 27.86 227.995 38.1448 229.207 48.988C230.153 57.4494 229.302 66.6162 227.843 74.9793C227.823 75.0968 227.754 75.1477 227.636 75.1319C226.364 74.9487 225.529 75.4529 225.134 76.6444C224.408 78.8386 225.124 80.4427 226.321 82.6335C231.928 92.9093 235.752 103.798 237.794 115.299ZM35.4153 43.9688L35.7375 45.4237L36.097 46.4174C36.0789 46.8108 36.2213 47.1465 36.5243 47.4246C37.4094 50.0427 40.1089 55.0382 43.6291 52.7185C45.8946 51.2263 48.6664 49.2774 51.9447 46.8718C54.1717 45.235 58.516 42.5467 64.9776 38.8072C67.5652 37.3083 66.6462 34.5613 64.6351 33.1403C59.9347 29.8168 54.902 26.5419 49.5369 23.3156C44.2294 20.1209 38.7592 26.8765 37.0432 31.1428C35.378 35.2768 34.5607 39.6279 35.4153 43.9688ZM191.576 39.4719C195.244 41.5768 198.83 43.8106 202.337 46.1732C205.016 47.9774 211.673 54.0581 214.834 53.5223C217.039 53.1526 219.385 47.5196 219.992 45.4983C222.482 37.2065 219.124 27.1003 210.883 23.2274C208.035 21.8912 206.427 22.99 203.724 24.6043C198.905 27.4801 194.703 29.8744 190.929 32.9266C187.792 35.4634 188.273 37.5762 191.576 39.4719Z" fill="#EEB67B"/>
<path d="M36.5243 47.4246C36.4587 46.977 36.3163 46.6412 36.097 46.4174L35.7375 45.4237C35.7804 44.8653 35.673 44.3803 35.4153 43.9688C34.5607 39.6279 35.378 35.2768 37.0432 31.1428C38.7592 26.8765 44.2294 20.1209 49.5369 23.3156C54.902 26.5419 59.9347 29.8168 64.6351 33.1403C66.6462 34.5613 67.5652 37.3083 64.9776 38.8072C58.516 42.5467 54.1717 45.235 51.9447 46.8718C48.6664 49.2774 45.8946 51.2263 43.6291 52.7185C40.1089 55.0382 37.4094 50.0427 36.5243 47.4246Z" fill="#4C1402"/>
<path d="M191.576 39.4719C188.273 37.5762 187.792 35.4634 190.929 32.9266C194.703 29.8744 198.905 27.4801 203.724 24.6043C206.427 22.99 208.035 21.8912 210.883 23.2274C219.124 27.1003 222.482 37.2065 219.992 45.4983C219.385 47.5196 217.039 53.1526 214.834 53.5223C211.673 54.0581 205.016 47.9774 202.337 46.1732C198.83 43.8106 195.244 41.5768 191.576 39.4719Z" fill="#4C1402"/>
<path d="M237.794 115.299L238.567 121.125C238.476 121.944 238.554 122.742 238.801 123.52L239.876 134.938C239.887 135.06 239.841 135.153 239.737 135.216C236.942 136.922 229.492 141.358 231.021 145.295C232.249 148.456 234.582 150.079 238.021 150.165C238.085 150.167 238.149 150.182 238.207 150.21C238.265 150.239 238.317 150.279 238.358 150.329C238.399 150.379 238.429 150.437 238.446 150.499C238.462 150.562 238.466 150.627 238.455 150.691C237.125 158.595 234.68 166.036 231.119 173.013C230.943 173.356 230.755 173.696 230.556 174.03C230.317 174.191 230.206 174.417 230.224 174.708C227.129 180.078 223.456 185.024 219.206 189.546C211.575 197.658 204.297 203.684 194.439 208.344C192.001 209.126 189.533 209.781 187.032 210.307C184.573 210.823 181.908 210.864 179.327 211.04C177.654 211.153 175.879 211.39 174.002 211.752C153.054 215.781 132.37 217.09 111.124 215.7C105.392 215.323 99.8711 214.54 94.3026 213.475C81.5127 211.031 68.9116 207.845 56.4993 203.918C56.0878 203.787 55.9691 203.889 56.1432 204.223C56.1912 204.319 56.2752 204.392 56.3772 204.427C59.5413 205.515 62.2273 207.564 65.2693 209.12C67.5957 210.311 69.6746 211.562 71.9231 212.708C72.1266 212.812 72.1254 212.968 71.9197 213.176C64.66 209.97 58.2142 206.57 52.5823 202.975C36.7074 192.839 24.3731 177.235 18.6994 158.932C17.821 155.992 16.5599 153.307 16.0105 150.278C15.9924 150.17 16.2075 149.334 16.3183 149.35C19.5739 149.862 23.7491 148.409 24.346 145.007C24.4522 143.712 24.138 142.71 23.4032 142.002C22.6706 141.008 21.8352 140.151 20.897 139.432L15.6506 135.179C15.5624 135.107 15.5127 135.014 15.5013 134.901C15.4629 134.566 15.4539 134.188 15.4742 133.765C15.784 127.269 16.3481 121.016 17.1665 115.004C19.1301 114.729 21.2056 114.678 23.0369 114.36C26.0575 113.83 28.1171 113.407 29.2159 113.088C47.5563 107.774 64.2451 93.4655 75.4806 78.547C76.5161 77.1701 78.3949 74.4434 81.117 70.367C82.2124 68.7256 84.098 66.9248 85.9022 65.9515C91.386 62.9909 100.261 62.8552 102.455 70.1602C102.993 71.9553 103.534 73.7459 104.076 75.532C106.901 84.8481 117.659 89.8842 126.629 90.1758C128.869 90.2482 131.102 89.9814 133.327 89.3755C139.763 87.6256 146.329 83.8476 149.88 77.9976C152.305 74.006 151.718 67.9592 156.371 65.219C157.397 64.6153 158.758 64.2717 160.454 64.188C165.693 63.9325 170.054 65.6113 173.538 69.2242C175.976 71.7507 178.337 76.2035 180.436 79.3507C192.333 97.1552 210.507 110.649 231.642 114.451C233.426 114.773 235.752 114.936 237.794 115.299ZM170.696 135.308C172.269 138.157 175.664 140.473 179.123 139.645C189.287 137.217 188.836 118.636 185.051 111.789C183.22 108.479 180.358 107.082 176.465 107.597C169.78 108.482 168.312 116.052 168.081 121.471C167.864 126.501 168.308 130.987 170.696 135.308ZM70.77 125.622C71.1634 131.15 73.7714 138.153 79.8656 139.734C85.6716 141.243 88.5305 134.901 89.4835 130.458C90.4715 125.841 90.5133 121.347 89.6089 116.974C88.4525 111.379 84.9323 106.285 78.5701 107.787C71.333 109.496 70.3495 119.762 70.77 125.622ZM124.74 138.587C125.123 142.362 124.703 147.802 122.247 150.888C118.975 154.998 113.796 155.792 109.682 152.39C108.468 151.383 107.095 150.009 105.799 149.46C103.737 148.588 100.78 149.44 100.153 151.81C99.7897 153.173 100.309 154.991 101.119 156.127C104.687 161.143 112.168 165.016 118.381 163.327C122.824 162.118 126.322 159.635 128.877 155.88C128.897 155.85 128.923 155.826 128.954 155.809C128.985 155.792 129.019 155.783 129.054 155.782C129.09 155.781 129.125 155.788 129.156 155.803C129.188 155.819 129.216 155.841 129.237 155.87C131.485 158.81 134.816 161.391 138.173 162.666C142.833 164.443 148.357 162.849 152.434 160.088C154.468 158.708 157.324 155.764 157.561 153.184C157.965 148.788 153.325 147.764 150.399 149.999C149.249 150.874 148.038 152.471 146.675 153.251C140.618 156.714 134.202 150.647 132.133 145.207C131.814 144.371 131.503 142.644 131.2 140.029C131.139 139.513 130.858 138.95 130.756 138.384C130.727 138.232 130.787 138.18 130.936 138.228C134.08 139.245 136.019 136.824 136.528 134.067C136.666 133.311 136.58 132.618 136.27 131.988C134.575 128.556 128.816 128.681 125.611 128.969C124.262 129.088 121.606 129.57 120.897 130.913C120.067 132.483 119.805 134.223 120.792 135.806C121.41 136.797 123.197 138.709 124.55 138.448C124.665 138.426 124.729 138.472 124.74 138.587ZM54.3797 171.12C54.3887 171.148 54.3978 171.176 54.4068 171.205C54.4113 171.216 54.4204 171.223 54.434 171.226C61.6812 173.016 70.2817 170.15 73.9477 163.327C75.1788 161.038 76.0232 157.528 76.0368 154.747C76.0673 149.497 73.8426 146.191 70.0545 142.779C56.9028 130.93 37.0669 144.519 43.5037 161.174C45.1552 165.453 49.4962 170.228 54.3356 171.083C54.3582 171.088 54.3729 171.1 54.3797 171.12ZM179.92 152.902C178.54 164.789 189.152 173.996 200.536 171.317C207.712 169.632 212.511 164.697 213.701 157.358C215.665 145.244 203.416 136.318 192.428 139.065C185.652 140.758 180.741 145.831 179.92 152.902Z" fill="#FDFDED"/>
<path d="M179.123 139.645C175.664 140.473 172.269 138.157 170.696 135.308C168.308 130.987 167.864 126.501 168.081 121.471C168.312 116.052 169.78 108.482 176.465 107.597C180.358 107.082 183.22 108.479 185.051 111.789C188.836 118.636 189.287 137.217 179.123 139.645ZM181.009 114.437C181.137 114.103 181.195 113.747 181.179 113.387C181.164 113.028 181.075 112.672 180.918 112.341C180.761 112.011 180.539 111.711 180.264 111.459C179.99 111.207 179.668 111.009 179.318 110.874C178.611 110.603 177.83 110.61 177.148 110.894C176.465 111.179 175.936 111.717 175.678 112.39C175.55 112.723 175.492 113.08 175.507 113.44C175.523 113.799 175.612 114.154 175.769 114.485C175.926 114.816 176.148 115.116 176.423 115.368C176.697 115.619 177.019 115.818 177.369 115.953C178.076 116.224 178.856 116.217 179.539 115.932C180.222 115.648 180.751 115.11 181.009 114.437Z" fill="#4C1402"/>
<path d="M79.8656 139.734C73.7714 138.153 71.1634 131.15 70.77 125.622C70.3495 119.762 71.333 109.496 78.5701 107.787C84.9323 106.285 88.4525 111.379 89.6089 116.974C90.5133 121.347 90.4715 125.841 89.4835 130.458C88.5305 134.901 85.6716 141.243 79.8656 139.734ZM83.4401 113.474C83.4401 112.725 83.1425 112.007 82.6127 111.477C82.0829 110.947 81.3643 110.649 80.6151 110.649C79.8659 110.649 79.1473 110.947 78.6175 111.477C78.0878 112.007 77.7901 112.725 77.7901 113.474C77.7901 114.224 78.0878 114.942 78.6175 115.472C79.1473 116.002 79.8659 116.299 80.6151 116.299C81.3643 116.299 82.0829 116.002 82.6127 115.472C83.1425 114.942 83.4401 114.224 83.4401 113.474Z" fill="#4C1402"/>
<path d="M83.4401 113.474C83.4401 114.224 83.1425 114.942 82.6127 115.472C82.0829 116.002 81.3643 116.299 80.6151 116.299C79.8659 116.299 79.1473 116.002 78.6175 115.472C78.0878 114.942 77.7901 114.224 77.7901 113.474C77.7901 112.725 78.0878 112.007 78.6175 111.477C79.1473 110.947 79.8659 110.649 80.6151 110.649C81.3643 110.649 82.0829 110.947 82.6127 111.477C83.1425 112.007 83.4401 112.725 83.4401 113.474Z" fill="#FCE9D9"/>
<path d="M181.009 114.437C180.751 115.11 180.222 115.648 179.539 115.932C178.856 116.217 178.076 116.224 177.369 115.953C177.019 115.818 176.697 115.619 176.423 115.368C176.148 115.116 175.926 114.816 175.769 114.485C175.612 114.154 175.523 113.799 175.507 113.44C175.492 113.08 175.55 112.723 175.678 112.39C175.936 111.717 176.465 111.179 177.148 110.894C177.83 110.61 178.611 110.603 179.318 110.874C179.668 111.009 179.99 111.207 180.264 111.459C180.539 111.711 180.761 112.011 180.918 112.341C181.075 112.672 181.164 113.028 181.179 113.387C181.195 113.747 181.137 114.103 181.009 114.437Z" fill="#FCE9D9"/>
<path d="M124.55 138.448C123.197 138.709 121.41 136.797 120.792 135.806C119.805 134.223 120.067 132.483 120.897 130.913C121.606 129.57 124.262 129.088 125.611 128.969C128.816 128.681 134.575 128.556 136.27 131.988C136.58 132.618 136.666 133.311 136.528 134.067C136.019 136.824 134.08 139.245 130.936 138.228C130.787 138.18 130.727 138.232 130.756 138.384C130.858 138.95 131.139 139.513 131.2 140.029C131.503 142.644 131.814 144.371 132.133 145.207C134.202 150.647 140.618 156.714 146.675 153.251C148.038 152.471 149.249 150.874 150.399 149.999C153.325 147.764 157.965 148.788 157.561 153.184C157.324 155.764 154.468 158.708 152.434 160.088C148.357 162.849 142.833 164.443 138.173 162.666C134.816 161.391 131.485 158.81 129.237 155.87C129.216 155.841 129.188 155.819 129.156 155.803C129.125 155.788 129.09 155.781 129.054 155.782C129.019 155.783 128.985 155.792 128.954 155.809C128.923 155.826 128.897 155.85 128.877 155.88C126.322 159.635 122.824 162.118 118.381 163.327C112.168 165.016 104.687 161.143 101.119 156.127C100.309 154.991 99.7897 153.173 100.153 151.81C100.78 149.44 103.737 148.588 105.799 149.46C107.095 150.009 108.468 151.383 109.682 152.39C113.796 155.792 118.975 154.998 122.247 150.888C124.703 147.802 125.123 142.362 124.74 138.587C124.729 138.472 124.665 138.426 124.55 138.448Z" fill="#4C1402"/>
<path d="M54.3356 171.083C49.4962 170.228 45.1552 165.453 43.5037 161.174C37.0669 144.519 56.9028 130.93 70.0545 142.779C73.8426 146.191 76.0673 149.497 76.0368 154.747C76.0232 157.528 75.1788 161.038 73.9477 163.327C70.2817 170.15 61.6812 173.016 54.434 171.226C54.4204 171.223 54.4113 171.216 54.4068 171.205C54.3978 171.176 54.3887 171.148 54.3797 171.12C54.3729 171.1 54.3582 171.088 54.3356 171.083Z" fill="#FE856F"/>
<path d="M200.536 171.317C189.152 173.996 178.54 164.789 179.92 152.902C180.741 145.831 185.652 140.758 192.428 139.065C203.416 136.318 215.665 145.244 213.701 157.358C212.511 164.697 207.712 169.632 200.536 171.317Z" fill="#FE856F"/>
<path d="M194.439 208.344C187.188 213.044 179.73 215.632 171.272 218.145C161.869 220.939 152.533 222.414 143.263 222.57C137.414 222.67 128.563 222.676 116.709 222.587C101.127 222.472 86.1973 219.335 71.9197 213.176C72.1254 212.968 72.1266 212.812 71.9231 212.708C69.6746 211.562 67.5957 210.311 65.2693 209.12C62.2273 207.564 59.5413 205.515 56.3772 204.427C56.2752 204.392 56.1912 204.319 56.1432 204.223C55.9691 203.889 56.0878 203.787 56.4993 203.918C68.9116 207.845 81.5127 211.031 94.3026 213.475C99.8711 214.54 105.392 215.323 111.124 215.7C132.37 217.09 153.054 215.781 174.002 211.752C175.879 211.39 177.654 211.153 179.327 211.04C181.908 210.864 184.573 210.823 187.032 210.307C189.533 209.781 192.001 209.126 194.439 208.344Z" fill="#FCE9D9"/>
</svg>
