<svg width="240" height="150" viewBox="0 0 240 150" fill="none" xmlns="http://www.w3.org/2000/svg">
<g clip-path="url(#clip0_604_174)">
<rect width="240" height="150" fill="#09907C"/>
<path d="M126.604 19.3167C126.604 19.3167 124.104 16.3174 119.604 16.3174C115.104 16.3174 113.104 18.8174 113.104 22.8174C113.104 27.8174 126.604 24.8175 126.604 29.3174C126.603 33.8173 123.604 34.817 119.604 34.817C115.604 34.817 113.104 32.317 113.104 32.317" stroke="#0DB99F" stroke-width="3"/>
<path d="M119.104 13.8174L119.604 37.8174" stroke="#0DB99F"/>
<path d="M119.104 13.8174L119.604 37.8174" stroke="#0DB99F" stroke-width="3"/>
<path d="M102.68 20.8854C102.68 20.8854 99.2114 19.0924 95.0645 20.8404C90.9177 22.5884 90.0458 25.6689 91.5995 29.3549C93.5416 33.9623 104.817 25.9541 106.564 30.1008C108.312 34.2475 105.936 36.3337 102.25 37.8875C98.5641 39.4412 95.2893 38.1086 95.2893 38.1086" stroke="#0DB99F" stroke-width="3"/>
<path d="M93.6323 18.7314L103.415 40.6528" stroke="#0DB99F"/>
<path d="M93.6323 18.7314L103.415 40.6528" stroke="#0DB99F" stroke-width="3"/>
<path d="M149.742 26.1606C149.742 26.1606 148.617 22.4217 144.476 20.6588C140.336 18.8958 137.516 20.4125 135.949 24.0928C133.99 28.6931 147.587 31.2218 145.824 35.3619C144.061 39.502 140.909 39.2468 137.229 37.6798C133.549 36.1127 132.228 32.8331 132.228 32.8331" stroke="#0DB99F" stroke-width="3"/>
<path d="M144.996 18.1631L136.054 40.4407" stroke="#0DB99F"/>
<path d="M144.996 18.1631L136.054 40.4407" stroke="#0DB99F" stroke-width="3"/>
<path d="M125.5 -10.5006C125.5 -10.5006 123 -13.5 118.5 -13.5C114 -13.5 112 -11 112 -7C112 -2 125.5 -4.99991 125.5 -0.5C125.5 3.99991 122.5 4.99965 118.5 4.99965C114.5 4.99965 112 2.49965 112 2.49965" stroke="#0DB99F" stroke-width="3"/>
<path d="M118 -16L118.5 8" stroke="#0DB99F"/>
<path d="M118 -16L118.5 8" stroke="#0DB99F" stroke-width="3"/>
<path d="M101.576 -8.93202C101.576 -8.93202 98.1078 -10.725 93.961 -8.97698C89.8142 -7.229 88.9423 -4.14845 90.4959 -0.462523C92.4381 4.14488 103.713 -3.86332 105.461 0.283384C107.208 4.43009 104.833 6.51632 101.147 8.07009C97.4606 9.62386 94.1858 8.29122 94.1858 8.29122" stroke="#0DB99F" stroke-width="3"/>
<path d="M92.5288 -11.0859L102.312 10.8354" stroke="#0DB99F"/>
<path d="M92.5288 -11.0859L102.312 10.8354" stroke="#0DB99F" stroke-width="3"/>
<path d="M148.638 -3.65681C148.638 -3.65681 147.513 -7.39566 143.373 -9.15862C139.232 -10.9216 136.413 -9.4049 134.846 -5.72462C132.887 -1.12426 146.483 1.40438 144.72 5.54449C142.957 9.6846 139.806 9.42946 136.125 7.86237C132.445 6.29529 131.124 3.01573 131.124 3.01573" stroke="#0DB99F" stroke-width="3"/>
<path d="M143.892 -11.6543L134.95 10.6233" stroke="#0DB99F"/>
<path d="M143.892 -11.6543L134.95 10.6233" stroke="#0DB99F" stroke-width="3"/>
<path d="M47.6856 20.7337C47.6856 20.7337 44.2306 18.915 40.0709 20.6321C35.9112 22.3492 35.0164 25.4232 36.5427 29.1205C38.4505 33.7423 49.7847 25.8181 51.5014 29.9777C53.2181 34.1373 50.8272 36.2058 47.1297 37.7321C43.4321 39.2584 40.1674 37.9015 40.1674 37.9015" stroke="#0DB99F" stroke-width="3"/>
<path d="M38.6543 18.5127L48.274 40.5062" stroke="#0DB99F"/>
<path d="M38.6543 18.5127L48.274 40.5061" stroke="#0DB99F" stroke-width="3"/>
<path d="M26.17 31.3125C26.17 31.3125 22.2799 30.9786 19.1138 34.1766C15.9476 37.3746 16.3171 40.5548 19.1597 43.369C22.7129 46.8868 30.0793 35.1823 33.2769 38.3485C36.4744 41.5147 35.0747 44.3495 32.2604 47.1922C29.446 50.0349 25.9105 50.0526 25.9105 50.0526" stroke="#0DB99F" stroke-width="3"/>
<path d="M16.9854 32.7734L34.3925 49.3035" stroke="#0DB99F"/>
<path d="M16.9854 32.7734L34.3925 49.3035" stroke="#0DB99F" stroke-width="3"/>
<path d="M71.6843 18.2323C71.6843 18.2323 69.218 15.2055 64.7181 15.1558C60.2181 15.1061 58.1906 17.5838 58.1464 21.5836C58.0912 26.5833 71.6238 23.7327 71.5738 28.2323C71.5238 32.732 68.5136 33.6985 64.5137 33.6543C60.5137 33.6101 58.0415 31.0827 58.0415 31.0827" stroke="#0DB99F" stroke-width="3"/>
<path d="M64.2456 12.6504L64.4804 36.6544" stroke="#0DB99F"/>
<path d="M64.2456 12.6504L64.4804 36.6544" stroke="#0DB99F" stroke-width="3"/>
<path d="M24.6856 -4.26635C24.6856 -4.26635 21.2306 -6.08503 17.0709 -4.36793C12.9112 -2.65082 12.0164 0.423163 13.5427 4.12054C15.4505 8.74225 26.7847 0.818094 28.5014 4.97768C30.2181 9.13726 27.8272 11.2058 24.1297 12.7321C20.4321 14.2584 17.1674 12.9015 17.1674 12.9015" stroke="#0DB99F" stroke-width="3"/>
<path d="M15.6543 -6.4873L25.274 15.5062" stroke="#0DB99F"/>
<path d="M15.6543 -6.4873L25.274 15.5061" stroke="#0DB99F" stroke-width="3"/>
<path d="M3.17001 6.31249C3.17001 6.31249 -0.720068 5.97859 -3.88621 9.1766C-7.05236 12.3746 -6.68288 15.5548 -3.84032 18.369C-0.287125 21.8868 7.07927 10.1823 10.2769 13.3485C13.4744 16.5147 12.0747 19.3495 9.26035 22.1922C6.44599 25.0349 2.9105 25.0526 2.9105 25.0526" stroke="#0DB99F" stroke-width="3"/>
<path d="M-6.01465 7.77344L11.3925 24.3035" stroke="#0DB99F"/>
<path d="M-6.01465 7.77344L11.3925 24.3035" stroke="#0DB99F" stroke-width="3"/>
<path d="M48.6843 -6.76769C48.6843 -6.76769 46.218 -9.79448 41.7181 -9.8442C37.2181 -9.89392 35.1906 -7.41617 35.1464 -3.41641C35.0912 1.58328 48.6238 -1.26729 48.5738 3.23234C48.5238 7.73197 45.5136 8.69851 41.5137 8.65432C37.5137 8.61012 35.0415 6.08265 35.0415 6.08265" stroke="#0DB99F" stroke-width="3"/>
<path d="M41.2456 -12.3496L41.4804 11.6544" stroke="#0DB99F"/>
<path d="M41.2456 -12.3496L41.4804 11.6544" stroke="#0DB99F" stroke-width="3"/>
<path d="M28.6856 56.7337C28.6856 56.7337 25.2306 54.915 21.0709 56.6321C16.9112 58.3492 16.0164 61.4232 17.5427 65.1205C19.4505 69.7423 30.7847 61.8181 32.5014 65.9777C34.2181 70.1373 31.8272 72.2058 28.1297 73.7321C24.4321 75.2584 21.1674 73.9015 21.1674 73.9015" stroke="#0DB99F" stroke-width="3"/>
<path d="M19.6543 54.5127L29.274 76.5062" stroke="#0DB99F"/>
<path d="M19.6543 54.5127L29.274 76.5061" stroke="#0DB99F" stroke-width="3"/>
<path d="M7.17001 67.3125C7.17001 67.3125 3.27993 66.9786 0.113787 70.1766C-3.05236 73.3746 -2.68288 76.5548 0.15968 79.369C3.71288 82.8868 11.0793 71.1823 14.2769 74.3485C17.4744 77.5147 16.0747 80.3495 13.2604 83.1922C10.446 86.0349 6.9105 86.0526 6.9105 86.0526" stroke="#0DB99F" stroke-width="3"/>
<path d="M-2.01465 68.7734L15.3925 85.3035" stroke="#0DB99F"/>
<path d="M-2.01465 68.7734L15.3925 85.3035" stroke="#0DB99F" stroke-width="3"/>
<path d="M52.6843 54.2323C52.6843 54.2323 50.218 51.2055 45.7181 51.1558C41.2181 51.1061 39.1906 53.5838 39.1464 57.5836C39.0912 62.5833 52.6238 59.7327 52.5738 64.2323C52.5238 68.732 49.5136 69.6985 45.5137 69.6543C41.5137 69.6101 39.0415 67.0827 39.0415 67.0827" stroke="#0DB99F" stroke-width="3"/>
<path d="M45.2456 48.6504L45.4804 72.6544" stroke="#0DB99F"/>
<path d="M45.2456 48.6504L45.4804 72.6544" stroke="#0DB99F" stroke-width="3"/>
<path d="M204.694 30.773C204.694 30.773 203.528 27.0469 199.368 25.3298C195.208 23.6127 192.405 25.1605 190.879 28.8579C188.971 33.4796 202.595 35.8577 200.878 40.0171C199.161 44.1764 196.007 43.9562 192.309 42.4299C188.612 40.9036 187.255 37.6388 187.255 37.6388" stroke="#0DB99F" stroke-width="3"/>
<path d="M199.859 22.8281L191.164 45.2032" stroke="#0DB99F"/>
<path d="M199.859 22.8281L191.164 45.2032" stroke="#0DB99F" stroke-width="3"/>
<path d="M181.981 23.0951C181.981 23.0951 179.459 20.1144 174.959 20.1479C170.459 20.1814 168.478 22.6962 168.507 26.6961C168.545 31.696 182.022 28.5957 182.055 33.0954C182.089 37.5952 179.097 38.6173 175.097 38.647C171.097 38.6768 168.578 36.1955 168.578 36.1955" stroke="#0DB99F" stroke-width="3"/>
<path d="M174.44 17.6514L175.119 41.647" stroke="#0DB99F"/>
<path d="M174.44 17.6514L175.119 41.647" stroke="#0DB99F" stroke-width="3"/>
<path d="M223.47 45.9286C223.47 45.9286 223.857 42.0434 220.703 38.834C217.548 35.6246 214.363 35.9507 211.51 38.7547C207.945 42.2596 219.548 49.7848 216.338 52.9389C213.129 56.0931 210.313 54.6549 207.509 51.8021C204.705 48.9492 204.736 45.4138 204.736 45.4138" stroke="#0DB99F" stroke-width="3"/>
<path d="M222.135 36.7246L205.369 53.905" stroke="#0DB99F"/>
<path d="M222.135 36.7246L205.369 53.905" stroke="#0DB99F" stroke-width="3"/>
<path d="M215.694 0.773039C215.694 0.773039 214.528 -2.95314 210.368 -4.67021C206.208 -6.38728 203.405 -4.83952 201.879 -1.14214C199.971 3.47959 213.595 5.85774 211.878 10.0171C210.161 14.1764 207.007 13.9562 203.309 12.4299C199.612 10.9036 198.255 7.63882 198.255 7.63882" stroke="#0DB99F" stroke-width="3"/>
<path d="M210.859 -7.17188L202.164 15.2032" stroke="#0DB99F"/>
<path d="M210.859 -7.17188L202.164 15.2032" stroke="#0DB99F" stroke-width="3"/>
<path d="M192.981 -6.90492C192.981 -6.90492 190.459 -9.88559 185.959 -9.85209C181.459 -9.8186 179.478 -7.30378 179.507 -3.30389C179.545 1.69597 193.022 -1.40434 193.055 3.09545C193.089 7.59524 190.097 8.61727 186.097 8.64704C182.097 8.67681 179.578 6.19549 179.578 6.19549" stroke="#0DB99F" stroke-width="3"/>
<path d="M185.44 -12.3486L186.119 11.647" stroke="#0DB99F"/>
<path d="M185.44 -12.3486L186.119 11.647" stroke="#0DB99F" stroke-width="3"/>
<path d="M234.47 15.9286C234.47 15.9286 234.857 12.0434 231.703 8.834C228.548 5.62458 225.363 5.95072 222.51 8.75468C218.945 12.2596 230.548 19.7848 227.338 22.9389C224.129 26.0931 221.313 24.6549 218.509 21.8021C215.705 18.9492 215.736 15.4138 215.736 15.4138" stroke="#0DB99F" stroke-width="3"/>
<path d="M233.135 6.72461L216.369 23.905" stroke="#0DB99F"/>
<path d="M233.135 6.72461L216.369 23.905" stroke="#0DB99F" stroke-width="3"/>
<path d="M226.694 64.773C226.694 64.773 225.528 61.0469 221.368 59.3298C217.208 57.6127 214.405 59.1605 212.879 62.8579C210.971 67.4796 224.595 69.8577 222.878 74.0171C221.161 78.1764 218.007 77.9562 214.309 76.4299C210.612 74.9036 209.255 71.6388 209.255 71.6388" stroke="#0DB99F" stroke-width="3"/>
<path d="M221.859 56.8281L213.164 79.2032" stroke="#0DB99F"/>
<path d="M221.859 56.8281L213.164 79.2032" stroke="#0DB99F" stroke-width="3"/>
<path d="M203.981 57.0951C203.981 57.0951 201.459 54.1144 196.959 54.1479C192.459 54.1814 190.478 56.6962 190.507 60.6961C190.545 65.696 204.022 62.5957 204.055 67.0954C204.089 71.5952 201.097 72.6173 197.097 72.647C193.097 72.6768 190.578 70.1955 190.578 70.1955" stroke="#0DB99F" stroke-width="3"/>
<path d="M196.44 51.6514L197.119 75.647" stroke="#0DB99F"/>
<path d="M196.44 51.6514L197.119 75.647" stroke="#0DB99F" stroke-width="3"/>
<path d="M245.47 79.9286C245.47 79.9286 245.857 76.0434 242.703 72.834C239.548 69.6246 236.363 69.9507 233.51 72.7547C229.945 76.2596 241.548 83.7848 238.338 86.9389C235.129 90.0931 232.313 88.6549 229.509 85.8021C226.705 82.9492 226.736 79.4138 226.736 79.4138" stroke="#0DB99F" stroke-width="3"/>
<path d="M244.135 70.7246L227.369 87.905" stroke="#0DB99F"/>
<path d="M244.135 70.7246L227.369 87.905" stroke="#0DB99F" stroke-width="3"/>
<path d="M91.7483 45.6979C91.7483 45.6979 98.6134 48.843 98.7267 48.8869C98.6344 48.9779 98.8126 48.934 98.7267 48.8869C101.992 50.6404 105.116 52.7614 107.994 55.1066C108.013 55.1225 108.036 55.1341 108.06 55.1409C108.084 55.1476 108.109 55.1493 108.134 55.1458C109.455 54.9608 110.772 54.7673 112.086 54.5655C113.141 54.404 114.248 54.3319 115.33 54.2127C118.33 53.9596 121.331 53.9596 124.333 54.2127C126.453 54.4354 128.564 54.7354 130.664 55.1129C130.711 55.1213 130.76 55.1197 130.807 55.108C130.854 55.0964 130.898 55.0751 130.936 55.0455C133.372 53.1477 135.965 51.3033 138.679 49.7914C143.865 46.9024 149.303 44.3836 155.245 43.4112C161.212 42.4341 165.961 45.1819 168.324 50.6712C169.021 52.4676 169.465 54.2027 169.894 55.5599C169.894 55.5599 170.251 57.2245 170.269 57.3855C170.593 60.1218 170.777 62.8665 170.821 65.6195C170.842 66.962 170.729 68.4567 170.689 69.8808C170.619 72.3353 170.515 74.4071 170.447 76.6719C170.453 77.5941 170.399 78.5268 170.285 79.4699C171.053 83.3574 171.693 87.2647 172.205 91.192C172.21 91.2317 172.26 91.755 172.353 92.7619C172.401 93.2847 172.484 93.8038 172.6 94.3193C172.728 95.7988 172.759 97.2872 172.694 98.7845C172.694 98.7948 172.695 98.8051 172.699 98.8148C172.702 98.8245 172.708 98.8333 172.715 98.8409C172.721 98.8485 172.73 98.8546 172.739 98.8589C172.748 98.8632 172.758 98.8657 172.768 98.8661C174.077 98.9194 175.298 98.9978 176.687 99.0088C178.288 99.0213 180.53 99.0386 179.887 101.455C179.338 102.411 178.577 102.932 177.604 103.019C176.759 103.095 175.671 103.027 174.341 102.814C174.174 102.786 174.016 102.828 173.867 102.938C173.597 102.925 172.451 102.694 172.446 102.905C172.425 102.903 172.403 102.907 172.381 102.917C172.366 102.924 172.353 102.937 172.343 102.954C172.334 102.971 172.328 102.992 172.326 103.014C172.228 104.842 171.92 106.635 171.402 108.394C171.347 108.675 171.242 108.941 171.086 109.191C171.075 109.207 171.069 109.225 171.067 109.244C171.065 109.263 171.068 109.283 171.074 109.3C171.081 109.318 171.092 109.334 171.106 109.346C171.12 109.359 171.137 109.368 171.155 109.373L175.899 110.618C176.211 110.821 176.55 110.945 176.913 110.991C177.439 111.057 177.726 111.099 177.775 111.117C178.403 111.35 178.604 111.838 178.379 112.58C177.833 114.374 176.358 114.787 174.684 114.428C173.198 114.111 171.726 113.737 170.266 113.308L169.559 113.212C169.076 114.444 168.649 115.398 168.277 116.074C165.793 120.587 162.417 124.237 158.147 127.023C155.348 128.85 152.273 130.494 149.183 131.524C145.92 132.613 143.555 133.184 140.701 133.94C140.067 134.108 136.866 134.655 136.205 134.782L126.314 135.845L121.736 136.172C115.745 136.253 109.704 135.882 103.615 135.06C100.54 134.646 97.7176 133.971 94.7911 133.27C93.1824 132.884 91.6492 132.313 90.0924 131.761C81.1542 128.59 73.5966 122.403 70.2188 113.267C70.2117 113.248 70.1974 113.232 70.1785 113.222C70.1596 113.212 70.1372 113.209 70.115 113.212L69.0834 113.378C68.143 113.572 67.2179 113.821 66.3079 114.126C65.0625 114.542 63.9035 114.856 62.6895 114.126C62.0846 113.447 61.7942 112.647 61.8183 111.727C61.8938 111.306 62.1302 111.008 62.5275 110.831C64.6242 110.476 66.6858 109.957 68.7123 109.274C68.7227 109.271 68.7324 109.265 68.7407 109.258C68.7489 109.251 68.7556 109.243 68.7602 109.233C68.7648 109.223 68.7672 109.213 68.7674 109.202C68.7675 109.192 68.7654 109.181 68.7611 109.172C67.8679 107.22 67.3909 105.17 67.33 103.024C67.3299 103.014 67.3276 103.004 67.3231 102.995C67.3186 102.986 67.3122 102.978 67.3041 102.971C67.296 102.964 67.2865 102.959 67.2761 102.956C67.2657 102.952 67.2546 102.951 67.2436 102.952C65.6071 103.037 64.3213 103.135 63.3861 103.243C61.281 103.486 60.1541 102.589 60.0052 100.554C59.9077 99.2142 61.1988 99.1029 62.3451 99.0464C63.816 98.9764 65.2863 98.899 66.7561 98.8143C66.7775 98.8135 66.7979 98.8047 66.813 98.7896C66.8282 98.7744 66.8371 98.7541 66.8378 98.7328C66.8578 98.1305 66.8782 97.0514 66.8992 95.4956C66.9432 92.1377 67.2797 88.4285 67.9119 84.9075C68.2264 82.9689 68.6426 81.0482 69.1605 79.1452C68.7721 73.4928 68.2641 66.1198 68.7768 59.8133C69.1206 57.0896 69.7502 54.4354 70.6654 51.8507C70.918 51.285 71.1723 50.7209 71.4281 50.1584C73.6988 45.1615 77.9588 42.4765 83.568 43.3438C86.4667 43.7934 89.1935 44.5781 91.7483 45.6979ZM73.8152 71.9369C73.9735 72.4671 73.997 73.0024 73.8859 73.543C73.8733 73.5994 73.8896 73.6193 73.9347 73.6026C73.9818 73.5853 74.4803 72.5392 74.5558 72.3996C75.861 70.299 77.3067 68.2993 78.8929 66.4006C79.8311 65.3518 80.7741 64.3083 81.7218 63.2701C82.8415 62.042 84.2992 61.0947 86.029 61.6766C87.1486 62.053 87.2147 63.3187 86.6376 64.2048C86.3744 64.3564 86.1522 64.5614 85.9708 64.8196C85.9412 64.8615 85.9 64.8932 85.8529 64.9106C83.4249 65.8265 81.6259 68.0552 80.0125 70.1255C75.7588 75.5819 72.9503 82.4483 71.9816 89.2817C71.5413 92.3949 71.1497 95.5882 71.3023 98.7312C71.3117 98.9361 71.4192 99.0433 71.6246 99.0527C72.8187 99.1071 73.9855 99.163 75.1251 99.2205C75.8579 99.2566 76.5089 99.4181 76.6331 100.188C76.7872 101.151 76.0607 102.429 75.0732 102.599C74.2922 102.732 73.5048 102.818 72.7112 102.858C72.3831 102.923 72.0172 102.926 71.6136 102.864C71.6996 104.45 72.067 105.97 72.716 107.423L73.0053 108.209C73.0138 108.232 73.0275 108.252 73.0442 108.265C73.0609 108.278 73.0794 108.284 73.0965 108.281L73.3041 108.248C74.2392 108.177 75.1377 107.96 75.9994 107.596C76.5896 107.309 77.1494 107.315 77.6789 107.615C77.9546 107.963 78.1223 108.301 78.1821 108.629C78.5548 110.685 76.3013 111.057 74.9033 111.468C74.8794 111.475 74.8581 111.486 74.8411 111.498C74.8242 111.51 74.8121 111.524 74.8059 111.539C74.7901 111.573 74.8006 111.599 74.8373 111.615L74.5558 111.727C74.4657 111.688 74.3535 111.719 74.2193 111.821C74.4478 112.838 74.9411 113.88 75.699 114.947C77.2884 117.181 78.4159 118.709 79.0816 119.531C79.1591 119.627 79.2645 119.625 79.3976 119.523C80.2678 120.432 81.3717 121.398 82.7094 122.422C86.2969 125.164 90.1857 127.126 94.376 128.306C98.1228 129.447 101.766 130.26 105.305 130.745C114.012 131.939 123.134 132.075 131.97 130.991C134.018 130.739 136.18 130.254 138.224 129.887C144.219 128.808 150.525 126.877 155.439 123.499C156.81 122.556 158.243 121.337 159.737 119.843C162.073 117.505 163.923 114.862 165.218 111.788C165.222 111.779 165.223 111.77 165.223 111.761C165.222 111.751 165.22 111.742 165.215 111.734C165.21 111.726 165.204 111.719 165.197 111.714C165.189 111.709 165.18 111.706 165.171 111.705C164.116 111.553 163.388 111.374 162.989 111.167C161.836 110.572 161.102 109.471 161.586 108.185C162.234 106.465 165.332 107.815 166.525 108.159C166.539 108.163 166.554 108.164 166.569 108.162C166.584 108.161 166.598 108.156 166.611 108.148C166.624 108.141 166.636 108.131 166.645 108.119C166.654 108.107 166.661 108.093 166.665 108.079C167.147 106.408 167.495 104.71 167.708 102.985C167.709 102.973 167.708 102.962 167.705 102.951C167.701 102.94 167.696 102.929 167.689 102.921C167.681 102.912 167.672 102.905 167.662 102.9C167.652 102.895 167.64 102.892 167.629 102.892C165.55 102.817 163.122 103.483 162.976 100.563C162.924 99.5169 163.489 99.0919 164.509 99.0245C165.632 98.9492 166.758 98.8828 167.887 98.8253C167.908 98.8241 167.928 98.815 167.942 98.7999C167.957 98.7848 167.965 98.7647 167.966 98.7437C168.016 91.2108 166.44 83.4379 162.77 76.8805C160.456 72.7462 157.486 69.0046 153.858 65.6556C153.482 65.3084 153.041 65.0402 152.536 64.851C152.062 64.2278 151.797 63.5952 151.742 62.9532C151.876 62.3698 152.19 61.9505 152.684 61.6954C153.693 61.3441 154.595 61.5161 155.39 62.2114C155.324 62.2595 155.295 62.3212 155.302 62.3965C155.304 62.4177 155.311 62.44 155.324 62.4619C155.337 62.4838 155.787 62.8791 155.809 62.8978C156.162 63.2031 156.062 63.1535 156.373 63.4975C156.78 63.946 157.324 64.1609 157.725 64.6016C158.37 65.3074 159.115 66.2045 159.961 67.293C160.279 67.7007 160.795 68.2105 161.201 68.7641C161.671 69.4056 162.264 70.0392 162.701 70.6054C162.924 70.8955 163.736 72.1126 164.078 72.0797L165.596 74.0354C165.628 74.0762 165.649 74.071 165.657 74.0197C165.695 73.7876 165.645 73.5022 165.662 73.2983C166.036 68.7782 165.788 64.9717 165.217 60.3231C165.111 59.4636 164.878 58.3265 164.517 56.9118C163.998 54.2032 163.141 50.9598 160.896 48.9915C160.751 48.865 160.299 48.6564 159.538 48.3657C159.013 48.0656 158.417 47.9595 157.749 48.0473C151.559 48.8598 145.782 50.9018 140.349 53.9288C137.658 55.4281 135.389 56.766 133.543 57.9423C132.61 58.5367 131.904 58.8707 130.777 58.7312C129.432 58.566 128.093 58.3574 126.759 58.1054C126.61 58.0771 126.452 58.1399 126.325 58.0834C126.061 57.9674 125.871 57.9344 125.591 58.0426L121.384 57.6631L118.333 57.6223L115.604 57.7572C114.714 57.7677 113.831 57.8482 112.957 57.9987C111.498 58.2507 110.762 58.3772 110.749 58.3783C109.582 58.5383 107.849 58.9821 106.58 58.601C106.396 58.5456 106.204 58.5189 106.005 58.521C105.514 58.2356 104.243 57.454 102.19 56.1763C99.9202 54.7637 97.1222 53.2737 93.7957 51.7064C92.4413 50.9191 90.9961 50.3581 89.4603 50.0235L86.5904 49.1719C85.3041 48.7118 83.9873 48.3809 82.6402 48.1791C80.7107 47.8905 78.3865 48.1869 77.3015 50.0392C76.185 51.9479 75.5732 53.8159 74.9757 56.112C74.2759 58.7923 73.7648 61.6233 73.746 64.4009C73.7407 65.1798 73.6894 66.9411 73.5919 69.6847C73.5646 70.447 73.639 71.1977 73.8152 71.9369Z" fill="#0DB99F"/>
<path d="M85.5048 49.4045L88.3747 50.2562L91.8421 51.6551C91.7373 52.0577 91.5171 52.3803 91.1817 52.6228C91.1398 52.6533 91.1095 52.6952 91.0952 52.742C90.9285 53.2612 90.8011 53.9466 90.3844 54.3292C89.7166 54.9409 89.1903 55.6786 88.8056 56.5422C86.8965 55.2154 84.0314 53.3929 81.638 53.5011C78.6612 53.636 76.3087 55.1903 74.2424 57.2135C74.2017 57.254 74.1556 57.2796 74.1118 57.2856L73.791 57.328C74.4153 54.8892 75.1466 52.0347 76.5508 50.0162C78.2759 47.5397 82.8567 48.7552 85.5048 49.4045Z" fill="#F3F0D8"/>
<path d="M158.453 48.5984C159.213 48.8891 159.665 49.0976 159.81 49.2242C162.056 51.1925 162.913 54.4359 163.432 57.1445C163.503 57.3787 163.478 57.4921 163.356 57.4848C163.335 57.4834 163.313 57.4747 163.294 57.4595C163.274 57.4444 163.256 57.4234 163.243 57.3986C163.155 57.2365 163.052 57.1068 162.935 57.0096C161.082 55.4679 158.387 53.694 155.91 53.4447C153.701 53.2204 151.233 54.3104 149.438 55.5494C149.815 54.9848 149.769 54.4908 149.301 54.0673C149.218 53.9931 149.179 53.8451 149.183 53.6235C149.181 53.6207 149.172 53.6134 149.156 53.6027C149.141 53.592 149.12 53.5788 149.098 53.5654L148.538 53.222C148.508 53.2033 148.478 53.1856 148.454 53.1719C148.43 53.1582 148.414 53.1492 148.408 53.1467C148.345 53.1571 148.318 53.1305 148.327 53.0667C148.331 53.0419 148.328 53.0167 148.317 52.9938C148.307 52.971 148.29 52.9517 148.269 52.9381C147.989 52.7624 147.48 52.5617 147.56 52.1586C147.626 51.8324 147.574 51.6097 147.415 51.3383C147.385 51.2869 147.373 51.232 147.382 51.1846C147.425 50.9525 147.338 50.8521 147.12 50.8835C147.117 50.8841 147.114 50.8834 147.111 50.8816C147.109 50.8798 147.107 50.8769 147.106 50.8732C147.104 50.8695 147.103 50.865 147.103 50.8603C147.103 50.8555 147.104 50.8505 147.106 50.8459C147.112 50.826 147.113 50.8061 147.11 50.7863C149.229 49.9676 151.64 49.3162 154.344 48.8321C155.857 48.5613 157.226 48.4834 158.453 48.5984Z" fill="#F3F0D8"/>
<path d="M147.11 50.7863C147.113 50.8061 147.112 50.826 147.106 50.8459C147.104 50.8505 147.103 50.8555 147.103 50.8603C147.103 50.865 147.104 50.8695 147.106 50.8732C147.107 50.8769 147.109 50.8798 147.111 50.8816C147.114 50.8834 147.117 50.8841 147.12 50.8835C147.338 50.8521 147.425 50.9525 147.382 51.1846C147.373 51.232 147.385 51.2869 147.415 51.3383C147.574 51.6097 147.626 51.8324 147.56 52.1586C147.48 52.5617 147.989 52.7624 148.269 52.9381C148.29 52.9517 148.307 52.971 148.317 52.9938C148.328 53.0167 148.331 53.0419 148.327 53.0667C148.318 53.1305 148.345 53.1571 148.408 53.1467C148.414 53.1492 148.43 53.1582 148.454 53.1719C148.478 53.1856 148.508 53.2033 148.538 53.222L149.098 53.5654C149.12 53.5788 149.141 53.592 149.156 53.6027C149.172 53.6134 149.181 53.6207 149.183 53.6235C149.179 53.8451 149.218 53.9931 149.301 54.0673C149.769 54.4908 149.815 54.9848 149.438 55.5494C147.735 56.6379 146.115 57.8445 144.578 59.1693C144.202 59.4934 143.894 59.8358 143.654 60.1966C143.626 60.2399 143.612 60.291 143.615 60.3426C143.617 60.3942 143.637 60.4436 143.67 60.4836C144.139 61.0576 144.655 61.5814 145.217 62.0551C147.036 63.5869 149.114 64.5964 151.45 65.0836C151.956 65.2729 152.397 65.5411 152.773 65.8882C156.4 69.2372 159.371 72.9789 161.684 77.1131C165.355 83.6705 166.93 91.4434 166.88 98.9764C166.88 98.9973 166.871 99.0174 166.857 99.0325C166.842 99.0477 166.822 99.0567 166.801 99.0579C165.672 99.1154 164.546 99.1818 163.424 99.2571C162.403 99.3245 161.839 99.7496 161.89 100.796C162.037 103.716 164.465 103.049 166.544 103.125C166.555 103.125 166.566 103.128 166.576 103.133C166.586 103.138 166.596 103.145 166.603 103.153C166.61 103.162 166.616 103.172 166.619 103.183C166.622 103.194 166.624 103.206 166.622 103.217C166.409 104.942 166.062 106.641 165.58 108.311C165.576 108.326 165.569 108.34 165.559 108.352C165.55 108.364 165.539 108.374 165.526 108.381C165.513 108.388 165.498 108.393 165.484 108.395C165.469 108.397 165.454 108.396 165.44 108.391C164.246 108.048 161.148 106.698 160.5 108.418C160.016 109.704 160.75 110.805 161.903 111.4C162.302 111.607 163.03 111.786 164.086 111.937C164.095 111.939 164.103 111.942 164.111 111.947C164.119 111.952 164.125 111.959 164.129 111.967C164.134 111.975 164.137 111.984 164.137 111.993C164.138 112.003 164.136 112.012 164.133 112.021C162.837 115.095 160.988 117.737 158.651 120.076C157.157 121.57 155.725 122.789 154.353 123.732C149.439 127.11 143.133 129.041 137.139 130.12C135.095 130.487 132.932 130.971 130.885 131.224C122.049 132.308 112.927 132.171 104.219 130.978C100.68 130.492 97.0372 129.68 93.2904 128.539C93.2957 128.495 93.3103 128.453 93.3344 128.413C93.3457 128.395 93.3637 128.38 93.3857 128.373C93.4077 128.365 93.4323 128.365 93.4555 128.373C96.8019 129.387 100.213 130.084 103.653 130.692C105.194 130.964 106.858 131.083 108.467 131.274C109.459 131.392 110.631 131.379 111.463 131.481C112.538 131.613 113.604 131.564 114.675 131.674C114.952 131.702 115.216 131.718 115.468 131.723C119.626 131.794 122.3 131.788 123.492 131.705C126.478 131.499 129.138 131.259 131.473 130.985C132.44 130.873 133.525 130.581 134.455 130.432C138.857 129.727 142.944 128.719 146.717 127.406C153.164 125.165 158.643 120.758 162.348 115.132C162.884 114.317 163.238 113.374 163.697 112.475C164.043 111.798 163.562 112.137 163.433 112.309C162.288 113.846 161.578 114.775 161.302 115.095C159.895 116.727 157.981 118.434 156.108 119.751C150.384 123.779 143.946 126.142 137.203 127.444C131.681 128.508 126.11 129.131 120.492 129.312C119.45 129.345 118.402 129.351 117.349 129.329C108.983 129.16 100.581 128.137 92.5828 125.604C85.9782 123.512 79.6644 120.132 75.3306 114.665C74.7571 113.932 74.2277 113.112 73.7423 112.204C73.7056 112.137 73.6432 112.106 73.5552 112.11L73.4703 111.959L73.7517 111.848C75.3651 111.523 77.9221 110.943 77.2616 108.655C77.1547 108.288 76.9319 108.019 76.5933 107.847C76.0639 107.548 75.5041 107.542 74.9138 107.828C73.9839 107.939 73.0855 108.157 72.2185 108.481L72.0109 108.514C71.9938 108.517 71.9753 108.511 71.9586 108.498C71.942 108.484 71.9282 108.465 71.9197 108.442L71.6304 107.656L70.528 103.097C70.9317 103.158 71.2975 103.156 71.6257 103.09C72.3239 103.218 73.0205 103.221 73.7156 103.101C74.6276 102.944 75.243 102.434 75.5617 101.57C76.0523 100.247 75.3966 99.3591 74.0835 99.2979C72.8769 99.2425 71.6765 99.1834 70.4824 99.1207C70.4531 99.1191 70.4255 99.1063 70.4053 99.085C70.3851 99.0637 70.3739 99.0355 70.3739 99.0062C70.3614 95.2483 70.6649 91.8763 71.3395 87.8832C71.5565 86.5956 71.9543 85.3126 72.3019 84.0344C73.975 77.8832 77.043 72.4629 81.4131 67.7264C82.4688 66.5814 83.655 65.7424 84.9717 65.2091C85.1494 65.2013 85.2925 65.2546 85.4734 65.1824C87.9344 64.2163 90.1689 62.6746 92.3013 60.8647C92.5372 60.665 92.6897 60.4736 92.7589 60.2907C92.8627 60.0125 92.8066 59.7715 92.5906 59.5676C91.4039 58.4447 90.1422 57.4362 88.8056 56.5422C89.1903 55.6786 89.7166 54.9409 90.3844 54.3292C90.8011 53.9466 90.9285 53.2612 91.0952 52.742C91.1095 52.6952 91.1398 52.6533 91.1817 52.6228C91.5171 52.3803 91.7373 52.0577 91.8421 51.6551L92.7102 51.939C96.0366 53.5064 98.8346 54.9963 101.104 56.4089C103.157 57.6866 104.429 58.4682 104.919 58.7537C105.532 59.0935 106.284 59.2137 107.177 59.1144C108.424 58.9764 109.666 58.8054 110.903 58.6015C111.327 60.3456 111.828 62.0676 112.406 63.7678C112.738 64.7464 113.199 65.7345 114.156 66.158C115.373 66.6975 116.539 66.1486 116.848 64.8092C116.992 64.187 117.1 63.4133 117.172 62.488C117.302 60.8004 117.328 59.2561 117.248 57.855L120.299 57.8957C120.128 59.4767 120.101 61.3305 120.218 63.4572C120.283 64.6194 120.591 66.0184 121.896 66.2991C123.235 66.5877 124.312 65.758 124.82 64.5551C125.574 62.7682 126.138 60.8098 126.51 58.6799C127.965 58.9199 130.099 59.541 131.451 58.9356C132.295 58.5576 133.423 57.7765 133.998 57.4284C138.251 54.8547 142.402 52.466 147.11 50.7863ZM82.734 96.2395C82.5631 96.1413 82.5401 95.9771 82.6648 95.7471C82.6931 95.6948 82.679 95.6791 82.6224 95.7C81.5939 96.0874 80.9036 97.0786 80.652 98.0777C80.2541 99.6508 82.4871 101.407 83.9795 101.24C84.1808 101.217 84.3773 101.238 84.5692 101.305C81.1599 103.255 82.1773 110.139 86.7974 109.381C87.7053 109.336 88.4654 108.993 89.0776 108.352C90.0054 107.253 90.2523 105.471 90.0054 104.133C89.6186 102.047 88.3673 100.955 86.2518 100.857C86.0463 100.615 86.0505 100.357 86.2644 100.082C86.2853 100.055 86.2948 100.054 86.2927 100.079L86.2911 100.118C86.2848 100.204 86.3026 100.212 86.3445 100.143C86.4861 99.9069 86.5118 99.6628 86.4216 99.4108C86.4174 99.3993 86.4154 99.3872 86.4156 99.3752C86.4158 99.3631 86.4182 99.3514 86.4228 99.3406C86.4273 99.3298 86.4338 99.3202 86.442 99.3123C86.4502 99.3045 86.4598 99.2985 86.4704 99.2947C86.5018 99.2832 86.5343 99.2812 86.5679 99.2885C87.2598 99.4014 87.9538 99.496 88.6499 99.5724C93.4178 100.098 97.3994 98.338 100.279 94.588C101.104 93.5153 101.611 92.9303 101.578 91.7414C101.497 91.0566 101.091 90.6331 100.361 90.471C99.2456 90.2232 98.9374 90.7816 98.2643 91.674C97.6337 92.5115 96.9937 93.4745 96.2405 94.0987C93.8958 96.0388 90.2806 96.456 87.4217 95.8741C86.2392 95.6341 83.4165 94.69 82.734 96.2395ZM140.903 98.2345C141.464 98.5911 142.147 98.876 142.952 99.0893C145.434 99.7449 147.879 99.8787 150.288 99.4908C150.348 99.6685 150.331 99.8426 150.238 100.013C150.228 100.033 150.224 100.056 150.227 100.078C150.231 100.099 150.241 100.119 150.257 100.134C150.461 100.321 150.58 100.546 150.614 100.81C149.694 100.915 148.956 101.272 148.4 101.881C147.005 103.405 146.94 107.022 148.349 108.554C149.581 109.894 151.952 109.66 153.185 108.537C154.518 107.322 154.731 104.986 154.347 103.335C154.16 102.532 153.686 101.861 152.922 101.321C154.369 101.385 155.466 100.859 156.212 99.7433C156.549 99.2383 156.602 98.6611 156.505 98.084C156.333 97.0561 155.798 96.3002 154.902 95.8161C154.422 95.4888 153.898 95.3273 153.331 95.3314C152.801 95.3362 152.026 95.4365 151.397 95.5746C148.772 96.1439 146.204 96.4105 143.511 95.6059C141.437 94.9864 139.927 93.1828 138.604 91.4999C138.26 91.0607 137.966 90.7858 137.724 90.6749C136.865 90.2828 135.753 90.918 135.629 91.8591C135.444 93.2753 137.769 95.6953 138.604 96.5626C139.28 97.2653 140.046 97.8226 140.903 98.2345ZM109.717 109.842C110.184 110.504 110.842 110.936 111.692 111.139C114.324 111.767 116.637 111.223 118.633 109.508C118.721 109.432 118.781 109.334 118.811 109.215C118.827 109.199 118.844 109.189 118.861 109.183C118.874 109.181 118.888 109.183 118.904 109.19C118.919 109.197 118.934 109.209 118.948 109.224C119.472 109.81 120.093 110.238 120.811 110.509C122.742 111.455 124.748 111.647 126.829 111.086C128.238 110.705 130.383 108.967 129.124 107.369C128.218 106.685 125.906 107.822 124.717 107.714C123.554 107.607 122.066 107.069 121.494 105.956C120.95 104.897 121.48 103.286 121.274 102.151C120.934 100.294 117.935 100.234 117.537 102.085C117.519 102.166 117.501 102.656 117.482 103.554C117.454 104.979 117.352 106.045 116.183 106.796C115.251 107.394 113.925 107.719 112.754 107.574C112.049 107.488 109.92 106.738 109.365 107.833C109.046 108.46 109.307 109.323 109.717 109.842Z" fill="#FEFEE6"/>
<path d="M163.432 57.1445C163.792 58.5592 164.025 59.6962 164.131 60.5557C164.702 65.2044 164.951 69.0109 164.576 73.5309C164.559 73.7348 164.609 74.0203 164.572 74.2524C164.563 74.3036 164.543 74.3089 164.51 74.2681L162.993 72.3123C161.894 70.8422 160.43 68.9722 158.599 66.7022C157.273 65.0565 155.841 63.6371 154.305 62.4441C153.51 61.7487 152.608 61.5767 151.598 61.9281C151.619 61.8894 151.621 61.8533 151.603 61.8198C151.593 61.8022 151.575 61.7899 151.552 61.7852C151.529 61.7806 151.503 61.784 151.479 61.7947C150.872 62.0561 150.598 62.5199 150.656 63.1859C150.712 63.8279 150.977 64.4605 151.45 65.0836C149.114 64.5964 147.036 63.5869 145.217 62.0551C144.655 61.5814 144.139 61.0576 143.67 60.4836C143.637 60.4436 143.617 60.3942 143.615 60.3426C143.612 60.291 143.626 60.2399 143.654 60.1966C143.894 59.8358 144.202 59.4934 144.578 59.1693C146.115 57.8445 147.735 56.6379 149.438 55.5494C151.233 54.3104 153.701 53.2204 155.91 53.4447C158.387 53.694 161.082 55.4679 162.935 57.0096C163.052 57.1068 163.155 57.2365 163.243 57.3986C163.256 57.4234 163.274 57.4444 163.294 57.4595C163.313 57.4747 163.335 57.4834 163.356 57.4848C163.478 57.4921 163.503 57.3787 163.432 57.1445Z" fill="#FCC3B6"/>
<path d="M88.8056 56.5422C90.1422 57.4362 91.4039 58.4447 92.5906 59.5676C92.8066 59.7715 92.8627 60.0125 92.7589 60.2907C92.6897 60.4736 92.5372 60.665 92.3013 60.8647C90.1689 62.6746 87.9344 64.2163 85.4734 65.1824C85.2925 65.2546 85.1494 65.2013 84.9717 65.2091L85.552 64.4375C86.1291 63.5513 86.0631 62.2856 84.9434 61.9092C83.2136 61.3274 81.7559 62.2747 80.6363 63.5027C79.6886 64.541 78.7456 65.5845 77.8073 66.6332C77.7255 66.5579 77.6469 66.5752 77.5761 66.6583C75.9176 68.6324 74.5139 70.5604 73.3649 72.4425C73.3051 72.5418 73.3403 72.6051 73.4702 72.6323C73.3948 72.7718 72.8963 73.818 72.8491 73.8352C72.804 73.8519 72.7878 73.8321 72.8003 73.7756C72.9115 73.235 72.8879 72.6997 72.7296 72.1696C72.7558 71.6144 72.7558 71.0665 72.7296 70.5259C72.5115 66.078 72.8653 61.6787 73.791 57.328L74.1118 57.2856C74.1556 57.2796 74.2017 57.254 74.2424 57.2135C76.3087 55.1903 78.6612 53.636 81.638 53.5011C84.0314 53.3929 86.8965 55.2154 88.8056 56.5422Z" fill="#FCC3B6"/>
<path d="M117.143 57.3275C117.223 58.7286 117.198 60.2729 117.068 61.9605C116.995 62.8858 116.887 63.6595 116.744 64.2817C116.434 65.6211 115.269 66.17 114.051 65.6305C113.094 65.207 112.633 64.2189 112.301 63.2403C111.724 61.5401 111.222 59.8181 110.798 58.074C111.99 57.8189 113.195 57.615 114.413 57.4623L117.143 57.3275Z" fill="#0DB99F"/>
<path d="M120.385 57.3275L124.592 57.707L126.597 58.1117C126.224 60.2415 125.661 62.1999 124.906 63.9868C124.398 65.1898 123.321 66.0194 121.983 65.7309C120.678 65.4501 120.369 64.0511 120.305 62.8889C120.187 60.7622 120.214 58.9084 120.385 57.3275Z" fill="#0DB99F"/>
<path d="M101.578 91.7414C101.388 92.4869 101.118 93.1127 100.768 93.6188C100.21 94.4265 99.3415 95.5447 98.582 96.2537C95.904 98.7584 92.5482 99.7213 88.8873 99.4186C87.1093 99.2723 85.3654 98.9487 83.6555 98.4478C82.971 97.8675 82.6638 97.1314 82.734 96.2395C83.4165 94.69 86.2392 95.6341 87.4217 95.8741C90.2806 96.456 93.8958 96.0388 96.2405 94.0987C96.9937 93.4745 97.6337 92.5115 98.2643 91.674C98.9374 90.7816 99.2456 90.2232 100.361 90.471C101.091 90.6331 101.497 91.0566 101.578 91.7414Z" fill="#0DB99F"/>
<path d="M154.902 95.8161L154.89 96.5799C154.474 98.1906 153.501 98.6878 151.872 99.0156C150.507 99.2916 149.25 99.3841 147.857 99.4646C147.197 99.5039 146.321 99.4547 145.568 99.3857C144.03 99.2456 142.772 99.0464 141.2 98.4191C138.999 97.3212 138.37 96.5862 137.216 95.3314C137.216 95.3314 135.444 93.2753 135.629 91.8591C135.753 90.918 136.865 90.2828 137.724 90.6749C137.966 90.7858 138.26 91.0607 138.604 91.4999C139.927 93.1828 141.437 94.9864 143.511 95.6059C146.204 96.4105 148.772 96.1439 151.397 95.5746C152.026 95.4365 152.801 95.3362 153.331 95.3314C153.898 95.3273 154.422 95.4888 154.902 95.8161Z" fill="#0DB99F"/>
<path d="M82.734 96.2395C82.6638 97.1314 82.971 97.8675 83.6555 98.4478C84.5361 99.0344 85.5803 99.1128 86.5679 99.2885C86.5343 99.2812 86.5018 99.2832 86.4704 99.2947C86.4598 99.2985 86.4502 99.3045 86.442 99.3123C86.4338 99.3202 86.4273 99.3298 86.4228 99.3406C86.4182 99.3514 86.4158 99.3631 86.4156 99.3752C86.4154 99.3872 86.4174 99.3993 86.4216 99.4108C86.5118 99.6628 86.4861 99.9069 86.3445 100.143C86.3026 100.212 86.2848 100.204 86.2911 100.118L86.2927 100.079C86.2948 100.054 86.2853 100.055 86.2644 100.082C86.0505 100.357 86.0463 100.615 86.2518 100.857L84.5692 101.305C84.3773 101.238 84.1808 101.217 83.9795 101.24C82.4871 101.407 80.2541 99.6508 80.652 98.0777C80.9036 97.0786 81.5939 96.0874 82.6224 95.7C82.679 95.6791 82.6931 95.6948 82.6648 95.7471C82.5401 95.9771 82.5631 96.1413 82.734 96.2395Z" fill="#E8D9C2"/>
<path d="M152.922 101.321C152.21 100.983 151.441 100.813 150.614 100.81C150.58 100.546 150.461 100.321 150.257 100.134C150.241 100.119 150.231 100.099 150.227 100.078C150.224 100.056 150.228 100.033 150.238 100.013C150.331 99.8426 150.348 99.6685 150.288 99.4908C152.292 99.1018 154.573 99.0909 154.89 96.5799L154.902 95.8161C155.798 96.3002 156.333 97.0561 156.505 98.084C156.602 98.6611 156.549 99.2383 156.212 99.7433C155.466 100.859 154.369 101.385 152.922 101.321Z" fill="#E6DEC7"/>
<path d="M129.124 107.369C129.285 107.794 129.344 108.174 129.3 108.509C129.144 109.704 128.161 110.458 127.064 110.793C124.989 111.424 122.905 111.329 120.811 110.509C120.093 110.238 119.472 109.81 118.948 109.224C118.934 109.209 118.919 109.197 118.904 109.19C118.888 109.183 118.874 109.181 118.861 109.183C118.844 109.189 118.827 109.199 118.811 109.215C118.799 109.192 118.78 109.177 118.751 109.171C118.734 109.167 118.714 109.17 118.694 109.179C118.674 109.189 118.655 109.204 118.638 109.224C117.128 110.998 114.282 111.409 112.043 111.02C111.251 110.882 110.624 110.578 110.162 110.107C110.027 109.971 110.008 109.627 109.717 109.842C109.307 109.323 109.046 108.46 109.365 107.833C109.92 106.738 112.049 107.488 112.754 107.574C113.925 107.719 115.251 107.394 116.183 106.796C117.352 106.045 117.454 104.979 117.482 103.554C117.501 102.656 117.519 102.166 117.537 102.085C117.935 100.234 120.934 100.294 121.274 102.151C121.48 103.286 120.95 104.897 121.494 105.956C122.066 107.069 123.554 107.607 124.717 107.714C125.906 107.822 128.218 106.685 129.124 107.369Z" fill="#0DB99F"/>
<path d="M150.614 100.81C151.441 100.813 152.21 100.983 152.922 101.321C153.686 101.861 154.16 102.532 154.347 103.335C154.731 104.986 154.518 107.322 153.185 108.537C151.952 109.66 149.581 109.894 148.349 108.554C146.94 107.022 147.005 103.405 148.4 101.881C148.956 101.272 149.694 100.915 150.614 100.81Z" fill="#8EE0BE"/>
<path d="M86.2518 100.857C88.3673 100.955 89.6186 102.047 90.0054 104.133C90.2523 105.471 90.0054 107.253 89.0776 108.352C88.3909 108.851 87.6309 109.194 86.7974 109.381C82.1773 110.139 81.1599 103.255 84.5692 101.305L86.2518 100.857Z" fill="#8EE0BE"/>
<path d="M73.4703 111.959L73.5552 112.11C73.9378 113.073 74.473 113.941 75.1607 114.714C75.2378 114.8 75.3243 114.806 75.3306 114.665C79.6644 120.132 85.9782 123.512 92.5828 125.604C100.581 128.137 108.983 129.16 117.349 129.329C118.402 129.351 119.45 129.345 120.492 129.312C126.11 129.131 131.681 128.508 137.203 127.444C143.946 126.142 150.384 123.779 156.108 119.751C157.981 118.434 159.895 116.727 161.302 115.095C161.578 114.775 162.288 113.846 163.433 112.309C163.562 112.137 164.043 111.798 163.697 112.475C163.238 113.374 162.884 114.317 162.348 115.132C158.643 120.758 153.164 125.165 146.717 127.406C142.944 128.719 138.857 129.727 134.455 130.432C133.525 130.581 132.44 130.873 131.473 130.985C129.138 131.259 126.478 131.499 123.492 131.705C122.3 131.788 119.626 131.794 115.468 131.723C115.216 131.718 114.952 131.702 114.675 131.674C113.604 131.564 112.538 131.613 111.463 131.481C110.631 131.379 109.459 131.392 108.467 131.274C106.858 131.083 105.194 130.964 103.653 130.692C100.213 130.084 96.8019 129.387 93.4555 128.373C93.4323 128.365 93.4077 128.365 93.3857 128.373C93.3637 128.38 93.3457 128.395 93.3344 128.413C93.3103 128.453 93.2957 128.495 93.2904 128.539C89.1001 127.358 85.2113 125.397 81.6238 122.654C80.2861 121.631 79.1822 120.664 78.3121 119.756C76.1734 117.345 74.4531 114.946 73.1337 112.054C73.2679 111.952 73.3801 111.921 73.4703 111.959Z" fill="#C9C0B1"/>
<path d="M217.834 96.9596C217.834 96.9596 217.847 93.0553 214.399 90.1626C210.952 87.27 207.813 87.8995 205.242 90.9637C202.028 94.7939 214.298 101.174 211.405 104.621C208.513 108.068 205.572 106.905 202.508 104.334C199.444 101.763 199.136 98.2408 199.136 98.2408" stroke="#0DB99F" stroke-width="3"/>
<path d="M215.623 87.9258L200.579 106.632" stroke="#0DB99F"/>
<path d="M215.623 87.9258L200.579 106.632" stroke="#0DB99F" stroke-width="3"/>
<path d="M198.499 82.7839C198.499 82.7839 196.995 79.181 192.694 77.8545C188.394 76.528 185.746 78.3274 184.567 82.1497C183.093 86.9275 196.878 88.0403 195.551 92.3402C194.224 96.6401 191.064 96.7113 187.241 95.5322C183.419 94.3531 181.767 91.2272 181.767 91.2272" stroke="#0DB99F" stroke-width="3"/>
<path d="M192.953 75.3184L186.357 98.3994" stroke="#0DB99F"/>
<path d="M192.953 75.3184L186.357 98.3994" stroke="#0DB99F" stroke-width="3"/>
<path d="M231.159 117.077C231.159 117.077 232.7 113.49 230.662 109.478C228.623 105.466 225.489 104.815 221.922 106.627C217.465 108.892 226.255 119.569 222.243 121.607C218.231 123.645 215.981 121.424 214.169 117.858C212.357 114.292 213.453 110.93 213.453 110.93" stroke="#0DB99F" stroke-width="3"/>
<path d="M232.664 107.898L211.494 119.216" stroke="#0DB99F"/>
<path d="M232.664 107.898L211.494 119.216" stroke="#0DB99F" stroke-width="3"/>
<path d="M30.0274 87.4706C30.0274 87.4706 26.1846 86.7797 22.7373 89.6723C19.2899 92.565 19.3648 95.7657 21.9359 98.8299C25.1499 102.66 33.5634 91.6842 36.4557 95.1315C39.3479 98.5789 37.6929 101.273 34.6286 103.844C31.5643 106.415 28.0422 106.107 28.0422 106.107" stroke="#0DB99F" stroke-width="3"/>
<path d="M20.7471 88.0791L36.557 106.143" stroke="#0DB99F"/>
<path d="M20.7471 88.0791L36.557 106.143" stroke="#0DB99F" stroke-width="3"/>
<path d="M12.7089 104.05C12.7089 104.05 8.89948 104.906 6.84639 108.911C4.7933 112.916 6.10552 115.836 9.66499 117.661C14.1143 119.942 17.6039 106.56 21.6081 108.613C25.6123 110.666 25.1336 113.791 23.3086 117.351C21.4836 120.911 18.1184 121.995 18.1184 121.995" stroke="#0DB99F" stroke-width="3"/>
<path d="M4.39355 108.216L25.9785 118.72" stroke="#0DB99F"/>
<path d="M4.39355 108.216L25.9785 118.72" stroke="#0DB99F" stroke-width="3"/>
<path d="M52.152 77.8409C52.152 77.8409 48.8871 75.6998 44.582 77.0107C40.277 78.3217 39.092 81.2959 40.2573 85.1224C41.7138 89.9055 53.7547 83.1029 55.0653 87.4078C56.3759 91.7126 53.7979 93.5427 49.9712 94.708C46.1445 95.8733 43.0246 94.21 43.0246 94.21" stroke="#0DB99F" stroke-width="3"/>
<path d="M43.375 74.7646L50.8448 97.5781" stroke="#0DB99F"/>
<path d="M43.375 74.7646L50.8448 97.5781" stroke="#0DB99F" stroke-width="3"/>
</g>
<defs>
<clipPath id="clip0_604_174">
<rect width="240" height="150" fill="white"/>
</clipPath>
</defs>
</svg>
