<svg width="1200" height="350" viewBox="0 0 1200 350" fill="none" xmlns="http://www.w3.org/2000/svg">
<rect width="1200" height="350" fill="#FDEEF5"/>
<path d="M539.965 46.3281C539.965 46.3281 554.554 52.9903 554.794 53.0834C554.598 53.276 554.977 53.183 554.794 53.0834C561.734 56.7976 568.372 61.2905 574.487 66.2584C574.529 66.2919 574.576 66.3167 574.627 66.3309C574.679 66.3452 574.732 66.3488 574.785 66.3414C577.592 65.9494 580.391 65.5397 583.182 65.1122C585.425 64.77 587.777 64.6172 590.076 64.3647C596.452 63.8287 602.829 63.8287 609.207 64.3647C613.714 64.8365 618.198 65.4721 622.66 66.2717C622.761 66.2895 622.865 66.286 622.965 66.2614C623.064 66.2368 623.158 66.1916 623.238 66.1288C628.415 62.1089 633.925 58.2019 639.693 54.9992C650.713 48.8796 662.269 43.544 674.897 41.4842C687.575 39.4144 697.666 45.2351 702.689 56.863C704.17 60.6681 705.113 64.3437 706.024 67.2185C706.024 67.2185 706.782 70.7446 706.823 71.0857C707.511 76.8819 707.902 82.6959 707.995 88.5276C708.039 91.3714 707.798 94.5376 707.715 97.5542C707.564 102.754 707.344 107.142 707.2 111.94C707.214 113.893 707.099 115.869 706.856 117.867C708.487 126.101 709.847 134.378 710.936 142.697C710.947 142.781 711.052 143.89 711.25 146.023C711.353 147.13 711.528 148.23 711.775 149.322C712.047 152.456 712.113 155.609 711.975 158.78C711.974 158.802 711.978 158.824 711.985 158.844C711.993 158.865 712.004 158.884 712.018 158.9C712.033 158.916 712.051 158.929 712.07 158.938C712.09 158.947 712.111 158.952 712.132 158.953C714.913 159.066 717.509 159.232 720.46 159.255C723.861 159.282 728.627 159.319 727.26 164.438C726.093 166.463 724.475 167.567 722.408 167.75C720.612 167.912 718.301 167.767 715.474 167.315C715.12 167.258 714.785 167.345 714.468 167.578C713.893 167.551 711.457 167.063 711.447 167.508C711.403 167.504 711.357 167.512 711.31 167.535C711.278 167.55 711.25 167.577 711.23 167.613C711.209 167.649 711.196 167.693 711.193 167.741C710.984 171.612 710.329 175.411 709.229 179.136C709.113 179.732 708.889 180.294 708.557 180.824C708.535 180.858 708.522 180.897 708.518 180.937C708.514 180.978 708.519 181.018 708.533 181.056C708.548 181.093 708.57 181.127 708.6 181.153C708.63 181.18 708.665 181.199 708.704 181.209L718.786 183.847C719.449 184.277 720.168 184.54 720.941 184.638C722.057 184.777 722.667 184.866 722.772 184.903C724.107 185.397 724.534 186.431 724.055 188.003C722.896 191.804 719.761 192.677 716.202 191.917C713.046 191.246 709.917 190.455 706.816 189.545L705.312 189.342C704.287 191.951 703.38 193.972 702.589 195.405C697.311 204.964 690.136 212.695 681.062 218.598C675.114 222.468 668.581 225.95 662.015 228.133C655.081 230.438 650.055 231.648 643.99 233.249C642.643 233.605 635.84 234.764 634.436 235.033L613.417 237.286L603.69 237.977C590.958 238.149 578.122 237.364 565.181 235.621C558.648 234.744 552.65 233.315 546.431 231.83C543.013 231.013 539.755 229.804 536.446 228.634C517.453 221.917 501.393 208.81 494.215 189.458C494.2 189.418 494.17 189.384 494.129 189.363C494.089 189.342 494.041 189.335 493.994 189.342L491.802 189.694C489.804 190.104 487.838 190.632 485.904 191.279C483.258 192.159 480.795 192.824 478.215 191.279C476.93 189.839 476.313 188.145 476.364 186.196C476.524 185.305 477.027 184.673 477.871 184.299C482.327 183.546 486.707 182.446 491.014 181C491.036 180.993 491.056 180.982 491.074 180.967C491.091 180.952 491.106 180.933 491.115 180.913C491.125 180.892 491.13 180.87 491.131 180.848C491.131 180.826 491.126 180.804 491.117 180.784C489.219 176.649 488.206 172.308 488.076 167.76C488.076 167.739 488.071 167.718 488.062 167.699C488.052 167.68 488.038 167.663 488.021 167.648C488.004 167.634 487.984 167.623 487.962 167.616C487.94 167.609 487.916 167.606 487.893 167.608C484.415 167.789 481.683 167.995 479.696 168.226C475.222 168.739 472.827 166.84 472.511 162.528C472.304 159.691 475.047 159.455 477.483 159.335C480.609 159.187 483.733 159.023 486.857 158.843C486.902 158.842 486.945 158.823 486.978 158.791C487.01 158.759 487.029 158.716 487.03 158.671C487.073 157.395 487.116 155.109 487.161 151.814C487.254 144.701 487.969 136.843 489.313 129.385C489.981 125.279 490.865 121.21 491.966 117.179C491.141 105.205 490.061 89.5874 491.151 76.2285C491.881 70.4589 493.219 64.8365 495.164 59.3614C495.701 58.1631 496.241 56.9682 496.785 55.7766C501.61 45.1919 510.662 39.5041 522.582 41.3414C528.742 42.2937 534.536 43.956 539.965 46.3281ZM501.857 101.91C502.194 103.033 502.244 104.167 502.008 105.312C501.981 105.431 502.015 105.473 502.111 105.438C502.211 105.401 503.271 103.185 503.431 102.89C506.205 98.4401 509.277 94.2042 512.647 90.1821C514.641 87.9606 516.645 85.7502 518.659 83.5508C521.038 80.9495 524.136 78.9428 527.812 80.1754C530.191 80.9727 530.331 83.6538 529.105 85.5309C528.546 85.852 528.073 86.2862 527.688 86.8332C527.625 86.9219 527.538 86.989 527.437 87.0259C522.278 88.9661 518.455 93.6871 515.027 98.0725C505.987 109.631 500.019 124.176 497.961 138.651C497.025 145.245 496.193 152.01 496.517 158.667C496.537 159.102 496.766 159.329 497.202 159.348C499.74 159.464 502.219 159.582 504.641 159.704C506.198 159.78 507.581 160.123 507.845 161.754C508.173 163.794 506.629 166.501 504.531 166.86C502.871 167.141 501.198 167.324 499.511 167.408C498.814 167.548 498.037 167.552 497.179 167.422C497.362 170.781 498.142 174.001 499.521 177.079L500.136 178.744C500.154 178.793 500.183 178.835 500.219 178.863C500.254 178.891 500.294 178.903 500.33 178.897L500.771 178.827C502.758 178.676 504.668 178.216 506.499 177.445C507.753 176.838 508.943 176.851 510.068 177.485C510.653 178.222 511.01 178.939 511.137 179.634C511.929 183.99 507.14 184.777 504.17 185.648C504.119 185.663 504.073 185.685 504.037 185.711C504.001 185.737 503.976 185.766 503.962 185.797C503.929 185.87 503.951 185.924 504.029 185.96L503.431 186.196C503.24 186.114 503.001 186.18 502.716 186.395C503.202 188.55 504.25 190.757 505.86 193.016C509.238 197.749 511.634 200.986 513.048 202.727C513.213 202.931 513.437 202.926 513.72 202.711C515.569 204.635 517.915 206.682 520.757 208.85C528.381 214.66 536.645 218.815 545.549 221.315C553.511 223.732 561.252 225.454 568.773 226.482C587.276 229.01 606.661 229.299 625.437 227.003C629.788 226.468 634.383 225.442 638.727 224.664C651.465 222.379 664.865 218.289 675.308 211.133C678.222 209.135 681.266 206.553 684.44 203.388C689.406 198.435 693.336 192.837 696.089 186.325C696.097 186.307 696.1 186.287 696.099 186.267C696.097 186.248 696.092 186.229 696.082 186.212C696.072 186.195 696.059 186.18 696.043 186.169C696.027 186.159 696.008 186.152 695.989 186.149C693.746 185.828 692.2 185.448 691.351 185.01C688.901 183.751 687.341 181.418 688.37 178.694C689.747 175.05 696.33 177.91 698.866 178.638C698.896 178.646 698.928 178.649 698.959 178.645C698.991 178.642 699.021 178.631 699.049 178.616C699.076 178.6 699.101 178.579 699.121 178.553C699.14 178.528 699.155 178.499 699.164 178.468C700.188 174.929 700.927 171.332 701.379 167.677C701.382 167.653 701.38 167.629 701.373 167.605C701.366 167.582 701.354 167.56 701.338 167.542C701.322 167.524 701.303 167.509 701.281 167.498C701.26 167.488 701.236 167.482 701.212 167.481C696.794 167.322 691.635 168.734 691.324 162.548C691.214 160.332 692.413 159.432 694.582 159.289C696.968 159.129 699.361 158.989 701.76 158.867C701.805 158.864 701.847 158.845 701.878 158.813C701.909 158.781 701.926 158.738 701.927 158.694C702.034 142.737 698.686 126.272 690.886 112.382C685.97 103.624 679.657 95.6981 671.949 88.604C671.15 87.8687 670.213 87.3006 669.139 86.8997C668.132 85.5796 667.57 84.2396 667.451 82.8797C667.737 81.6438 668.404 80.7557 669.453 80.2153C671.598 79.4711 673.515 79.8354 675.204 81.3083C675.064 81.4102 675.001 81.5408 675.017 81.7003C675.02 81.7453 675.036 81.7926 675.064 81.839C675.091 81.8853 676.048 82.7227 676.095 82.7623C676.844 83.409 676.631 83.3039 677.293 84.0325C678.158 84.9827 679.314 85.4379 680.166 86.3714C681.536 87.8665 683.12 89.7668 684.918 92.0725C685.593 92.9362 686.689 94.016 687.551 95.1887C688.551 96.5476 689.81 97.8898 690.739 99.0891C691.214 99.7037 692.938 102.282 693.667 102.212L696.891 106.355C696.96 106.441 697.004 106.43 697.022 106.322C697.102 105.83 696.995 105.225 697.032 104.793C697.827 95.2187 697.299 87.1555 696.086 77.3083C695.861 75.4877 695.365 73.079 694.599 70.0823C693.496 64.3448 691.675 57.4743 686.903 53.3049C686.596 53.0369 685.634 52.595 684.019 51.9793C682.903 51.3436 681.636 51.1188 680.217 51.3049C667.064 53.0258 654.787 57.3514 643.241 63.7634C637.523 66.9395 632.702 69.7734 628.779 72.2651C626.797 73.5242 625.297 74.2318 622.901 73.9362C620.043 73.5862 617.197 73.1444 614.363 72.6106C614.046 72.5508 613.711 72.6837 613.441 72.5641C612.879 72.3182 612.475 72.2485 611.88 72.4777L602.941 71.6737L596.459 71.5873L590.658 71.873C588.766 71.8952 586.892 72.0657 585.034 72.3847C581.933 72.9184 580.369 73.1864 580.342 73.1887C577.863 73.5275 574.18 74.4677 571.483 73.6604C571.091 73.543 570.684 73.4866 570.26 73.491C569.218 72.8863 566.515 71.2307 562.154 68.5242C557.33 65.5319 551.385 62.3758 544.316 59.0557C541.438 57.3879 538.367 56.1997 535.103 55.4909L529.005 53.6869C526.271 52.7124 523.473 52.0114 520.61 51.5839C516.51 50.9726 511.571 51.6005 509.266 55.5241C506.893 59.5673 505.593 63.5242 504.323 68.388C502.836 74.0657 501.75 80.0624 501.71 85.9462C501.699 87.5962 501.59 91.3272 501.383 97.1389C501.325 98.7535 501.483 100.344 501.857 101.91Z" fill="#281986"/>
<path d="M526.698 54.1797L532.796 55.9837L540.165 58.9472C539.942 59.7999 539.474 60.4832 538.761 60.997C538.672 61.0616 538.608 61.1502 538.577 61.2495C538.223 62.3492 537.952 63.801 537.067 64.6117C535.648 65.9073 534.529 67.4699 533.712 69.2994C529.655 66.4888 523.567 62.6283 518.481 62.8575C512.155 63.1432 507.156 66.4356 502.765 70.7213C502.679 70.8072 502.581 70.8613 502.488 70.8741L501.806 70.9639C503.133 65.7977 504.686 59.7512 507.671 55.4754C511.336 50.2296 521.07 52.8043 526.698 54.1797Z" fill="#F3F0D8"/>
<path d="M681.712 52.4721C683.328 53.0878 684.289 53.5297 684.596 53.7977C689.368 57.9671 691.189 64.8376 692.292 70.5751C692.443 71.0713 692.39 71.3116 692.132 71.2961C692.087 71.293 692.041 71.2746 691.999 71.2425C691.957 71.2105 691.92 71.166 691.891 71.1134C691.704 70.7701 691.486 70.4954 691.236 70.2894C687.3 67.0236 681.572 63.2662 676.309 62.7379C671.614 62.2628 666.371 64.5718 662.555 67.1964C663.357 66.0004 663.26 64.9539 662.264 64.0569C662.088 63.8996 662.005 63.5862 662.014 63.1166C662.01 63.1108 661.99 63.0952 661.957 63.0726C661.924 63.0501 661.88 63.022 661.833 62.9937L660.643 62.2661C660.579 62.2267 660.516 62.1892 660.465 62.1601C660.414 62.131 660.379 62.1121 660.366 62.1067C660.232 62.1288 660.176 62.0723 660.196 61.9372C660.204 61.8848 660.196 61.8312 660.174 61.7829C660.152 61.7346 660.117 61.6936 660.072 61.6648C659.477 61.2927 658.395 60.8675 658.565 60.0136C658.705 59.3226 658.595 58.8509 658.258 58.2761C658.193 58.1671 658.168 58.0508 658.187 57.9505C658.279 57.4588 658.093 57.2462 657.629 57.3126C657.623 57.3138 657.617 57.3125 657.612 57.3087C657.607 57.3048 657.602 57.2987 657.599 57.2908C657.596 57.2829 657.595 57.2735 657.595 57.2634C657.595 57.2533 657.596 57.2428 657.599 57.2329C657.613 57.1908 657.616 57.1487 657.609 57.1067C662.112 55.3724 667.235 53.9926 672.981 52.9671C676.195 52.3935 679.106 52.2285 681.712 52.4721Z" fill="#F3F0D8"/>
<path d="M657.609 57.1067C657.616 57.1487 657.613 57.1908 657.599 57.2329C657.596 57.2428 657.595 57.2533 657.595 57.2634C657.595 57.2735 657.596 57.2829 657.599 57.2908C657.602 57.2987 657.607 57.3048 657.612 57.3087C657.617 57.3125 657.623 57.3138 657.629 57.3126C658.093 57.2462 658.279 57.4588 658.187 57.9505C658.168 58.0508 658.193 58.1671 658.258 58.2761C658.595 58.8509 658.705 59.3226 658.565 60.0136C658.395 60.8675 659.477 61.2927 660.072 61.6648C660.117 61.6936 660.152 61.7346 660.174 61.7829C660.196 61.8312 660.204 61.8848 660.196 61.9372C660.176 62.0723 660.232 62.1288 660.366 62.1067C660.379 62.1121 660.414 62.131 660.465 62.1601C660.516 62.1892 660.579 62.2267 660.643 62.2661L661.833 62.9937C661.88 63.022 661.924 63.0501 661.957 63.0726C661.99 63.0952 662.01 63.1108 662.014 63.1166C662.005 63.5862 662.088 63.8996 662.264 64.0569C663.26 64.9539 663.357 66.0004 662.555 67.1964C658.937 69.502 655.495 72.058 652.229 74.8642C651.43 75.5508 650.775 76.2762 650.264 77.0403C650.204 77.132 650.175 77.2404 650.181 77.3497C650.187 77.459 650.228 77.5636 650.298 77.6483C651.296 78.8642 652.392 79.9739 653.586 80.9772C657.451 84.2219 661.867 86.3604 666.832 87.3925C667.906 87.7934 668.843 88.3615 669.642 89.0968C677.35 96.191 683.663 104.117 688.579 112.874C696.379 126.765 699.727 143.23 699.62 159.187C699.619 159.231 699.602 159.274 699.571 159.306C699.54 159.338 699.498 159.357 699.453 159.36C697.054 159.481 694.661 159.622 692.275 159.781C690.107 159.924 688.907 160.825 689.017 163.041C689.328 169.227 694.487 167.815 698.905 167.974C698.929 167.975 698.953 167.981 698.975 167.991C698.996 168.002 699.016 168.016 699.031 168.035C699.047 168.053 699.059 168.075 699.066 168.098C699.073 168.121 699.075 168.146 699.072 168.17C698.62 171.825 697.881 175.422 696.857 178.961C696.848 178.992 696.833 179.021 696.814 179.046C696.794 179.072 696.77 179.093 696.742 179.108C696.714 179.124 696.684 179.134 696.652 179.138C696.621 179.142 696.589 179.139 696.559 179.13C694.023 178.403 687.44 175.542 686.063 179.187C685.034 181.911 686.595 184.243 689.044 185.502C689.893 185.941 691.439 186.321 693.682 186.642C693.701 186.644 693.72 186.651 693.736 186.662C693.752 186.673 693.765 186.687 693.775 186.704C693.785 186.721 693.79 186.741 693.792 186.76C693.793 186.78 693.79 186.8 693.782 186.818C691.029 193.33 687.099 198.928 682.133 203.881C678.959 207.046 675.915 209.628 673.001 211.625C662.558 218.782 649.158 222.871 636.42 225.157C632.076 225.935 627.481 226.961 623.13 227.496C604.354 229.792 584.969 229.503 566.466 226.974C558.946 225.947 551.204 224.225 543.242 221.808C543.253 221.715 543.284 221.627 543.336 221.542C543.36 221.503 543.398 221.472 543.445 221.457C543.491 221.441 543.544 221.441 543.593 221.456C550.704 223.606 557.952 225.081 565.263 226.37C568.538 226.944 572.074 227.197 575.492 227.602C577.601 227.851 580.09 227.825 581.858 228.041C584.144 228.32 586.409 228.217 588.685 228.449C589.273 228.509 589.834 228.544 590.369 228.552C599.204 228.703 604.888 228.691 607.421 228.516C613.766 228.08 619.419 227.571 624.38 226.991C626.435 226.752 628.741 226.134 630.716 225.818C640.07 224.325 648.756 222.189 656.774 219.41C670.475 214.662 682.117 205.326 689.99 193.409C691.129 191.682 691.881 189.685 692.857 187.782C693.592 186.346 692.569 187.064 692.295 187.429C689.863 190.685 688.353 192.652 687.767 193.33C684.777 196.788 680.71 200.403 676.73 203.194C664.567 211.725 650.886 216.732 636.557 219.489C624.821 221.744 612.984 223.063 601.046 223.446C598.831 223.517 596.605 223.529 594.366 223.483C576.588 223.124 558.734 220.958 541.738 215.592C527.704 211.16 514.287 204.001 505.077 192.419C503.859 190.867 502.734 189.129 501.702 187.207C501.624 187.065 501.492 186.999 501.305 187.007L501.124 186.689L501.722 186.453C505.151 185.765 510.584 184.536 509.181 179.688C508.954 178.911 508.48 178.341 507.761 177.978C506.636 177.344 505.446 177.331 504.192 177.938C502.216 178.172 500.307 178.633 498.464 179.32L498.023 179.389C497.987 179.395 497.947 179.383 497.912 179.355C497.877 179.328 497.847 179.285 497.829 179.237L497.215 177.572L494.872 167.914C495.73 168.045 496.507 168.041 497.205 167.901C498.688 168.171 500.169 168.179 501.646 167.924C503.584 167.592 504.891 166.511 505.569 164.682C506.611 161.878 505.218 159.997 502.428 159.868C499.863 159.75 497.313 159.625 494.775 159.492C494.713 159.489 494.654 159.462 494.611 159.417C494.568 159.372 494.545 159.312 494.545 159.25C494.518 151.29 495.163 144.147 496.596 135.688C497.058 132.961 497.903 130.243 498.641 127.535C502.197 114.506 508.716 103.024 518.003 92.9905C520.246 90.5653 522.767 88.7878 525.565 87.6583C525.943 87.6417 526.247 87.7546 526.631 87.6018C531.861 85.5553 536.609 82.2895 541.14 78.4556C541.641 78.0325 541.966 77.6272 542.113 77.2396C542.333 76.6505 542.214 76.14 541.755 75.7081C539.233 73.3293 536.552 71.1931 533.712 69.2994C534.529 67.4699 535.648 65.9073 537.067 64.6117C537.952 63.801 538.223 62.3492 538.577 61.2495C538.608 61.1502 538.672 61.0616 538.761 60.997C539.474 60.4832 539.942 59.7999 540.165 58.9472L542.009 59.5485C549.078 62.8686 555.024 66.0247 559.847 69.017C564.209 71.7235 566.911 73.3792 567.953 73.9838C569.254 74.7036 570.854 74.9583 572.752 74.7479C575.401 74.4556 578.04 74.0934 580.668 73.6615C581.571 77.3559 582.635 81.0038 583.863 84.6051C584.568 86.6782 585.547 88.7712 587.582 89.6682C590.169 90.8111 592.645 89.6483 593.303 86.8111C593.608 85.4933 593.838 83.8543 593.991 81.8941C594.268 78.3194 594.321 75.048 594.152 72.0801L600.635 72.1665C600.271 75.5154 600.215 79.4423 600.464 83.9473C600.601 86.4091 601.256 89.3726 604.03 89.9672C606.873 90.5785 609.162 88.8211 610.242 86.2729C611.846 82.4877 613.043 78.3393 613.834 73.8277C616.925 74.336 621.46 75.6516 624.333 74.3692C626.128 73.5685 628.524 71.914 629.747 71.1765C638.783 65.7246 647.604 60.6648 657.609 57.1067ZM520.81 153.389C520.447 153.181 520.398 152.833 520.663 152.346C520.723 152.235 520.693 152.202 520.573 152.247C518.387 153.067 516.92 155.167 516.385 157.283C515.54 160.615 520.285 164.336 523.456 163.981C523.884 163.932 524.302 163.979 524.709 164.12C517.465 168.25 519.627 182.831 529.445 181.227C531.374 181.131 532.989 180.405 534.29 179.047C536.261 176.718 536.786 172.944 536.261 170.11C535.439 165.692 532.781 163.378 528.285 163.17C527.848 162.659 527.857 162.111 528.312 161.529C528.356 161.471 528.376 161.469 528.372 161.522L528.369 161.605C528.355 161.787 528.393 161.805 528.482 161.659C528.783 161.158 528.838 160.641 528.646 160.107C528.637 160.083 528.633 160.057 528.633 160.032C528.634 160.006 528.639 159.981 528.648 159.958C528.658 159.935 528.672 159.915 528.689 159.898C528.707 159.882 528.727 159.869 528.75 159.861C528.816 159.837 528.885 159.832 528.957 159.848C530.427 160.087 531.902 160.288 533.381 160.449C543.513 161.562 551.974 157.835 558.092 149.891C559.847 147.619 560.923 146.379 560.853 143.861C560.681 142.41 559.819 141.513 558.266 141.17C555.897 140.645 555.242 141.828 553.812 143.718C552.472 145.492 551.112 147.532 549.511 148.854C544.529 152.964 536.846 153.848 530.771 152.615C528.258 152.107 522.26 150.107 520.81 153.389ZM644.42 157.615C645.612 158.371 647.063 158.974 648.774 159.426C654.047 160.815 659.243 161.098 664.363 160.276C664.49 160.653 664.454 161.022 664.256 161.383C664.234 161.425 664.226 161.473 664.233 161.519C664.24 161.566 664.262 161.607 664.296 161.639C664.73 162.035 664.983 162.512 665.054 163.07C663.101 163.294 661.532 164.051 660.349 165.34C657.385 168.569 657.248 176.23 660.242 179.476C662.859 182.313 667.898 181.818 670.518 179.439C673.352 176.865 673.803 171.918 672.987 168.419C672.591 166.718 671.582 165.296 669.96 164.154C673.034 164.289 675.364 163.175 676.951 160.811C677.666 159.742 677.779 158.519 677.572 157.296C677.207 155.119 676.072 153.518 674.167 152.492C673.147 151.799 672.034 151.457 670.829 151.466C669.703 151.476 668.055 151.688 666.719 151.981C661.141 153.187 655.685 153.752 649.96 152.047C645.553 150.735 642.345 146.914 639.534 143.349C638.801 142.419 638.178 141.837 637.663 141.602C635.839 140.771 633.476 142.117 633.212 144.11C632.818 147.11 637.76 152.237 639.534 154.074C640.969 155.562 642.598 156.743 644.42 157.615ZM578.149 182.203C579.14 183.605 580.539 184.521 582.346 184.951C587.937 186.28 592.854 185.128 597.096 181.496C597.283 181.334 597.409 181.127 597.473 180.875C597.507 180.841 597.542 180.819 597.58 180.808C597.607 180.802 597.638 180.807 597.67 180.823C597.703 180.838 597.735 180.863 597.764 180.894C598.878 182.135 600.198 183.042 601.724 183.615C605.827 185.62 610.09 186.027 614.512 184.838C617.506 184.031 622.064 180.35 619.388 176.964C617.463 175.516 612.551 177.924 610.025 177.695C607.552 177.469 604.391 176.33 603.174 173.971C602.018 171.728 603.144 168.316 602.706 165.911C601.985 161.977 595.612 161.851 594.767 165.771C594.729 165.944 594.69 166.982 594.65 168.884C594.59 171.901 594.372 174.16 591.89 175.752C589.908 177.017 587.091 177.705 584.601 177.399C583.104 177.217 578.58 175.629 577.4 177.948C576.722 179.277 577.277 181.104 578.149 182.203Z" fill="#FEFEE6"/>
<path d="M692.292 70.5751C693.058 73.5718 693.554 75.9805 693.779 77.8011C694.992 87.6483 695.52 95.7114 694.725 105.286C694.688 105.718 694.795 106.323 694.715 106.814C694.697 106.923 694.653 106.934 694.584 106.848L691.36 102.705C689.025 99.5907 685.913 95.6295 682.023 90.8211C679.205 87.3349 676.163 84.3282 672.897 81.8011C671.209 80.3282 669.292 79.9639 667.146 80.7081C667.191 80.6261 667.194 80.5497 667.156 80.4788C667.136 80.4416 667.097 80.4154 667.048 80.4056C666.999 80.3957 666.944 80.4029 666.892 80.4257C665.602 80.9794 665.02 81.9617 665.145 83.3725C665.263 84.7324 665.825 86.0724 666.832 87.3925C661.867 86.3604 657.451 84.2219 653.586 80.9772C652.392 79.9739 651.296 78.8642 650.298 77.6483C650.228 77.5636 650.187 77.459 650.181 77.3497C650.175 77.2404 650.204 77.132 650.264 77.0403C650.775 76.2762 651.43 75.5508 652.229 74.8642C655.495 72.058 658.937 69.502 662.555 67.1964C666.371 64.5718 671.614 62.2628 676.309 62.7379C681.572 63.2662 687.3 67.0236 691.236 70.2894C691.486 70.4954 691.704 70.7701 691.891 71.1134C691.92 71.166 691.957 71.2105 691.999 71.2425C692.041 71.2746 692.087 71.293 692.132 71.2961C692.39 71.3116 692.443 71.0713 692.292 70.5751Z" fill="#FCC3B6"/>
<path d="M533.712 69.2994C536.552 71.1931 539.233 73.3293 541.755 75.7081C542.214 76.14 542.333 76.6505 542.113 77.2396C541.966 77.6272 541.641 78.0325 541.14 78.4556C536.609 82.2895 531.861 85.5553 526.631 87.6018C526.247 87.7546 525.943 87.6417 525.565 87.6583L526.798 86.0237C528.024 84.1466 527.884 81.4656 525.505 80.6682C521.829 79.4356 518.731 81.4423 516.352 84.0436C514.338 86.243 512.334 88.4534 510.34 90.6749C510.167 90.5154 510 90.552 509.849 90.728C506.325 94.9097 503.342 98.9939 500.9 102.981C500.773 103.191 500.848 103.325 501.124 103.383C500.964 103.678 499.905 105.894 499.804 105.931C499.709 105.966 499.674 105.924 499.701 105.805C499.937 104.659 499.887 103.525 499.55 102.403C499.606 101.226 499.606 100.066 499.55 98.9208C499.087 89.4988 499.839 80.1798 501.806 70.9639L502.488 70.8741C502.581 70.8613 502.679 70.8072 502.765 70.7213C507.156 66.4356 512.155 63.1432 518.481 62.8575C523.567 62.6283 529.655 66.4888 533.712 69.2994Z" fill="#FCC3B6"/>
<path d="M593.929 70.9627C594.098 73.9306 594.045 77.202 593.769 80.7767C593.615 82.7369 593.385 84.3759 593.08 85.6937C592.422 88.5309 589.946 89.6937 587.359 88.5508C585.324 87.6538 584.345 85.5608 583.64 83.4877C582.413 79.8864 581.348 76.2385 580.446 72.5441C582.979 72.0037 585.539 71.5718 588.128 71.2485L593.929 70.9627Z" fill="#281986"/>
<path d="M600.818 70.9627L609.757 71.7667L614.018 72.6239C613.227 77.1355 612.029 81.2839 610.425 85.0691C609.346 87.6173 607.057 89.3748 604.213 88.7635C601.44 88.1688 600.785 85.2053 600.648 82.7435C600.398 78.2385 600.455 74.3116 600.818 70.9627Z" fill="#281986"/>
<path d="M560.853 143.861C560.449 145.44 559.876 146.766 559.132 147.838C557.945 149.549 556.101 151.918 554.487 153.419C548.796 158.725 541.665 160.765 533.886 160.124C530.107 159.814 526.401 159.128 522.768 158.067C521.313 156.838 520.661 155.279 520.81 153.389C522.26 150.107 528.258 152.107 530.771 152.615C536.846 153.848 544.529 152.964 549.511 148.854C551.112 147.532 552.472 145.492 553.812 143.718C555.242 141.828 555.897 140.645 558.266 141.17C559.819 141.513 560.681 142.41 560.853 143.861Z" fill="#281986"/>
<path d="M674.167 152.492L674.14 154.11C673.258 157.522 671.19 158.575 667.728 159.27C664.827 159.855 662.157 160.051 659.197 160.221C657.793 160.304 655.932 160.2 654.331 160.054C651.063 159.757 648.39 159.335 645.05 158.006C640.372 155.681 639.035 154.124 636.585 151.466C636.585 151.466 632.818 147.11 633.212 144.11C633.476 142.117 635.839 140.771 637.663 141.602C638.178 141.837 638.801 142.419 639.534 143.349C642.345 146.914 645.553 150.735 649.96 152.047C655.685 153.752 661.141 153.187 666.719 151.981C668.055 151.688 669.703 151.476 670.829 151.466C672.034 151.457 673.147 151.799 674.167 152.492Z" fill="#281986"/>
<path d="M520.81 153.389C520.661 155.279 521.313 156.838 522.768 158.067C524.639 159.31 526.858 159.476 528.957 159.848C528.885 159.832 528.816 159.837 528.75 159.861C528.727 159.869 528.707 159.882 528.689 159.898C528.672 159.915 528.658 159.935 528.648 159.958C528.639 159.981 528.634 160.006 528.633 160.032C528.633 160.057 528.637 160.083 528.646 160.107C528.838 160.641 528.783 161.158 528.482 161.659C528.393 161.805 528.355 161.787 528.369 161.605L528.372 161.522C528.376 161.469 528.356 161.471 528.312 161.529C527.857 162.111 527.848 162.659 528.285 163.17L524.709 164.12C524.302 163.979 523.884 163.932 523.456 163.981C520.285 164.336 515.54 160.615 516.385 157.283C516.92 155.167 518.387 153.067 520.573 152.247C520.693 152.202 520.723 152.235 520.663 152.346C520.398 152.833 520.447 153.181 520.81 153.389Z" fill="#E8D9C2"/>
<path d="M669.96 164.154C668.447 163.438 666.812 163.077 665.054 163.07C664.983 162.512 664.73 162.035 664.296 161.639C664.262 161.607 664.24 161.566 664.233 161.519C664.226 161.473 664.234 161.425 664.256 161.383C664.454 161.022 664.49 160.653 664.363 160.276C668.62 159.453 673.469 159.429 674.14 154.11L674.167 152.492C676.072 153.518 677.207 155.119 677.572 157.296C677.779 158.519 677.666 159.742 676.951 160.811C675.364 163.175 673.034 164.289 669.96 164.154Z" fill="#E6DEC7"/>
<path d="M619.388 176.964C619.731 177.866 619.856 178.671 619.762 179.38C619.431 181.911 617.343 183.509 615.01 184.217C610.602 185.555 606.173 185.354 601.724 183.615C600.198 183.042 598.878 182.135 597.764 180.894C597.735 180.863 597.703 180.838 597.67 180.823C597.638 180.807 597.607 180.802 597.58 180.808C597.542 180.819 597.507 180.841 597.473 180.875C597.449 180.826 597.407 180.795 597.346 180.782C597.309 180.773 597.267 180.78 597.225 180.8C597.182 180.82 597.141 180.852 597.106 180.894C593.898 184.652 587.85 185.522 583.091 184.698C581.409 184.406 580.077 183.762 579.094 182.765C578.807 182.476 578.767 181.748 578.149 182.203C577.277 181.104 576.722 179.277 577.4 177.948C578.58 175.629 583.104 177.217 584.601 177.399C587.091 177.705 589.908 177.017 591.89 175.752C594.372 174.16 594.59 171.901 594.65 168.884C594.69 166.982 594.729 165.944 594.767 165.771C595.612 161.851 601.985 161.977 602.706 165.911C603.144 168.316 602.018 171.728 603.174 173.971C604.391 176.33 607.552 177.469 610.025 177.695C612.551 177.924 617.463 175.516 619.388 176.964Z" fill="#281986"/>
<path d="M665.054 163.07C666.812 163.077 668.447 163.438 669.96 164.154C671.582 165.296 672.591 166.718 672.987 168.419C673.803 171.918 673.352 176.865 670.518 179.439C667.898 181.818 662.859 182.313 660.242 179.476C657.248 176.23 657.385 168.569 660.349 165.34C661.532 164.051 663.101 163.294 665.054 163.07Z" fill="#FF8383"/>
<path d="M528.285 163.17C532.781 163.378 535.439 165.692 536.261 170.11C536.786 172.944 536.261 176.718 534.29 179.047C532.831 180.104 531.216 180.83 529.445 181.227C519.627 182.831 517.465 168.25 524.709 164.12L528.285 163.17Z" fill="#FF8383"/>
<path d="M501.124 186.689L501.305 187.007C502.118 189.047 503.255 190.886 504.717 192.522C504.88 192.705 505.064 192.718 505.077 192.419C514.287 204.001 527.704 211.16 541.738 215.592C558.734 220.958 576.588 223.124 594.366 223.483C596.605 223.529 598.831 223.517 601.046 223.446C612.984 223.063 624.821 221.744 636.557 219.489C650.886 216.732 664.567 211.725 676.73 203.194C680.71 200.403 684.777 196.788 687.767 193.33C688.353 192.652 689.863 190.685 692.295 187.429C692.569 187.064 693.592 186.346 692.857 187.782C691.881 189.685 691.129 191.682 689.99 193.409C682.117 205.326 670.475 214.662 656.774 219.41C648.756 222.189 640.07 224.325 630.716 225.818C628.741 226.134 626.435 226.752 624.38 226.991C619.419 227.571 613.766 228.08 607.421 228.516C604.888 228.691 599.204 228.703 590.369 228.552C589.834 228.544 589.273 228.509 588.685 228.449C586.409 228.217 584.144 228.32 581.858 228.041C580.09 227.825 577.601 227.851 575.492 227.602C572.074 227.197 568.538 226.944 565.263 226.37C557.952 225.081 550.704 223.606 543.593 221.456C543.544 221.441 543.491 221.441 543.445 221.457C543.398 221.472 543.36 221.503 543.336 221.542C543.284 221.627 543.253 221.715 543.242 221.808C534.338 219.308 526.074 215.153 518.451 209.343C515.608 207.175 513.262 205.128 511.413 203.204C506.869 198.097 503.213 193.014 500.409 186.888C500.694 186.673 500.933 186.607 501.124 186.689Z" fill="#C9C0B1"/>
<path d="M460.02 298V272.8H471.936C474.72 272.8 477.168 273.316 479.28 274.348C481.392 275.38 483.036 276.832 484.212 278.704C485.412 280.576 486.012 282.808 486.012 285.4C486.012 287.968 485.412 290.2 484.212 292.096C483.036 293.968 481.392 295.42 479.28 296.452C477.168 297.484 474.72 298 471.936 298H460.02ZM467.148 292.312H471.648C473.088 292.312 474.336 292.048 475.392 291.52C476.472 290.968 477.312 290.176 477.912 289.144C478.512 288.088 478.812 286.84 478.812 285.4C478.812 283.936 478.512 282.688 477.912 281.656C477.312 280.624 476.472 279.844 475.392 279.316C474.336 278.764 473.088 278.488 471.648 278.488H467.148V292.312ZM500.202 298.324C497.898 298.324 495.882 297.892 494.154 297.028C492.45 296.14 491.118 294.94 490.158 293.428C489.222 291.892 488.754 290.152 488.754 288.208C488.754 286.264 489.21 284.536 490.122 283.024C491.058 281.488 492.342 280.3 493.974 279.46C495.606 278.596 497.442 278.164 499.482 278.164C501.402 278.164 503.154 278.56 504.738 279.352C506.322 280.12 507.582 281.26 508.518 282.772C509.454 284.284 509.922 286.12 509.922 288.28C509.922 288.52 509.91 288.796 509.886 289.108C509.862 289.42 509.838 289.708 509.814 289.972H494.37V286.372H506.178L503.586 287.38C503.61 286.492 503.442 285.724 503.082 285.076C502.746 284.428 502.266 283.924 501.642 283.564C501.042 283.204 500.334 283.024 499.518 283.024C498.702 283.024 497.982 283.204 497.358 283.564C496.758 283.924 496.29 284.44 495.954 285.112C495.618 285.76 495.45 286.528 495.45 287.416V288.46C495.45 289.42 495.642 290.248 496.026 290.944C496.434 291.64 497.01 292.18 497.754 292.564C498.498 292.924 499.386 293.104 500.418 293.104C501.378 293.104 502.194 292.972 502.866 292.708C503.562 292.42 504.246 291.988 504.918 291.412L508.518 295.156C507.582 296.188 506.43 296.98 505.062 297.532C503.694 298.06 502.074 298.324 500.202 298.324ZM518.7 298L510.672 278.488H517.692L524.1 294.796H520.572L527.304 278.488H533.82L525.756 298H518.7ZM545.825 298.324C543.521 298.324 541.505 297.892 539.777 297.028C538.073 296.14 536.741 294.94 535.781 293.428C534.845 291.892 534.377 290.152 534.377 288.208C534.377 286.264 534.833 284.536 535.745 283.024C536.681 281.488 537.965 280.3 539.597 279.46C541.229 278.596 543.065 278.164 545.105 278.164C547.025 278.164 548.777 278.56 550.361 279.352C551.945 280.12 553.205 281.26 554.141 282.772C555.077 284.284 555.545 286.12 555.545 288.28C555.545 288.52 555.533 288.796 555.509 289.108C555.485 289.42 555.461 289.708 555.437 289.972H539.993V286.372H551.801L549.209 287.38C549.233 286.492 549.065 285.724 548.705 285.076C548.369 284.428 547.889 283.924 547.265 283.564C546.665 283.204 545.957 283.024 545.141 283.024C544.325 283.024 543.605 283.204 542.981 283.564C542.381 283.924 541.913 284.44 541.577 285.112C541.241 285.76 541.073 286.528 541.073 287.416V288.46C541.073 289.42 541.265 290.248 541.649 290.944C542.057 291.64 542.633 292.18 543.377 292.564C544.121 292.924 545.009 293.104 546.041 293.104C547.001 293.104 547.817 292.972 548.489 292.708C549.185 292.42 549.869 291.988 550.541 291.412L554.141 295.156C553.205 296.188 552.053 296.98 550.685 297.532C549.317 298.06 547.697 298.324 545.825 298.324ZM559.239 298V271.288H566.079V298H559.239ZM580.856 298.324C578.72 298.324 576.824 297.892 575.168 297.028C573.512 296.164 572.204 294.976 571.244 293.464C570.308 291.928 569.84 290.176 569.84 288.208C569.84 286.24 570.308 284.5 571.244 282.988C572.204 281.476 573.512 280.3 575.168 279.46C576.824 278.596 578.72 278.164 580.856 278.164C582.992 278.164 584.888 278.596 586.544 279.46C588.224 280.3 589.532 281.476 590.468 282.988C591.404 284.5 591.872 286.24 591.872 288.208C591.872 290.176 591.404 291.928 590.468 293.464C589.532 294.976 588.224 296.164 586.544 297.028C584.888 297.892 582.992 298.324 580.856 298.324ZM580.856 292.888C581.648 292.888 582.344 292.708 582.944 292.348C583.568 291.988 584.06 291.46 584.42 290.764C584.78 290.044 584.96 289.192 584.96 288.208C584.96 287.224 584.78 286.396 584.42 285.724C584.06 285.028 583.568 284.5 582.944 284.14C582.344 283.78 581.648 283.6 580.856 283.6C580.088 283.6 579.392 283.78 578.768 284.14C578.168 284.5 577.676 285.028 577.292 285.724C576.932 286.396 576.752 287.224 576.752 288.208C576.752 289.192 576.932 290.044 577.292 290.764C577.676 291.46 578.168 291.988 578.768 292.348C579.392 292.708 580.088 292.888 580.856 292.888ZM607.857 298.324C606.201 298.324 604.785 297.964 603.609 297.244C602.433 296.5 601.533 295.396 600.909 293.932C600.309 292.444 600.009 290.548 600.009 288.244C600.009 285.916 600.297 284.02 600.873 282.556C601.449 281.068 602.313 279.964 603.465 279.244C604.641 278.524 606.105 278.164 607.857 278.164C609.633 278.164 611.241 278.584 612.681 279.424C614.145 280.24 615.297 281.404 616.137 282.916C617.001 284.404 617.433 286.18 617.433 288.244C617.433 290.308 617.001 292.096 616.137 293.608C615.297 295.12 614.145 296.284 612.681 297.1C611.241 297.916 609.633 298.324 607.857 298.324ZM595.581 304.984V278.488H602.097V281.8L602.061 288.244L602.421 294.724V304.984H595.581ZM606.417 292.888C607.185 292.888 607.869 292.708 608.469 292.348C609.093 291.988 609.585 291.46 609.945 290.764C610.329 290.068 610.521 289.228 610.521 288.244C610.521 287.26 610.329 286.42 609.945 285.724C609.585 285.028 609.093 284.5 608.469 284.14C607.869 283.78 607.185 283.6 606.417 283.6C605.649 283.6 604.953 283.78 604.329 284.14C603.729 284.5 603.237 285.028 602.853 285.724C602.493 286.42 602.313 287.26 602.313 288.244C602.313 289.228 602.493 290.068 602.853 290.764C603.237 291.46 603.729 291.988 604.329 292.348C604.953 292.708 605.649 292.888 606.417 292.888ZM631.376 298.324C629.072 298.324 627.056 297.892 625.328 297.028C623.624 296.14 622.292 294.94 621.332 293.428C620.396 291.892 619.928 290.152 619.928 288.208C619.928 286.264 620.384 284.536 621.296 283.024C622.232 281.488 623.516 280.3 625.148 279.46C626.78 278.596 628.616 278.164 630.656 278.164C632.576 278.164 634.328 278.56 635.912 279.352C637.496 280.12 638.756 281.26 639.692 282.772C640.628 284.284 641.096 286.12 641.096 288.28C641.096 288.52 641.084 288.796 641.06 289.108C641.036 289.42 641.012 289.708 640.988 289.972H625.544V286.372H637.352L634.76 287.38C634.784 286.492 634.616 285.724 634.256 285.076C633.92 284.428 633.44 283.924 632.816 283.564C632.216 283.204 631.508 283.024 630.692 283.024C629.876 283.024 629.156 283.204 628.532 283.564C627.932 283.924 627.464 284.44 627.128 285.112C626.792 285.76 626.624 286.528 626.624 287.416V288.46C626.624 289.42 626.816 290.248 627.2 290.944C627.608 291.64 628.184 292.18 628.928 292.564C629.672 292.924 630.56 293.104 631.592 293.104C632.552 293.104 633.368 292.972 634.04 292.708C634.736 292.42 635.42 291.988 636.092 291.412L639.692 295.156C638.756 296.188 637.604 296.98 636.236 297.532C634.868 298.06 633.248 298.324 631.376 298.324ZM644.789 298V278.488H651.305V284.176L650.333 282.556C650.909 281.092 651.845 280 653.141 279.28C654.437 278.536 656.009 278.164 657.857 278.164V284.32C657.545 284.272 657.269 284.248 657.029 284.248C656.813 284.224 656.573 284.212 656.309 284.212C654.917 284.212 653.789 284.596 652.925 285.364C652.061 286.108 651.629 287.332 651.629 289.036V298H644.789ZM672.631 298V272.8H679.759V292.348H691.783V298H672.631ZM704.541 298.324C702.405 298.324 700.509 297.892 698.853 297.028C697.197 296.164 695.889 294.976 694.929 293.464C693.993 291.928 693.525 290.176 693.525 288.208C693.525 286.24 693.993 284.5 694.929 282.988C695.889 281.476 697.197 280.3 698.853 279.46C700.509 278.596 702.405 278.164 704.541 278.164C706.677 278.164 708.573 278.596 710.229 279.46C711.909 280.3 713.217 281.476 714.153 282.988C715.089 284.5 715.557 286.24 715.557 288.208C715.557 290.176 715.089 291.928 714.153 293.464C713.217 294.976 711.909 296.164 710.229 297.028C708.573 297.892 706.677 298.324 704.541 298.324ZM704.541 292.888C705.333 292.888 706.029 292.708 706.629 292.348C707.253 291.988 707.745 291.46 708.105 290.764C708.465 290.044 708.645 289.192 708.645 288.208C708.645 287.224 708.465 286.396 708.105 285.724C707.745 285.028 707.253 284.5 706.629 284.14C706.029 283.78 705.333 283.6 704.541 283.6C703.773 283.6 703.077 283.78 702.453 284.14C701.853 284.5 701.361 285.028 700.977 285.724C700.617 286.396 700.437 287.224 700.437 288.208C700.437 289.192 700.617 290.044 700.977 290.764C701.361 291.46 701.853 291.988 702.453 292.348C703.077 292.708 703.773 292.888 704.541 292.888ZM728.806 305.308C726.934 305.308 725.146 305.092 723.442 304.66C721.762 304.228 720.322 303.592 719.122 302.752L721.606 297.964C722.422 298.612 723.43 299.116 724.63 299.476C725.854 299.86 727.042 300.052 728.194 300.052C730.042 300.052 731.374 299.644 732.19 298.828C733.006 298.036 733.414 296.872 733.414 295.336V293.032L733.774 287.56L733.738 282.052V278.488H740.254V294.436C740.254 298.132 739.258 300.868 737.266 302.644C735.274 304.42 732.454 305.308 728.806 305.308ZM727.618 296.992C725.89 296.992 724.294 296.608 722.83 295.84C721.39 295.048 720.226 293.956 719.338 292.564C718.474 291.148 718.042 289.48 718.042 287.56C718.042 285.64 718.474 283.984 719.338 282.592C720.226 281.176 721.39 280.084 722.83 279.316C724.294 278.548 725.89 278.164 727.618 278.164C729.274 278.164 730.69 278.5 731.866 279.172C733.042 279.82 733.93 280.84 734.53 282.232C735.154 283.624 735.466 285.4 735.466 287.56C735.466 289.72 735.154 291.496 734.53 292.888C733.93 294.28 733.042 295.312 731.866 295.984C730.69 296.656 729.274 296.992 727.618 296.992ZM729.238 291.556C730.054 291.556 730.774 291.388 731.398 291.052C732.046 290.716 732.55 290.248 732.91 289.648C733.294 289.048 733.486 288.352 733.486 287.56C733.486 286.768 733.294 286.072 732.91 285.472C732.55 284.872 732.046 284.416 731.398 284.104C730.774 283.768 730.054 283.6 729.238 283.6C728.422 283.6 727.69 283.768 727.042 284.104C726.394 284.416 725.878 284.872 725.494 285.472C725.134 286.072 724.954 286.768 724.954 287.56C724.954 288.352 725.134 289.048 725.494 289.648C725.878 290.248 726.394 290.716 727.042 291.052C727.69 291.388 728.422 291.556 729.238 291.556Z" fill="#281986"/>
</svg>
