<svg width="512" height="512" viewBox="0 0 512 512" fill="none" xmlns="http://www.w3.org/2000/svg">
<rect width="512" height="512" fill="#EE5899"/>
<path d="M166.801 116.952C166.801 116.952 188.598 126.894 188.957 127.033C188.664 127.321 189.23 127.182 188.957 127.033C199.325 132.576 209.244 139.281 218.381 146.695C218.443 146.745 218.514 146.782 218.59 146.804C218.667 146.825 218.747 146.83 218.826 146.819C223.02 146.234 227.202 145.623 231.372 144.985C234.723 144.474 238.238 144.246 241.673 143.869C251.199 143.069 260.727 143.069 270.256 143.869C276.99 144.573 283.69 145.522 290.357 146.715C290.508 146.742 290.663 146.736 290.812 146.7C290.961 146.663 291.1 146.596 291.221 146.502C298.955 140.503 307.188 134.672 315.805 129.892C332.272 120.759 349.537 112.797 368.404 109.723C387.347 106.634 402.425 115.32 409.929 132.674C412.143 138.352 413.551 143.838 414.912 148.128C414.912 148.128 416.046 153.39 416.105 153.899C417.134 162.55 417.718 171.226 417.858 179.929C417.923 184.174 417.563 188.899 417.438 193.401C417.214 201.16 416.884 207.71 416.67 214.869C416.69 217.785 416.518 220.733 416.155 223.715C418.592 236.004 420.624 248.356 422.252 260.771C422.268 260.897 422.425 262.551 422.721 265.735C422.874 267.387 423.135 269.028 423.505 270.658C423.911 275.335 424.011 280.04 423.804 284.774C423.803 284.806 423.808 284.839 423.819 284.869C423.83 284.9 423.847 284.928 423.869 284.952C423.891 284.976 423.917 284.995 423.946 285.009C423.975 285.023 424.007 285.03 424.039 285.032C428.193 285.2 432.072 285.448 436.481 285.483C441.564 285.522 448.683 285.577 446.641 293.217C444.897 296.239 442.481 297.886 439.392 298.161C436.709 298.402 433.256 298.185 429.032 297.511C428.503 297.425 428.002 297.556 427.529 297.903C426.67 297.863 423.03 297.134 423.015 297.799C422.949 297.792 422.881 297.805 422.811 297.838C422.763 297.861 422.721 297.901 422.69 297.956C422.659 298.01 422.641 298.076 422.636 298.146C422.323 303.924 421.345 309.592 419.7 315.152C419.527 316.041 419.193 316.881 418.697 317.671C418.664 317.722 418.644 317.78 418.638 317.841C418.632 317.901 418.64 317.961 418.661 318.017C418.683 318.073 418.717 318.123 418.761 318.163C418.806 318.203 418.859 318.231 418.916 318.246L433.98 322.183C434.971 322.824 436.045 323.217 437.2 323.363C438.867 323.571 439.78 323.703 439.936 323.759C441.93 324.496 442.569 326.038 441.853 328.385C440.121 334.057 435.437 335.361 430.12 334.226C425.404 333.224 420.729 332.044 416.095 330.686L413.849 330.383C412.318 334.277 410.961 337.293 409.78 339.432C401.894 353.698 391.173 365.236 377.616 374.044C368.729 379.821 358.968 385.017 349.157 388.274C338.797 391.715 331.288 393.52 322.226 395.91C320.214 396.44 310.049 398.171 307.952 398.572L276.547 401.934L262.013 402.965C242.991 403.223 223.812 402.051 204.476 399.45C194.715 398.141 185.753 396.009 176.462 393.793C171.354 392.573 166.486 390.768 161.543 389.023C133.164 378.998 109.169 359.438 98.4446 330.557C98.422 330.497 98.3769 330.447 98.3168 330.415C98.2568 330.384 98.1855 330.372 98.1151 330.383L94.8399 330.909C91.8542 331.52 88.9167 332.309 86.0276 333.274C82.0733 334.588 78.3936 335.579 74.5392 333.274C72.6186 331.125 71.6966 328.597 71.7732 325.688C72.0129 324.359 72.7634 323.416 74.0249 322.857C80.682 321.733 87.2275 320.092 93.6616 317.934C93.6947 317.923 93.7254 317.906 93.7516 317.884C93.7778 317.862 93.7989 317.835 93.8135 317.804C93.8282 317.774 93.836 317.741 93.8365 317.707C93.837 317.674 93.8301 317.641 93.8163 317.611C90.9804 311.44 89.466 304.961 89.2729 298.175C89.2725 298.144 89.265 298.113 89.2508 298.084C89.2367 298.055 89.2161 298.03 89.1904 298.008C89.1648 297.987 89.1345 297.971 89.1015 297.96C89.0685 297.95 89.0334 297.945 88.9983 297.947C83.8025 298.218 79.72 298.526 76.751 298.87C70.0673 299.636 66.4892 296.802 66.0165 290.366C65.707 286.132 69.806 285.78 73.4458 285.602C78.1157 285.38 82.784 285.136 87.4505 284.868C87.5186 284.865 87.5832 284.838 87.6314 284.79C87.6795 284.742 87.7077 284.678 87.7102 284.61C87.7734 282.706 87.8383 279.295 87.9049 274.377C88.0447 263.761 89.1131 252.035 91.1202 240.904C92.1188 234.776 93.4402 228.704 95.0845 222.688C93.8513 204.819 92.2386 181.511 93.8663 161.575C94.958 152.964 96.9568 144.573 99.8626 136.402C100.665 134.614 101.472 132.831 102.284 131.052C109.494 115.256 123.019 106.768 140.828 109.509C150.032 110.931 158.689 113.411 166.801 116.952ZM109.863 199.901C110.366 201.577 110.441 203.269 110.088 204.978C110.048 205.156 110.099 205.219 110.243 205.166C110.392 205.112 111.975 201.805 112.215 201.363C116.359 194.723 120.949 188.401 125.985 182.399C128.964 179.083 131.958 175.785 134.967 172.502C138.522 168.62 143.15 165.625 148.642 167.465C152.197 168.655 152.407 172.656 150.574 175.457C149.739 175.937 149.033 176.584 148.457 177.401C148.363 177.533 148.233 177.633 148.083 177.688C140.374 180.584 134.662 187.629 129.54 194.174C116.034 211.423 107.117 233.13 104.042 254.733C102.644 264.574 101.4 274.669 101.885 284.605C101.915 285.253 102.256 285.592 102.908 285.622C106.699 285.793 110.404 285.97 114.022 286.152C116.349 286.266 118.416 286.777 118.81 289.211C119.299 292.255 116.993 296.296 113.857 296.832C111.378 297.252 108.878 297.524 106.358 297.65C105.316 297.858 104.155 297.865 102.873 297.67C103.146 302.684 104.313 307.488 106.373 312.083L107.292 314.567C107.319 314.64 107.362 314.703 107.415 314.744C107.468 314.786 107.527 314.804 107.581 314.795L108.24 314.691C111.21 314.466 114.062 313.779 116.798 312.628C118.672 311.723 120.45 311.743 122.13 312.688C123.006 313.789 123.538 314.858 123.728 315.896C124.911 322.396 117.757 323.571 113.318 324.87C113.242 324.893 113.174 324.925 113.121 324.964C113.067 325.003 113.028 325.047 113.009 325.093C112.959 325.202 112.992 325.283 113.108 325.336L112.215 325.688C111.928 325.566 111.572 325.665 111.146 325.986C111.872 329.202 113.438 332.496 115.844 335.867C120.891 342.931 124.47 347.762 126.584 350.36C126.83 350.664 127.165 350.655 127.588 350.335C130.35 353.207 133.855 356.261 138.102 359.497C149.493 368.167 161.84 374.368 175.144 378.1C187.04 381.706 198.607 384.276 209.844 385.81C237.489 389.583 266.452 390.015 294.506 386.589C301.007 385.79 307.872 384.258 314.363 383.098C333.395 379.687 353.416 373.583 369.018 362.904C373.372 359.922 377.921 356.07 382.664 351.346C390.083 343.954 395.955 335.599 400.069 325.881C400.08 325.854 400.084 325.824 400.083 325.795C400.081 325.766 400.072 325.737 400.058 325.712C400.043 325.686 400.023 325.665 399.999 325.649C399.975 325.633 399.948 325.622 399.919 325.619C396.567 325.139 394.257 324.572 392.989 323.918C389.329 322.039 386.997 318.558 388.535 314.493C390.592 309.054 400.428 313.323 404.218 314.408C404.263 314.422 404.31 314.425 404.357 314.42C404.404 314.414 404.449 314.399 404.49 314.376C404.532 314.352 404.568 314.321 404.598 314.283C404.627 314.245 404.649 314.202 404.662 314.155C406.193 308.873 407.297 303.505 407.972 298.052C407.976 298.015 407.973 297.979 407.963 297.944C407.952 297.909 407.935 297.877 407.911 297.85C407.888 297.822 407.859 297.8 407.826 297.784C407.794 297.769 407.758 297.76 407.723 297.759C401.122 297.521 393.413 299.628 392.949 290.396C392.784 287.089 394.577 285.746 397.817 285.532C401.382 285.294 404.957 285.084 408.541 284.903C408.608 284.899 408.671 284.87 408.717 284.822C408.763 284.775 408.79 284.711 408.791 284.645C408.951 260.831 403.948 236.259 392.295 215.529C384.949 202.459 375.517 190.631 364.001 180.044C362.806 178.946 361.406 178.098 359.802 177.5C358.297 175.53 357.457 173.53 357.28 171.501C357.707 169.656 358.703 168.331 360.271 167.524C363.477 166.414 366.341 166.957 368.864 169.156C368.654 169.308 368.561 169.503 368.584 169.741C368.589 169.808 368.613 169.878 368.654 169.947C368.695 170.017 370.125 171.266 370.195 171.325C371.314 172.291 370.996 172.134 371.984 173.221C373.277 174.639 375.005 175.318 376.278 176.712C378.325 178.943 380.692 181.779 383.378 185.22C384.386 186.509 386.024 188.12 387.312 189.871C388.805 191.898 390.687 193.901 392.075 195.691C392.784 196.609 395.36 200.456 396.449 200.352L401.267 206.535C401.37 206.664 401.435 206.647 401.462 206.485C401.581 205.751 401.422 204.849 401.477 204.204C402.665 189.915 401.876 177.882 400.064 163.186C399.727 160.469 398.987 156.874 397.842 152.402C396.194 143.839 393.473 133.586 386.343 127.364C385.884 126.964 384.448 126.304 382.035 125.385C380.367 124.437 378.473 124.101 376.353 124.379C356.701 126.947 338.358 133.403 321.108 142.972C312.563 147.712 305.361 151.941 299.499 155.66C296.538 157.539 294.296 158.595 290.717 158.153C286.446 157.631 282.194 156.972 277.96 156.175C277.486 156.086 276.987 156.284 276.582 156.106C275.743 155.739 275.139 155.635 274.25 155.977L260.895 154.777L251.209 154.648L242.541 155.074C239.715 155.108 236.914 155.362 234.138 155.838C229.505 156.635 227.169 157.035 227.129 157.038C223.424 157.544 217.922 158.947 213.893 157.742C213.307 157.567 212.698 157.482 212.065 157.489C210.508 156.587 206.47 154.116 199.953 150.077C192.747 145.611 183.863 140.901 173.301 135.946C169.001 133.457 164.413 131.684 159.536 130.626L150.424 127.934C146.34 126.479 142.16 125.433 137.883 124.795C131.756 123.883 124.377 124.82 120.932 130.676C117.387 136.71 115.445 142.615 113.548 149.873C111.326 158.347 109.703 167.296 109.643 176.077C109.627 178.54 109.464 184.108 109.154 192.781C109.068 195.191 109.304 197.564 109.863 199.901Z" fill="#281986"/>
<path d="M146.978 128.669L156.09 131.361L167.099 135.784C166.766 137.057 166.067 138.076 165.002 138.843C164.869 138.94 164.773 139.072 164.727 139.22C164.198 140.861 163.793 143.028 162.47 144.238C160.35 146.171 158.679 148.503 157.458 151.234C151.396 147.039 142.3 141.278 134.701 141.62C125.249 142.046 117.78 146.96 111.219 153.356C111.09 153.484 110.944 153.565 110.805 153.584L109.787 153.718C111.769 146.008 114.09 136.984 118.549 130.603C124.026 122.774 138.57 126.617 146.978 128.669Z" fill="#F3F0D8"/>
<path d="M378.588 126.121C381.001 127.04 382.437 127.699 382.897 128.099C390.026 134.321 392.747 144.575 394.395 153.138C394.621 153.878 394.542 154.237 394.155 154.213C394.089 154.209 394.02 154.181 393.957 154.134C393.894 154.086 393.839 154.019 393.796 153.941C393.516 153.428 393.19 153.019 392.817 152.711C386.936 147.837 378.378 142.23 370.515 141.441C363.5 140.732 355.666 144.178 349.964 148.095C351.163 146.31 351.018 144.748 349.53 143.41C349.267 143.175 349.142 142.707 349.156 142.007C349.15 141.998 349.12 141.975 349.071 141.941C349.021 141.907 348.956 141.865 348.886 141.823L347.108 140.737C347.012 140.678 346.917 140.622 346.842 140.579C346.766 140.536 346.714 140.507 346.694 140.499C346.494 140.532 346.409 140.448 346.439 140.246C346.451 140.168 346.44 140.088 346.407 140.016C346.375 139.944 346.322 139.883 346.255 139.84C345.366 139.285 343.748 138.65 344.003 137.376C344.213 136.344 344.048 135.64 343.544 134.783C343.447 134.62 343.41 134.446 343.439 134.297C343.575 133.563 343.297 133.246 342.605 133.345C342.596 133.347 342.587 133.344 342.579 133.339C342.571 133.333 342.565 133.324 342.56 133.312C342.556 133.3 342.553 133.286 342.553 133.271C342.553 133.256 342.556 133.241 342.56 133.226C342.58 133.163 342.585 133.1 342.575 133.037C349.302 130.449 356.958 128.39 365.542 126.86C370.345 126.003 374.694 125.757 378.588 126.121Z" fill="#F3F0D8"/>
<path d="M342.575 133.037C342.585 133.1 342.58 133.163 342.56 133.226C342.556 133.241 342.553 133.256 342.553 133.271C342.553 133.286 342.556 133.3 342.56 133.312C342.565 133.324 342.571 133.333 342.579 133.339C342.587 133.344 342.596 133.347 342.605 133.345C343.297 133.246 343.575 133.563 343.439 134.297C343.41 134.446 343.447 134.62 343.544 134.783C344.048 135.64 344.213 136.344 344.003 137.376C343.748 138.65 345.366 139.285 346.255 139.84C346.322 139.883 346.375 139.944 346.407 140.016C346.44 140.088 346.451 140.168 346.439 140.246C346.409 140.448 346.494 140.532 346.694 140.499C346.714 140.507 346.766 140.536 346.842 140.579C346.917 140.622 347.012 140.678 347.108 140.737L348.886 141.823C348.956 141.865 349.021 141.907 349.071 141.941C349.12 141.975 349.15 141.998 349.156 142.007C349.142 142.707 349.267 143.175 349.53 143.41C351.018 144.748 351.163 146.31 349.964 148.095C344.559 151.536 339.416 155.351 334.537 159.538C333.342 160.563 332.363 161.646 331.601 162.786C331.511 162.923 331.467 163.085 331.476 163.248C331.485 163.411 331.546 163.567 331.651 163.693C333.142 165.508 334.78 167.164 336.564 168.661C342.339 173.504 348.936 176.695 356.355 178.235C357.959 178.834 359.359 179.682 360.554 180.779C372.071 191.366 381.502 203.195 388.848 216.264C400.501 236.994 405.504 261.566 405.344 285.38C405.343 285.447 405.317 285.51 405.27 285.558C405.224 285.606 405.161 285.634 405.095 285.638C401.51 285.82 397.935 286.03 394.37 286.268C391.13 286.481 389.337 287.825 389.502 291.132C389.967 300.364 397.675 298.256 404.276 298.494C404.312 298.495 404.347 298.504 404.38 298.52C404.412 298.535 404.441 298.557 404.464 298.585C404.488 298.613 404.505 298.645 404.516 298.679C404.526 298.714 404.53 298.751 404.525 298.787C403.85 304.241 402.746 309.609 401.215 314.891C401.202 314.937 401.18 314.98 401.151 315.018C401.122 315.056 401.085 315.088 401.044 315.111C401.002 315.135 400.957 315.15 400.91 315.155C400.863 315.161 400.816 315.157 400.771 315.144C396.981 314.058 387.146 309.789 385.089 315.228C383.551 319.294 385.882 322.774 389.542 324.653C390.81 325.308 393.12 325.875 396.472 326.354C396.501 326.358 396.528 326.368 396.552 326.384C396.577 326.4 396.597 326.422 396.611 326.447C396.625 326.473 396.634 326.501 396.636 326.531C396.638 326.56 396.633 326.589 396.622 326.617C392.508 336.335 386.636 344.689 379.217 352.082C374.474 356.805 369.926 360.658 365.572 363.639C349.969 374.319 329.948 380.422 310.916 383.833C304.425 384.994 297.56 386.526 291.06 387.324C263.005 390.75 234.042 390.319 206.397 386.546C195.16 385.012 183.593 382.442 171.697 378.836C171.714 378.697 171.76 378.565 171.837 378.439C171.873 378.38 171.93 378.335 172 378.311C172.069 378.288 172.147 378.287 172.221 378.31C182.846 381.518 193.675 383.719 204.599 385.643C209.492 386.501 214.775 386.878 219.882 387.483C223.033 387.854 226.752 387.815 229.394 388.137C232.809 388.554 236.194 388.4 239.594 388.747C240.473 388.836 241.311 388.887 242.11 388.901C255.311 389.125 263.804 389.107 267.588 388.846C277.068 388.195 285.514 387.436 292.927 386.57C295.997 386.213 299.442 385.291 302.393 384.82C316.37 382.592 329.348 379.404 341.327 375.256C361.797 368.171 379.192 354.238 390.955 336.454C392.658 333.876 393.781 330.896 395.239 328.055C396.337 325.913 394.81 326.984 394.4 327.529C390.765 332.388 388.51 335.323 387.635 336.335C383.166 341.496 377.09 346.891 371.144 351.055C352.97 363.788 332.53 371.26 311.121 375.375C293.586 378.74 275.9 380.708 258.062 381.28C254.754 381.386 251.427 381.404 248.082 381.335C221.52 380.799 194.844 377.566 169.45 369.559C148.481 362.945 128.435 352.26 114.674 334.976C112.854 332.659 111.173 330.066 109.632 327.197C109.515 326.985 109.317 326.886 109.038 326.899L108.768 326.423L109.662 326.071C114.784 325.045 122.903 323.211 120.806 315.977C120.466 314.817 119.759 313.965 118.684 313.423C117.003 312.478 115.225 312.458 113.351 313.364C110.399 313.714 107.546 314.402 104.794 315.426L104.135 315.531C104.08 315.539 104.022 315.521 103.969 315.48C103.916 315.438 103.872 315.375 103.845 315.302L102.926 312.818L99.4265 298.405C100.708 298.6 101.87 298.594 102.912 298.385C105.128 298.789 107.34 298.8 109.547 298.42C112.443 297.924 114.397 296.311 115.408 293.581C116.966 289.396 114.884 286.59 110.715 286.397C106.884 286.221 103.073 286.035 99.2818 285.836C99.1886 285.831 99.1009 285.791 99.0368 285.724C98.9728 285.656 98.9371 285.567 98.9373 285.474C98.8973 273.595 99.8609 262.935 102.003 250.312C102.692 246.241 103.955 242.185 105.058 238.144C110.371 218.699 120.112 201.563 133.987 186.59C137.338 182.97 141.105 180.318 145.285 178.632C145.849 178.607 146.304 178.776 146.878 178.548C154.692 175.494 161.786 170.62 168.557 164.898C169.306 164.267 169.79 163.662 170.01 163.083C170.339 162.204 170.161 161.442 169.475 160.798C165.707 157.248 161.702 154.06 157.458 151.234C158.679 148.503 160.35 146.171 162.47 144.238C163.793 143.028 164.198 140.861 164.727 139.22C164.773 139.072 164.869 138.94 165.002 138.843C166.067 138.076 166.766 137.057 167.099 135.784L169.855 136.682C180.416 141.636 189.3 146.347 196.506 150.812C203.023 154.851 207.061 157.322 208.619 158.225C210.563 159.299 212.952 159.679 215.788 159.365C219.746 158.929 223.689 158.388 227.616 157.744C228.964 163.257 230.555 168.701 232.389 174.076C233.443 177.169 234.906 180.293 237.946 181.632C241.811 183.337 245.51 181.602 246.494 177.368C246.95 175.401 247.293 172.955 247.522 170.03C247.935 164.695 248.015 159.813 247.762 155.384L257.448 155.512C256.906 160.51 256.821 166.371 257.193 173.094C257.398 176.768 258.377 181.191 262.521 182.078C266.77 182.99 270.19 180.367 271.802 176.565C274.199 170.916 275.988 164.725 277.17 157.992C281.788 158.75 288.563 160.714 292.857 158.8C295.538 157.605 299.118 155.136 300.945 154.035C314.446 145.899 327.627 138.347 342.575 133.037ZM138.181 276.728C137.638 276.418 137.565 275.899 137.961 275.171C138.051 275.006 138.006 274.957 137.826 275.023C134.561 276.247 132.369 279.381 131.57 282.539C130.307 287.512 137.397 293.065 142.135 292.535C142.774 292.462 143.398 292.531 144.007 292.743C133.183 298.906 136.413 320.667 151.082 318.272C153.964 318.13 156.378 317.046 158.321 315.02C161.267 311.544 162.051 305.912 161.267 301.682C160.039 295.088 156.066 291.636 149.349 291.325C148.697 290.561 148.71 289.745 149.389 288.876C149.456 288.79 149.486 288.786 149.479 288.866L149.474 288.99C149.454 289.261 149.511 289.287 149.644 289.069C150.093 288.322 150.175 287.55 149.889 286.754C149.875 286.717 149.869 286.679 149.87 286.641C149.87 286.603 149.878 286.566 149.892 286.532C149.907 286.498 149.927 286.467 149.953 286.442C149.979 286.417 150.01 286.399 150.043 286.387C150.143 286.35 150.246 286.344 150.353 286.367C152.55 286.724 154.753 287.023 156.963 287.264C172.101 288.925 184.743 283.362 193.885 271.507C196.506 268.116 198.114 266.267 198.009 262.508C197.753 260.343 196.465 259.005 194.145 258.492C190.605 257.709 189.626 259.474 187.489 262.295C185.487 264.943 183.455 267.987 181.064 269.961C173.619 276.094 162.141 277.413 153.064 275.573C149.309 274.815 140.347 271.83 138.181 276.728ZM322.869 283.035C324.649 284.162 326.818 285.063 329.374 285.737C337.253 287.81 345.017 288.233 352.665 287.007C352.855 287.568 352.802 288.119 352.506 288.658C352.473 288.721 352.461 288.792 352.471 288.861C352.482 288.93 352.515 288.993 352.566 289.039C353.215 289.631 353.592 290.343 353.699 291.176C350.78 291.51 348.437 292.639 346.669 294.563C342.241 299.382 342.036 310.815 346.509 315.659C350.419 319.894 357.948 319.155 361.862 315.605C366.096 311.762 366.77 304.38 365.552 299.159C364.959 296.62 363.452 294.498 361.028 292.793C365.622 292.994 369.103 291.332 371.473 287.805C372.542 286.208 372.711 284.384 372.402 282.559C371.856 279.31 370.16 276.92 367.314 275.39C365.79 274.355 364.127 273.844 362.326 273.858C360.644 273.872 358.182 274.19 356.185 274.626C347.852 276.426 339.699 277.269 331.147 274.725C324.561 272.767 319.768 267.065 315.569 261.745C314.474 260.357 313.542 259.487 312.773 259.137C310.047 257.897 306.517 259.905 306.123 262.88C305.534 267.358 312.918 275.008 315.569 277.75C317.713 279.971 320.146 281.733 322.869 283.035ZM223.852 319.73C225.333 321.822 227.423 323.189 230.123 323.83C238.477 325.814 245.823 324.095 252.161 318.674C252.44 318.433 252.628 318.124 252.725 317.747C252.775 317.697 252.828 317.664 252.885 317.648C252.924 317.639 252.97 317.646 253.019 317.669C253.068 317.692 253.116 317.729 253.159 317.777C254.824 319.628 256.796 320.981 259.076 321.837C265.207 324.829 271.576 325.437 278.183 323.662C282.657 322.457 289.467 316.963 285.468 311.911C282.592 309.749 275.252 313.344 271.478 313.002C267.783 312.665 263.06 310.964 261.243 307.444C259.515 304.097 261.198 299.005 260.544 295.415C259.465 289.545 249.944 289.357 248.681 295.207C248.624 295.465 248.566 297.014 248.506 299.853C248.416 304.355 248.092 307.726 244.382 310.101C241.421 311.99 237.212 313.017 233.493 312.561C231.256 312.288 224.496 309.918 222.733 313.379C221.72 315.362 222.549 318.089 223.852 319.73Z" fill="#FEFEE6"/>
<path d="M394.395 153.138C395.54 157.61 396.281 161.204 396.617 163.921C398.429 178.617 399.218 190.651 398.03 204.94C397.975 205.584 398.135 206.487 398.015 207.221C397.988 207.383 397.923 207.399 397.82 207.27L393.002 201.087C389.514 196.44 384.864 190.528 379.052 183.352C374.842 178.15 370.297 173.662 365.417 169.891C362.894 167.693 360.03 167.149 356.824 168.26C356.891 168.137 356.896 168.023 356.839 167.918C356.809 167.862 356.751 167.823 356.678 167.808C356.605 167.794 356.522 167.804 356.445 167.838C354.518 168.665 353.647 170.131 353.834 172.236C354.01 174.266 354.851 176.265 356.355 178.235C348.936 176.695 342.339 173.504 336.564 168.661C334.78 167.164 333.142 165.508 331.651 163.693C331.546 163.567 331.485 163.411 331.476 163.248C331.467 163.085 331.511 162.923 331.601 162.786C332.363 161.646 333.342 160.563 334.537 159.538C339.416 155.351 344.559 151.536 349.964 148.095C355.666 144.178 363.5 140.732 370.515 141.441C378.378 142.23 386.936 147.837 392.817 152.711C393.19 153.019 393.516 153.428 393.796 153.941C393.839 154.019 393.894 154.086 393.957 154.134C394.02 154.181 394.089 154.209 394.155 154.213C394.542 154.237 394.621 153.878 394.395 153.138Z" fill="#FCC3B6"/>
<path d="M157.458 151.234C161.702 154.06 165.707 157.248 169.475 160.798C170.161 161.442 170.339 162.204 170.01 163.083C169.79 163.662 169.306 164.267 168.557 164.898C161.786 170.62 154.692 175.494 146.878 178.548C146.304 178.776 145.849 178.607 145.285 178.632L147.128 176.193C148.96 173.391 148.75 169.39 145.195 168.2C139.703 166.361 135.075 169.356 131.52 173.238C128.511 176.52 125.517 179.819 122.538 183.134C122.278 182.896 122.029 182.951 121.804 183.213C116.538 189.454 112.082 195.549 108.434 201.499C108.244 201.813 108.355 202.013 108.768 202.099C108.528 202.54 106.946 205.847 106.796 205.902C106.653 205.955 106.601 205.892 106.641 205.713C106.994 204.004 106.919 202.312 106.416 200.636C106.5 198.881 106.5 197.149 106.416 195.44C105.724 181.379 106.847 167.471 109.787 153.718L110.805 153.584C110.944 153.565 111.09 153.484 111.219 153.356C117.78 146.96 125.249 142.046 134.701 141.62C142.3 141.278 151.396 147.039 157.458 151.234Z" fill="#FCC3B6"/>
<path d="M247.429 153.716C247.682 158.145 247.602 163.027 247.19 168.362C246.96 171.288 246.617 173.734 246.161 175.7C245.178 179.934 241.478 181.67 237.613 179.964C234.573 178.626 233.11 175.502 232.056 172.408C230.222 167.033 228.631 161.589 227.283 156.076C231.068 155.27 234.894 154.625 238.762 154.142L247.429 153.716Z" fill="#281986"/>
<path d="M257.722 153.716L271.078 154.916L277.444 156.195C276.262 162.928 274.473 169.119 272.077 174.768C270.464 178.571 267.044 181.194 262.795 180.282C258.651 179.394 257.673 174.971 257.468 171.297C257.095 164.574 257.18 158.714 257.722 153.716Z" fill="#281986"/>
<path d="M198.009 262.508C197.407 264.865 196.549 266.844 195.438 268.443C193.665 270.997 190.909 274.532 188.498 276.773C179.995 284.691 169.34 287.735 157.717 286.778C152.072 286.316 146.535 285.293 141.106 283.709C138.933 281.875 137.958 279.548 138.181 276.728C140.347 271.83 149.309 274.815 153.064 275.573C162.141 277.413 173.619 276.094 181.064 269.961C183.455 267.987 185.487 264.943 187.489 262.295C189.626 259.474 190.605 257.709 194.145 258.492C196.465 259.005 197.753 260.343 198.009 262.508Z" fill="#281986"/>
<path d="M367.314 275.39L367.274 277.804C365.956 282.896 362.866 284.468 357.693 285.504C353.359 286.377 349.37 286.669 344.947 286.924C342.85 287.048 340.069 286.892 337.677 286.674C332.794 286.231 328.8 285.602 323.811 283.618C316.821 280.148 314.824 277.824 311.162 273.858C311.162 273.858 305.534 267.358 306.123 262.88C306.517 259.905 310.047 257.897 312.773 259.137C313.542 259.487 314.474 260.357 315.569 261.745C319.768 267.065 324.561 272.767 331.147 274.725C339.699 277.269 347.852 276.426 356.185 274.626C358.182 274.19 360.644 273.872 362.326 273.858C364.127 273.844 365.79 274.355 367.314 275.39Z" fill="#281986"/>
<path d="M138.181 276.728C137.958 279.548 138.933 281.875 141.106 283.709C143.902 285.564 147.217 285.812 150.353 286.367C150.246 286.344 150.143 286.35 150.043 286.387C150.01 286.399 149.979 286.417 149.953 286.442C149.927 286.467 149.907 286.498 149.892 286.532C149.878 286.566 149.87 286.603 149.87 286.641C149.869 286.679 149.875 286.717 149.889 286.754C150.175 287.55 150.093 288.322 149.644 289.069C149.511 289.287 149.454 289.261 149.474 288.99L149.479 288.866C149.486 288.786 149.456 288.79 149.389 288.876C148.71 289.745 148.697 290.561 149.349 291.325L144.007 292.743C143.398 292.531 142.774 292.462 142.135 292.535C137.397 293.065 130.307 287.512 131.57 282.539C132.369 279.381 134.561 276.247 137.826 275.023C138.006 274.957 138.051 275.006 137.961 275.171C137.565 275.899 137.638 276.418 138.181 276.728Z" fill="#E8D9C2"/>
<path d="M361.028 292.793C358.768 291.725 356.325 291.186 353.699 291.176C353.592 290.343 353.215 289.631 352.566 289.039C352.515 288.993 352.482 288.93 352.471 288.861C352.461 288.792 352.473 288.721 352.506 288.658C352.802 288.119 352.855 287.568 352.665 287.007C359.026 285.777 366.271 285.742 367.274 277.804L367.314 275.39C370.16 276.92 371.856 279.31 372.402 282.559C372.711 284.384 372.542 286.208 371.473 287.805C369.103 291.332 365.622 292.994 361.028 292.793Z" fill="#E6DEC7"/>
<path d="M285.468 311.911C285.98 313.256 286.167 314.458 286.027 315.516C285.533 319.294 282.412 321.679 278.927 322.735C272.34 324.731 265.723 324.432 259.076 321.837C256.796 320.981 254.824 319.628 253.159 317.777C253.116 317.729 253.068 317.692 253.019 317.669C252.97 317.646 252.924 317.639 252.885 317.648C252.828 317.664 252.775 317.697 252.725 317.747C252.688 317.674 252.625 317.628 252.535 317.608C252.48 317.596 252.417 317.605 252.353 317.635C252.29 317.665 252.228 317.714 252.176 317.777C247.383 323.384 238.346 324.683 231.236 323.454C228.723 323.017 226.733 322.055 225.265 320.568C224.835 320.137 224.775 319.051 223.852 319.73C222.549 318.089 221.72 315.362 222.733 313.379C224.496 309.918 231.256 312.288 233.493 312.561C237.212 313.017 241.421 311.99 244.382 310.101C248.092 307.726 248.416 304.355 248.506 299.853C248.566 297.014 248.624 295.465 248.681 295.207C249.944 289.357 259.465 289.545 260.544 295.415C261.198 299.005 259.515 304.097 261.243 307.444C263.06 310.964 267.783 312.665 271.478 313.002C275.252 313.344 282.592 309.749 285.468 311.911Z" fill="#281986"/>
<path d="M353.699 291.176C356.325 291.186 358.768 291.725 361.028 292.793C363.452 294.498 364.959 296.62 365.552 299.159C366.77 304.38 366.096 311.762 361.862 315.605C357.948 319.155 350.419 319.894 346.509 315.659C342.036 310.815 342.241 299.382 346.669 294.563C348.437 292.639 350.78 291.51 353.699 291.176Z" fill="#FF8383"/>
<path d="M149.349 291.325C156.066 291.636 160.039 295.088 161.267 301.682C162.051 305.912 161.267 311.544 158.321 315.02C156.141 316.596 153.728 317.681 151.082 318.272C136.413 320.667 133.183 298.906 144.007 292.743L149.349 291.325Z" fill="#FF8383"/>
<path d="M108.768 326.423L109.038 326.899C110.253 329.944 111.952 332.687 114.135 335.13C114.38 335.403 114.655 335.422 114.674 334.976C128.435 352.26 148.481 362.945 169.45 369.559C194.844 377.566 221.52 380.799 248.082 381.335C251.427 381.404 254.754 381.386 258.062 381.28C275.9 380.708 293.586 378.74 311.121 375.375C332.53 371.26 352.97 363.788 371.144 351.055C377.09 346.891 383.166 341.496 387.635 336.335C388.51 335.323 390.765 332.388 394.4 327.529C394.81 326.984 396.337 325.913 395.239 328.055C393.781 330.896 392.658 333.876 390.955 336.454C379.192 354.238 361.797 368.171 341.327 375.256C329.348 379.404 316.37 382.592 302.393 384.82C299.442 385.291 295.997 386.213 292.927 386.57C285.514 387.436 277.068 388.195 267.588 388.846C263.804 389.107 255.311 389.125 242.11 388.901C241.311 388.887 240.473 388.836 239.594 388.747C236.194 388.4 232.809 388.554 229.394 388.137C226.752 387.815 223.033 387.854 219.882 387.483C214.775 386.878 209.492 386.501 204.599 385.643C193.675 383.719 182.846 381.518 172.221 378.31C172.147 378.287 172.069 378.288 172 378.311C171.93 378.335 171.873 378.38 171.837 378.439C171.76 378.565 171.714 378.697 171.697 378.836C158.393 375.104 146.046 368.903 134.656 360.233C130.408 356.997 126.903 353.943 124.141 351.07C117.351 343.45 111.889 335.864 107.7 326.721C108.126 326.4 108.482 326.301 108.768 326.423Z" fill="#C9C0B1"/>
</svg>
