<svg width="512" height="512" viewBox="0 0 512 512" fill="none" xmlns="http://www.w3.org/2000/svg">
<rect width="512" height="512" fill="#FDEEF5"/>
<path d="M172.187 124.492C172.187 124.492 192.553 133.86 192.889 133.99C192.615 134.261 193.144 134.13 192.889 133.99C202.577 139.213 211.845 145.53 220.382 152.516C220.44 152.563 220.506 152.598 220.578 152.618C220.649 152.638 220.724 152.643 220.798 152.632C224.716 152.081 228.624 151.505 232.521 150.904C235.652 150.423 238.936 150.208 242.146 149.853C251.047 149.099 259.949 149.099 268.854 149.853C275.145 150.516 281.406 151.41 287.636 152.534C287.777 152.559 287.921 152.554 288.06 152.52C288.2 152.485 288.33 152.422 288.443 152.333C295.669 146.681 303.362 141.187 311.414 136.684C326.8 128.079 342.932 120.577 360.562 117.681C378.261 114.771 392.35 122.955 399.362 139.305C401.43 144.655 402.746 149.823 404.018 153.866C404.018 153.866 405.077 158.824 405.133 159.303C406.094 167.453 406.639 175.628 406.77 183.828C406.831 187.827 406.495 192.279 406.378 196.52C406.168 203.831 405.86 210.002 405.66 216.748C405.678 219.494 405.518 222.272 405.179 225.081C407.456 236.66 409.355 248.298 410.875 259.996C410.891 260.114 411.037 261.673 411.314 264.672C411.457 266.229 411.701 267.775 412.046 269.31C412.426 273.717 412.519 278.15 412.326 282.61C412.325 282.641 412.33 282.671 412.34 282.7C412.35 282.729 412.366 282.755 412.387 282.778C412.407 282.801 412.431 282.819 412.459 282.832C412.486 282.844 412.516 282.852 412.546 282.853C416.427 283.012 420.052 283.245 424.171 283.278C428.92 283.315 435.573 283.367 433.665 290.565C432.035 293.412 429.777 294.964 426.891 295.223C424.384 295.45 421.158 295.246 417.211 294.611C416.716 294.53 416.248 294.653 415.807 294.98C415.004 294.942 411.603 294.256 411.589 294.882C411.527 294.876 411.463 294.888 411.398 294.919C411.353 294.94 411.314 294.979 411.285 295.03C411.256 295.081 411.239 295.143 411.235 295.209C410.942 300.652 410.028 305.994 408.492 311.232C408.33 312.069 408.017 312.86 407.554 313.605C407.524 313.653 407.505 313.708 407.499 313.765C407.494 313.821 407.501 313.879 407.521 313.931C407.541 313.984 407.573 314.031 407.614 314.068C407.656 314.106 407.705 314.133 407.759 314.147L421.834 317.856C422.761 318.46 423.764 318.831 424.843 318.968C426.401 319.164 427.253 319.288 427.399 319.341C429.262 320.036 429.86 321.489 429.191 323.7C427.572 329.044 423.196 330.272 418.228 329.203C413.821 328.259 409.453 327.147 405.123 325.867L403.024 325.582C401.593 329.251 400.326 332.093 399.222 334.108C391.854 347.549 381.836 358.419 369.169 366.719C360.865 372.161 351.744 377.057 342.577 380.126C332.897 383.368 325.881 385.068 317.413 387.32C315.533 387.82 306.035 389.45 304.076 389.828L274.732 392.996L261.151 393.967C243.377 394.21 225.457 393.106 207.39 390.655C198.27 389.422 189.896 387.413 181.214 385.325C176.441 384.176 171.893 382.475 167.274 380.831C140.757 371.386 118.337 352.957 108.316 325.746C108.295 325.689 108.252 325.642 108.196 325.612C108.14 325.583 108.074 325.572 108.008 325.582L104.947 326.077C102.158 326.654 99.413 327.396 96.7134 328.306C93.0186 329.544 89.5804 330.478 85.9789 328.306C84.1844 326.281 83.3229 323.899 83.3944 321.158C83.6183 319.907 84.3196 319.017 85.4984 318.491C91.7186 317.432 97.8346 315.886 103.846 313.852C103.877 313.843 103.906 313.827 103.931 313.806C103.955 313.785 103.975 313.759 103.988 313.73C104.002 313.702 104.009 313.671 104.01 313.639C104.01 313.608 104.004 313.577 103.991 313.549C101.341 307.734 99.9262 301.63 99.7458 295.237C99.7454 295.207 99.7384 295.178 99.7252 295.151C99.7119 295.124 99.6927 295.099 99.6688 295.079C99.6448 295.059 99.6165 295.044 99.5856 295.034C99.5548 295.024 99.522 295.02 99.4892 295.022C94.6343 295.277 90.8198 295.567 88.0456 295.891C81.8004 296.613 78.4571 293.943 78.0154 287.879C77.7262 283.89 81.5563 283.558 84.9572 283.39C89.3207 283.181 93.6826 282.951 98.043 282.699C98.1066 282.696 98.167 282.67 98.212 282.625C98.257 282.58 98.2833 282.519 98.2856 282.456C98.3447 280.662 98.4054 277.448 98.4676 272.814C98.5982 262.812 99.5965 251.765 101.472 241.277C102.405 235.503 103.64 229.782 105.176 224.114C104.024 207.279 102.517 185.318 104.038 166.535C105.058 158.422 106.926 150.516 109.641 142.818C110.39 141.133 111.144 139.453 111.903 137.777C118.64 122.894 131.278 114.897 147.918 117.48C156.518 118.819 164.607 121.156 172.187 124.492ZM118.985 202.645C119.455 204.224 119.525 205.818 119.195 207.428C119.158 207.596 119.206 207.655 119.34 207.606C119.479 207.554 120.958 204.438 121.182 204.023C125.054 197.766 129.343 191.81 134.049 186.154C136.832 183.031 139.63 179.923 142.441 176.83C145.763 173.173 150.088 170.351 155.219 172.084C158.541 173.205 158.737 176.975 157.025 179.615C156.244 180.066 155.585 180.676 155.047 181.446C154.959 181.57 154.837 181.665 154.697 181.717C147.494 184.445 142.157 191.083 137.37 197.249C124.751 213.501 116.419 233.952 113.545 254.306C112.239 263.579 111.078 273.09 111.53 282.451C111.558 283.062 111.877 283.381 112.486 283.409C116.029 283.571 119.49 283.737 122.871 283.909C125.045 284.016 126.976 284.497 127.345 286.791C127.802 289.659 125.647 293.466 122.717 293.971C120.4 294.366 118.064 294.623 115.71 294.742C114.737 294.938 113.651 294.944 112.454 294.76C112.709 299.485 113.799 304.011 115.724 308.34L116.582 310.68C116.608 310.749 116.648 310.808 116.698 310.847C116.747 310.887 116.802 310.904 116.853 310.895L117.469 310.797C120.243 310.585 122.908 309.938 125.465 308.854C127.216 308.001 128.877 308.019 130.447 308.91C131.265 309.947 131.763 310.955 131.94 311.932C133.046 318.057 126.361 319.164 122.213 320.388C122.142 320.409 122.079 320.44 122.029 320.476C121.978 320.513 121.943 320.555 121.924 320.598C121.877 320.701 121.908 320.777 122.017 320.827L121.182 321.158C120.915 321.043 120.582 321.137 120.184 321.439C120.862 324.469 122.325 327.572 124.574 330.749C129.289 337.404 132.634 341.956 134.609 344.403C134.839 344.69 135.151 344.682 135.546 344.38C138.128 347.086 141.403 349.964 145.371 353.013C156.014 361.182 167.551 367.024 179.982 370.54C191.098 373.938 201.905 376.359 212.405 377.804C238.236 381.359 265.299 381.765 291.512 378.537C297.586 377.785 304.001 376.342 310.066 375.249C327.849 372.035 346.557 366.284 361.135 356.222C365.203 353.413 369.453 349.783 373.885 345.333C380.818 338.368 386.304 330.497 390.148 321.341C390.158 321.315 390.163 321.287 390.161 321.259C390.159 321.232 390.151 321.205 390.138 321.181C390.124 321.157 390.106 321.137 390.083 321.121C390.061 321.106 390.035 321.096 390.008 321.093C386.876 320.641 384.718 320.107 383.533 319.491C380.113 317.72 377.935 314.441 379.372 310.61C381.294 305.486 390.484 309.508 394.025 310.531C394.067 310.543 394.111 310.547 394.155 310.542C394.199 310.537 394.241 310.522 394.28 310.5C394.318 310.478 394.352 310.448 394.38 310.413C394.408 310.377 394.428 310.336 394.44 310.293C395.871 305.316 396.902 300.259 397.533 295.12C397.537 295.086 397.534 295.051 397.524 295.019C397.514 294.986 397.498 294.956 397.476 294.93C397.454 294.904 397.427 294.883 397.397 294.868C397.366 294.853 397.333 294.845 397.3 294.844C391.132 294.62 383.929 296.605 383.496 287.907C383.342 284.791 385.016 283.526 388.044 283.325C391.375 283.1 394.715 282.903 398.065 282.731C398.127 282.728 398.186 282.701 398.229 282.656C398.272 282.611 398.297 282.551 398.298 282.488C398.447 260.052 393.773 236.9 382.884 217.369C376.02 205.055 367.208 193.911 356.447 183.936C355.33 182.902 354.023 182.103 352.523 181.539C351.118 179.683 350.332 177.799 350.168 175.887C350.566 174.149 351.497 172.9 352.962 172.14C355.957 171.094 358.633 171.606 360.991 173.677C360.795 173.82 360.708 174.004 360.73 174.228C360.734 174.292 360.756 174.358 360.795 174.423C360.834 174.489 362.169 175.666 362.235 175.722C363.28 176.631 362.983 176.483 363.906 177.508C365.115 178.844 366.729 179.484 367.919 180.796C369.831 182.899 372.043 185.571 374.552 188.813C375.495 190.027 377.025 191.545 378.229 193.194C379.623 195.105 381.382 196.992 382.679 198.679C383.342 199.543 385.749 203.168 386.766 203.07L391.268 208.895C391.364 209.016 391.425 209.001 391.45 208.848C391.562 208.157 391.412 207.307 391.464 206.699C392.574 193.236 391.837 181.899 390.143 168.053C389.829 165.493 389.137 162.106 388.067 157.892C386.528 149.825 383.985 140.164 377.324 134.302C376.894 133.925 375.552 133.304 373.297 132.438C371.739 131.544 369.97 131.228 367.989 131.49C349.626 133.909 332.487 139.992 316.368 149.007C308.385 153.473 301.654 157.458 296.178 160.962C293.411 162.732 291.316 163.727 287.971 163.311C283.981 162.819 280.008 162.198 276.052 161.447C275.609 161.363 275.142 161.55 274.764 161.382C273.981 161.036 273.416 160.938 272.586 161.261L260.106 160.13L251.056 160.009L242.957 160.41C240.317 160.441 237.7 160.681 235.106 161.13C230.776 161.88 228.593 162.257 228.556 162.26C225.094 162.737 219.953 164.059 216.188 162.924C215.641 162.758 215.072 162.679 214.481 162.685C213.026 161.835 209.253 159.507 203.163 155.702C196.43 151.494 188.129 147.056 178.261 142.388C174.242 140.043 169.955 138.372 165.399 137.376L156.885 134.839C153.069 133.469 149.162 132.483 145.166 131.882C139.442 131.022 132.547 131.905 129.328 137.422C126.015 143.107 124.201 148.671 122.428 155.51C120.352 163.493 118.836 171.925 118.78 180.198C118.764 182.519 118.612 187.765 118.323 195.936C118.242 198.207 118.462 200.443 118.985 202.645Z" fill="#2E2E44"/>
<path d="M153.664 135.532L162.178 138.068L172.465 142.235C172.154 143.434 171.501 144.395 170.506 145.118C170.381 145.208 170.291 145.333 170.249 145.473C169.754 147.019 169.377 149.06 168.14 150.2C166.159 152.022 164.598 154.219 163.457 156.792C157.793 152.84 149.293 147.411 142.193 147.734C133.361 148.135 126.382 152.765 120.252 158.791C120.132 158.912 119.995 158.988 119.865 159.006L118.913 159.132C120.766 151.868 122.935 143.366 127.101 137.354C132.219 129.978 145.808 133.598 153.664 135.532Z" fill="#F3F0D8"/>
<path d="M370.077 133.131C372.332 133.997 373.674 134.618 374.103 134.995C380.765 140.857 383.307 150.518 384.847 158.585C385.058 159.283 384.984 159.621 384.623 159.599C384.56 159.595 384.497 159.569 384.438 159.524C384.379 159.479 384.327 159.416 384.287 159.342C384.026 158.859 383.721 158.473 383.373 158.184C377.877 153.592 369.881 148.308 362.533 147.565C355.979 146.897 348.659 150.144 343.332 153.835C344.451 152.153 344.316 150.681 342.926 149.42C342.68 149.199 342.563 148.758 342.576 148.098C342.571 148.09 342.543 148.068 342.497 148.036C342.45 148.004 342.389 147.965 342.324 147.925L340.663 146.902C340.573 146.847 340.484 146.794 340.414 146.753C340.343 146.712 340.294 146.686 340.276 146.678C340.089 146.709 340.01 146.63 340.038 146.44C340.049 146.366 340.039 146.291 340.008 146.223C339.977 146.155 339.928 146.097 339.865 146.057C339.035 145.533 337.523 144.935 337.761 143.735C337.957 142.763 337.803 142.1 337.332 141.292C337.242 141.139 337.207 140.975 337.234 140.834C337.362 140.143 337.102 139.844 336.455 139.937C336.446 139.939 336.438 139.937 336.431 139.931C336.423 139.926 336.417 139.917 336.413 139.906C336.409 139.895 336.407 139.882 336.407 139.868C336.407 139.854 336.409 139.839 336.413 139.825C336.432 139.766 336.436 139.707 336.427 139.647C342.713 137.209 349.866 135.269 357.887 133.827C362.375 133.02 366.438 132.788 370.077 133.131Z" fill="#F3F0D8"/>
<path d="M336.427 139.647C336.436 139.707 336.432 139.766 336.413 139.825C336.409 139.839 336.407 139.854 336.407 139.868C336.407 139.882 336.409 139.895 336.413 139.906C336.417 139.917 336.423 139.926 336.431 139.931C336.438 139.937 336.446 139.939 336.455 139.937C337.102 139.844 337.362 140.143 337.234 140.834C337.207 140.975 337.242 141.139 337.332 141.292C337.803 142.1 337.957 142.763 337.761 143.735C337.523 144.935 339.035 145.533 339.865 146.057C339.928 146.097 339.977 146.155 340.008 146.223C340.039 146.291 340.049 146.366 340.038 146.44C340.01 146.63 340.089 146.709 340.276 146.678C340.294 146.686 340.343 146.712 340.414 146.753C340.484 146.794 340.573 146.847 340.663 146.902L342.324 147.925C342.389 147.965 342.45 148.004 342.497 148.036C342.543 148.068 342.571 148.09 342.576 148.098C342.563 148.758 342.68 149.199 342.926 149.42C344.316 150.681 344.451 152.153 343.332 153.835C338.281 157.076 333.476 160.67 328.916 164.616C327.8 165.582 326.885 166.602 326.173 167.676C326.089 167.805 326.048 167.957 326.057 168.111C326.065 168.265 326.122 168.412 326.22 168.531C327.613 170.241 329.143 171.801 330.81 173.212C336.206 177.774 342.37 180.781 349.303 182.232C350.802 182.796 352.11 183.595 353.226 184.629C363.987 194.604 372.8 205.748 379.664 218.062C390.552 237.593 395.227 260.745 395.078 283.181C395.077 283.244 395.052 283.304 395.009 283.349C394.965 283.394 394.907 283.421 394.844 283.424C391.495 283.596 388.154 283.793 384.824 284.018C381.796 284.218 380.121 285.484 380.275 288.6C380.709 297.298 387.912 295.313 394.079 295.537C394.113 295.538 394.146 295.546 394.176 295.561C394.206 295.576 394.233 295.597 394.255 295.623C394.277 295.649 394.294 295.679 394.304 295.712C394.313 295.744 394.316 295.779 394.313 295.813C393.681 300.951 392.65 306.009 391.22 310.986C391.207 311.029 391.187 311.07 391.159 311.106C391.132 311.141 391.098 311.171 391.059 311.193C391.021 311.215 390.978 311.229 390.934 311.235C390.891 311.24 390.846 311.236 390.804 311.224C387.263 310.201 378.073 306.179 376.151 311.303C374.714 315.134 376.893 318.413 380.312 320.184C381.497 320.8 383.656 321.334 386.788 321.786C386.814 321.789 386.84 321.799 386.863 321.814C386.885 321.83 386.904 321.85 386.917 321.874C386.931 321.898 386.939 321.925 386.941 321.952C386.942 321.98 386.938 322.008 386.928 322.034C383.083 331.19 377.597 339.061 370.665 346.026C366.233 350.476 361.983 354.106 357.915 356.915C343.336 366.977 324.629 372.728 306.845 375.942C300.781 377.035 294.366 378.478 288.292 379.23C262.078 382.458 235.016 382.052 209.185 378.497C198.685 377.052 187.877 374.631 176.762 371.233C176.777 371.102 176.821 370.978 176.892 370.859C176.925 370.803 176.979 370.761 177.044 370.739C177.109 370.717 177.182 370.716 177.251 370.738C187.179 373.76 197.298 375.834 207.505 377.647C212.077 378.455 217.013 378.81 221.785 379.38C224.729 379.73 228.204 379.693 230.672 379.996C233.863 380.389 237.026 380.244 240.203 380.571C241.024 380.655 241.808 380.703 242.554 380.716C254.889 380.928 262.825 380.911 266.361 380.665C275.218 380.051 283.11 379.336 290.037 378.52C292.906 378.184 296.125 377.315 298.882 376.871C311.941 374.772 324.067 371.769 335.261 367.86C354.388 361.185 370.641 348.058 381.633 331.302C383.223 328.872 384.273 326.065 385.635 323.388C386.662 321.37 385.234 322.379 384.852 322.893C381.455 327.471 379.348 330.237 378.53 331.19C374.355 336.052 368.677 341.135 363.121 345.059C346.14 357.055 327.041 364.095 307.036 367.972C290.652 371.143 274.127 372.997 257.46 373.536C254.368 373.636 251.26 373.653 248.134 373.587C223.315 373.083 198.389 370.037 174.662 362.493C155.069 356.261 136.338 346.194 123.481 329.91C121.779 327.726 120.209 325.283 118.769 322.58C118.66 322.381 118.475 322.287 118.214 322.3L117.962 321.851L118.797 321.52C123.583 320.553 131.169 318.824 129.209 312.009C128.892 310.916 128.231 310.114 127.227 309.603C125.656 308.712 123.995 308.694 122.244 309.547C119.486 309.877 116.82 310.525 114.248 311.49L113.632 311.588C113.582 311.597 113.527 311.58 113.477 311.54C113.428 311.501 113.387 311.442 113.362 311.373L112.503 309.033L109.233 295.453C110.431 295.637 111.516 295.631 112.489 295.435C114.561 295.814 116.628 295.825 118.69 295.467C121.395 295 123.221 293.48 124.166 290.908C125.622 286.965 123.677 284.321 119.781 284.139C116.201 283.974 112.64 283.798 109.098 283.611C109.011 283.606 108.929 283.568 108.869 283.505C108.809 283.441 108.776 283.357 108.776 283.27C108.739 272.077 109.639 262.034 111.64 250.14C112.284 246.305 113.465 242.484 114.496 238.677C119.459 220.356 128.561 204.211 141.526 190.103C144.657 186.693 148.177 184.194 152.083 182.606C152.61 182.582 153.035 182.741 153.571 182.526C160.872 179.649 167.501 175.057 173.827 169.666C174.527 169.071 174.979 168.501 175.185 167.956C175.493 167.128 175.326 166.41 174.686 165.803C171.165 162.458 167.422 159.454 163.457 156.792C164.598 154.219 166.159 152.022 168.14 150.2C169.377 149.06 169.754 147.019 170.249 145.473C170.291 145.333 170.381 145.208 170.506 145.118C171.501 144.395 172.154 143.434 172.465 142.235L175.04 143.081C184.909 147.749 193.209 152.187 199.943 156.394C206.032 160.2 209.805 162.528 211.261 163.378C213.077 164.39 215.31 164.749 217.96 164.453C221.658 164.042 225.342 163.532 229.011 162.925C230.271 168.12 231.758 173.249 233.471 178.313C234.456 181.228 235.823 184.171 238.664 185.432C242.275 187.039 245.731 185.404 246.651 181.415C247.077 179.562 247.397 177.257 247.612 174.501C247.997 169.474 248.072 164.875 247.835 160.702L256.886 160.823C256.379 165.532 256.3 171.053 256.648 177.388C256.839 180.849 257.754 185.016 261.626 185.852C265.596 186.712 268.791 184.241 270.298 180.658C272.538 175.336 274.209 169.502 275.313 163.159C279.629 163.873 285.959 165.723 289.971 163.92C292.476 162.794 295.821 160.468 297.529 159.431C310.144 151.765 322.46 144.651 336.427 139.647ZM145.444 275.03C144.937 274.737 144.869 274.248 145.239 273.563C145.323 273.407 145.281 273.361 145.113 273.423C142.062 274.577 140.014 277.529 139.268 280.505C138.087 285.19 144.712 290.422 149.139 289.922C149.736 289.854 150.319 289.919 150.889 290.118C140.774 295.925 143.793 316.428 157.499 314.172C160.192 314.038 162.447 313.016 164.264 311.107C167.016 307.832 167.748 302.526 167.016 298.541C165.868 292.328 162.156 289.075 155.88 288.782C155.271 288.063 155.283 287.294 155.918 286.475C155.98 286.394 156.008 286.391 156.002 286.465L155.997 286.582C155.978 286.838 156.031 286.862 156.155 286.657C156.575 285.953 156.652 285.226 156.384 284.475C156.372 284.441 156.366 284.405 156.366 284.369C156.367 284.333 156.374 284.298 156.388 284.266C156.401 284.234 156.42 284.205 156.445 284.182C156.469 284.159 156.497 284.141 156.529 284.13C156.622 284.095 156.718 284.089 156.818 284.111C158.871 284.447 160.93 284.729 162.995 284.957C177.139 286.521 188.952 281.28 197.494 270.111C199.943 266.916 201.445 265.173 201.347 261.632C201.108 259.592 199.904 258.331 197.736 257.848C194.429 257.11 193.514 258.773 191.518 261.431C189.647 263.926 187.748 266.794 185.513 268.653C178.558 274.432 167.832 275.674 159.351 273.941C155.843 273.227 147.469 270.414 145.444 275.03ZM318.014 280.972C319.678 282.034 321.704 282.882 324.092 283.518C331.454 285.47 338.708 285.869 345.855 284.714C346.033 285.243 345.983 285.762 345.706 286.269C345.675 286.329 345.664 286.396 345.674 286.461C345.684 286.526 345.715 286.585 345.762 286.629C346.369 287.186 346.722 287.857 346.821 288.642C344.094 288.957 341.904 290.02 340.253 291.833C336.115 296.373 335.923 307.146 340.103 311.71C343.756 315.699 350.791 315.003 354.449 311.658C358.405 308.038 359.034 301.082 357.896 296.163C357.343 293.771 355.934 291.772 353.67 290.165C357.962 290.355 361.215 288.789 363.429 285.466C364.427 283.962 364.586 282.242 364.297 280.523C363.787 277.462 362.202 275.21 359.543 273.768C358.119 272.794 356.565 272.313 354.882 272.325C353.31 272.339 351.01 272.638 349.144 273.049C341.358 274.745 333.74 275.539 325.748 273.143C319.595 271.297 315.117 265.925 311.193 260.913C310.17 259.605 309.299 258.786 308.581 258.456C306.033 257.288 302.735 259.18 302.367 261.983C301.816 266.201 308.716 273.409 311.193 275.992C313.196 278.085 315.47 279.745 318.014 280.972ZM225.494 315.545C226.878 317.516 228.831 318.804 231.353 319.408C239.16 321.277 246.024 319.657 251.945 314.55C252.207 314.323 252.382 314.031 252.473 313.676C252.519 313.63 252.569 313.599 252.622 313.583C252.659 313.575 252.702 313.582 252.747 313.603C252.793 313.625 252.838 313.66 252.878 313.704C254.434 315.448 256.276 316.724 258.407 317.53C264.136 320.349 270.087 320.922 276.26 319.249C280.44 318.114 286.804 312.938 283.067 308.178C280.38 306.141 273.522 309.528 269.995 309.206C266.543 308.888 262.13 307.286 260.431 303.969C258.817 300.816 260.389 296.018 259.778 292.636C258.771 287.105 249.874 286.928 248.694 292.44C248.641 292.683 248.587 294.142 248.531 296.817C248.447 301.059 248.143 304.235 244.677 306.473C241.911 308.253 237.978 309.22 234.502 308.79C232.412 308.533 226.096 306.3 224.449 309.561C223.502 311.429 224.276 313.999 225.494 315.545Z" fill="#FEFEE6"/>
<path d="M384.847 158.585C385.917 162.799 386.609 166.186 386.923 168.746C388.616 182.592 389.353 193.929 388.243 207.392C388.192 208 388.341 208.85 388.229 209.541C388.204 209.694 388.144 209.709 388.047 209.588L383.545 203.763C380.286 199.384 375.941 193.814 370.511 187.053C366.577 182.151 362.33 177.923 357.77 174.37C355.413 172.299 352.736 171.787 349.741 172.833C349.804 172.718 349.808 172.611 349.755 172.511C349.727 172.458 349.673 172.422 349.604 172.408C349.536 172.394 349.459 172.404 349.387 172.436C347.586 173.215 346.773 174.596 346.947 176.58C347.112 178.492 347.897 180.376 349.303 182.232C342.37 180.781 336.206 177.774 330.81 173.212C329.143 171.801 327.613 170.241 326.22 168.531C326.122 168.412 326.065 168.265 326.057 168.111C326.048 167.957 326.089 167.805 326.173 167.676C326.885 166.602 327.8 165.582 328.916 164.616C333.476 160.67 338.281 157.076 343.332 153.835C348.659 150.144 355.979 146.897 362.533 147.565C369.881 148.308 377.877 153.592 383.373 158.184C383.721 158.473 384.026 158.859 384.287 159.342C384.327 159.416 384.379 159.479 384.438 159.524C384.497 159.569 384.56 159.595 384.623 159.599C384.984 159.621 385.058 159.283 384.847 158.585Z" fill="#FCC3B6"/>
<path d="M163.457 156.792C167.422 159.454 171.165 162.458 174.686 165.803C175.326 166.41 175.493 167.128 175.185 167.956C174.979 168.501 174.527 169.071 173.827 169.666C167.501 175.057 160.872 179.649 153.571 182.526C153.035 182.741 152.61 182.582 152.083 182.606L153.804 180.307C155.516 177.668 155.32 173.898 151.999 172.777C146.867 171.044 142.543 173.866 139.221 177.523C136.409 180.616 133.612 183.724 130.828 186.847C130.586 186.623 130.352 186.675 130.142 186.922C125.222 192.802 121.058 198.545 117.649 204.15C117.472 204.446 117.576 204.635 117.962 204.716C117.738 205.131 116.259 208.247 116.119 208.299C115.985 208.348 115.937 208.289 115.974 208.121C116.304 206.511 116.234 204.916 115.764 203.338C115.842 201.684 115.842 200.052 115.764 198.442C115.118 185.194 116.167 172.09 118.913 159.132L119.865 159.006C119.995 158.988 120.132 158.912 120.252 158.791C126.382 152.765 133.361 148.135 142.193 147.734C149.293 147.411 157.793 152.84 163.457 156.792Z" fill="#FCC3B6"/>
<path d="M247.524 159.13C247.761 163.303 247.686 167.903 247.301 172.93C247.086 175.686 246.766 177.99 246.339 179.843C245.42 183.833 241.964 185.468 238.353 183.861C235.512 182.6 234.145 179.657 233.16 176.742C231.447 171.678 229.96 166.549 228.7 161.354C232.237 160.594 235.812 159.987 239.426 159.532L247.524 159.13Z" fill="#2E2E44"/>
<path d="M257.142 159.13L269.622 160.261L275.57 161.466C274.466 167.81 272.794 173.643 270.555 178.965C269.048 182.548 265.852 185.019 261.882 184.16C258.01 183.324 257.096 179.157 256.904 175.695C256.556 169.361 256.635 163.839 257.142 159.13Z" fill="#2E2E44"/>
<path d="M201.347 261.632C200.784 263.853 199.983 265.717 198.944 267.224C197.288 269.63 194.713 272.96 192.46 275.072C184.515 282.532 174.56 285.4 163.699 284.499C158.424 284.063 153.251 283.099 148.178 281.607C146.147 279.879 145.236 277.686 145.444 275.03C147.469 270.414 155.843 273.227 159.351 273.941C167.832 275.674 178.558 274.432 185.513 268.653C187.748 266.794 189.647 263.926 191.518 261.431C193.514 258.773 194.429 257.11 197.736 257.848C199.904 258.331 201.108 259.592 201.347 261.632Z" fill="#2E2E44"/>
<path d="M359.543 273.768L359.506 276.043C358.274 280.841 355.386 282.322 350.553 283.298C346.504 284.12 342.776 284.396 338.643 284.636C336.684 284.752 334.085 284.606 331.851 284.401C327.288 283.983 323.556 283.39 318.894 281.521C312.363 278.251 310.497 276.062 307.075 272.325C307.075 272.325 301.816 266.201 302.367 261.983C302.735 259.18 306.033 257.288 308.581 258.456C309.299 258.786 310.17 259.605 311.193 260.913C315.117 265.925 319.595 271.297 325.748 273.143C333.74 275.539 341.358 274.745 349.144 273.049C351.01 272.638 353.31 272.339 354.882 272.325C356.565 272.313 358.119 272.794 359.543 273.768Z" fill="#2E2E44"/>
<path d="M145.444 275.03C145.236 277.686 146.147 279.879 148.178 281.607C150.791 283.354 153.888 283.588 156.818 284.111C156.718 284.089 156.622 284.095 156.529 284.13C156.497 284.141 156.469 284.159 156.445 284.182C156.42 284.205 156.401 284.234 156.388 284.266C156.374 284.298 156.367 284.333 156.366 284.369C156.366 284.405 156.372 284.441 156.384 284.475C156.652 285.226 156.575 285.953 156.155 286.657C156.031 286.862 155.978 286.838 155.997 286.582L156.002 286.465C156.008 286.391 155.98 286.394 155.918 286.475C155.283 287.294 155.271 288.063 155.88 288.782L150.889 290.118C150.319 289.919 149.736 289.854 149.139 289.922C144.712 290.422 138.087 285.19 139.268 280.505C140.014 277.529 142.062 274.577 145.113 273.423C145.281 273.361 145.323 273.407 145.239 273.563C144.869 274.248 144.937 274.737 145.444 275.03Z" fill="#E8D9C2"/>
<path d="M353.67 290.165C351.558 289.159 349.275 288.652 346.821 288.642C346.722 287.857 346.369 287.186 345.762 286.629C345.715 286.585 345.684 286.526 345.674 286.461C345.664 286.396 345.675 286.329 345.706 286.269C345.983 285.762 346.033 285.243 345.855 284.714C351.799 283.555 358.568 283.522 359.506 276.043L359.543 273.768C362.202 275.21 363.787 277.462 364.297 280.523C364.586 282.242 364.427 283.962 363.429 285.466C361.215 288.789 357.962 290.355 353.67 290.165Z" fill="#E6DEC7"/>
<path d="M283.067 308.178C283.546 309.446 283.72 310.578 283.589 311.574C283.127 315.134 280.212 317.381 276.955 318.376C270.801 320.257 264.618 319.975 258.407 317.53C256.276 316.724 254.434 315.448 252.878 313.704C252.838 313.66 252.793 313.625 252.747 313.603C252.702 313.582 252.659 313.575 252.622 313.583C252.569 313.599 252.519 313.63 252.473 313.676C252.438 313.608 252.379 313.564 252.295 313.546C252.244 313.534 252.185 313.543 252.125 313.571C252.066 313.599 252.008 313.645 251.959 313.704C247.481 318.988 239.037 320.212 232.394 319.053C230.046 318.642 228.186 317.736 226.814 316.334C226.413 315.928 226.357 314.905 225.494 315.545C224.276 313.999 223.502 311.429 224.449 309.561C226.096 306.3 232.412 308.533 234.502 308.79C237.978 309.22 241.911 308.253 244.677 306.473C248.143 304.235 248.447 301.059 248.531 296.817C248.587 294.142 248.641 292.683 248.694 292.44C249.874 286.928 258.771 287.105 259.778 292.636C260.389 296.018 258.817 300.816 260.431 303.969C262.13 307.286 266.543 308.888 269.995 309.206C273.522 309.528 280.38 306.141 283.067 308.178Z" fill="#2E2E44"/>
<path d="M346.821 288.642C349.275 288.652 351.558 289.159 353.67 290.165C355.934 291.772 357.343 293.771 357.896 296.163C359.034 301.082 358.405 308.038 354.449 311.658C350.791 315.003 343.756 315.699 340.103 311.71C335.923 307.146 336.115 296.373 340.253 291.833C341.904 290.02 344.094 288.957 346.821 288.642Z" fill="#F19BBF"/>
<path d="M155.88 288.782C162.156 289.075 165.868 292.328 167.016 298.541C167.748 302.526 167.016 307.832 164.264 311.107C162.226 312.593 159.972 313.614 157.499 314.172C143.793 316.428 140.774 295.925 150.889 290.118L155.88 288.782Z" fill="#F19BBF"/>
<path d="M117.962 321.851L118.214 322.3C119.349 325.168 120.937 327.753 122.977 330.054C123.205 330.311 123.462 330.33 123.481 329.91C136.338 346.194 155.069 356.261 174.662 362.493C198.389 370.037 223.315 373.083 248.134 373.587C251.26 373.653 254.368 373.636 257.46 373.536C274.127 372.997 290.652 371.143 307.036 367.972C327.041 364.095 346.14 357.055 363.121 345.059C368.677 341.135 374.355 336.052 378.53 331.19C379.348 330.237 381.455 327.471 384.852 322.893C385.234 322.379 386.662 321.37 385.635 323.388C384.273 326.065 383.223 328.872 381.633 331.302C370.641 348.058 354.388 361.185 335.261 367.86C324.067 371.769 311.941 374.772 298.882 376.871C296.125 377.315 292.906 378.184 290.037 378.52C283.11 379.336 275.218 380.051 266.361 380.665C262.825 380.911 254.889 380.928 242.554 380.716C241.808 380.703 241.024 380.655 240.203 380.571C237.026 380.244 233.863 380.389 230.672 379.996C228.204 379.693 224.729 379.73 221.785 379.38C217.013 378.81 212.077 378.455 207.505 377.647C197.298 375.834 187.179 373.76 177.251 370.738C177.182 370.716 177.109 370.717 177.044 370.739C176.979 370.761 176.925 370.803 176.892 370.859C176.821 370.978 176.777 371.102 176.762 371.233C164.33 367.717 152.793 361.874 142.151 353.706C138.182 350.657 134.907 347.779 132.326 345.073C125.981 337.893 120.877 330.746 116.963 322.132C117.361 321.83 117.694 321.736 117.962 321.851Z" fill="#C9C0B1"/>
</svg>
